STARTFONT 2.1
COMMENT
COMMENT Converted from OpenType font "Inconsolata-Regular.ttf" by "otf2bdf 3.0".
COMMENT
FONT -FreeType-Inconsolata-Medium-R-Normal--25-180-100-100-P-98-ISO10646-1
SIZE 18 100 100
FONTBOUNDINGBOX 24 31 -11 -7
STARTPROPERTIES 19
FOUNDRY "FreeType"
FAMILY_NAME "Inconsolata"
WEIGHT_NAME "Medium"
SLANT "R"
SETWIDTH_NAME "Normal"
ADD_STYLE_NAME ""
PIXEL_SIZE 25
POINT_SIZE 180
RESOLUTION_X 100
RESOLUTION_Y 100
SPACING "P"
AVERAGE_WIDTH 120
CHARSET_REGISTRY "ISO10646"
CHARSET_ENCODING "1"
FONT_ASCENT 21
FONT_DESCENT 4
COPYRIGHT "Copyright 2006 The Inconsolata Project Authors"
_OTF_FONTFILE "Inconsolata-Regular.ttf"
_OTF_PSNAME "Inconsolata-Regular"
ENDPROPERTIES
CHARS 724
STARTCHAR 0000
ENCODING 0
SWIDTH 0 0
DWIDTH 0 0
BBX 0 0 0 0
BITMAP
ENDCHAR
STARTCHAR 000D
ENCODING 13
SWIDTH 480 0
DWIDTH 12 0
BBX 0 0 0 0
BITMAP
ENDCHAR
STARTCHAR 0020
ENCODING 32
SWIDTH 480 0
DWIDTH 12 0
BBX 0 0 0 0
BITMAP
ENDCHAR
STARTCHAR 0021
ENCODING 33
SWIDTH 480 0
DWIDTH 12 0
BBX 2 17 5 0
BITMAP
C0
C0
C0
C0
C0
C0
C0
C0
C0
C0
C0
C0
00
00
00
C0
C0
ENDCHAR
STARTCHAR 0022
ENCODING 34
SWIDTH 480 0
DWIDTH 12 0
BBX 6 7 3 10
BITMAP
CC
CC
CC
CC
4C
4C
4C
ENDCHAR
STARTCHAR 0023
ENCODING 35
SWIDTH 480 0
DWIDTH 12 0
BBX 11 16 1 0
BITMAP
1880
1980
1980
1180
1180
FFE0
1100
3100
3100
3300
FFC0
3300
2300
2300
2200
2200
ENDCHAR
STARTCHAR 0024
ENCODING 36
SWIDTH 480 0
DWIDTH 12 0
BBX 10 17 2 -1
BITMAP
0800
1E00
7F00
C980
C800
C800
E800
7800
1F00
0B80
0880
08C0
8880
C980
FF00
1C00
0800
ENDCHAR
STARTCHAR 0025
ENCODING 37
SWIDTH 480 0
DWIDTH 12 0
BBX 11 16 1 0
BITMAP
7040
D8C0
8880
8900
8900
FA00
2600
0400
0C00
0800
19C0
1260
2620
2620
4260
C3C0
ENDCHAR
STARTCHAR 0026
ENCODING 38
SWIDTH 480 0
DWIDTH 12 0
BBX 11 16 1 0
BITMAP
0C00
3E00
6300
6300
6300
3300
3600
1C00
3C00
6640
C660
C3C0
C180
C1C0
E7C0
7C40
ENDCHAR
STARTCHAR 0027
ENCODING 39
SWIDTH 480 0
DWIDTH 12 0
BBX 2 7 5 10
BITMAP
C0
C0
C0
C0
C0
C0
40
ENDCHAR
STARTCHAR 0028
ENCODING 40
SWIDTH 480 0
DWIDTH 12 0
BBX 7 21 3 -4
BITMAP
02
06
0C
18
30
60
60
40
C0
C0
C0
C0
C0
C0
60
60
30
30
18
0E
06
ENDCHAR
STARTCHAR 0029
ENCODING 41
SWIDTH 480 0
DWIDTH 12 0
BBX 7 21 3 -4
BITMAP
80
C0
70
30
18
0C
0C
06
06
06
06
06
06
06
06
0C
0C
18
30
E0
C0
ENDCHAR
STARTCHAR 002A
ENCODING 42
SWIDTH 480 0
DWIDTH 12 0
BBX 10 10 1 3
BITMAP
0C00
0C00
0440
F5C0
3F00
0E00
1A00
3300
6180
2000
ENDCHAR
STARTCHAR 002B
ENCODING 43
SWIDTH 480 0
DWIDTH 12 0
BBX 10 10 1 3
BITMAP
0400
0400
0400
0400
FFC0
FFC0
0400
0400
0400
0400
ENDCHAR
STARTCHAR 002C
ENCODING 44
SWIDTH 480 0
DWIDTH 12 0
BBX 4 6 4 -3
BITMAP
60
70
30
20
40
C0
ENDCHAR
STARTCHAR 002D
ENCODING 45
SWIDTH 480 0
DWIDTH 12 0
BBX 9 2 2 7
BITMAP
FF80
FF80
ENDCHAR
STARTCHAR 002E
ENCODING 46
SWIDTH 480 0
DWIDTH 12 0
BBX 2 2 5 1
BITMAP
C0
C0
ENDCHAR
STARTCHAR 002F
ENCODING 47
SWIDTH 480 0
DWIDTH 12 0
BBX 9 18 2 -1
BITMAP
0100
0180
0300
0300
0600
0600
0400
0C00
0C00
1800
1800
3000
3000
6000
6000
C000
C000
8000
ENDCHAR
STARTCHAR 0030
ENCODING 48
SWIDTH 480 0
DWIDTH 12 0
BBX 10 16 1 0
BITMAP
0C00
3F00
3180
6180
60C0
41C0
C3C0
C6C0
C4C0
C8C0
50C0
70C0
60C0
6180
3380
1F00
ENDCHAR
STARTCHAR 0031
ENCODING 49
SWIDTH 480 0
DWIDTH 12 0
BBX 6 16 2 0
BITMAP
0C
3C
FC
0C
0C
0C
0C
0C
0C
0C
0C
0C
0C
0C
0C
0C
ENDCHAR
STARTCHAR 0032
ENCODING 50
SWIDTH 480 0
DWIDTH 12 0
BBX 9 16 2 0
BITMAP
1800
7F00
C300
8180
0180
0180
0180
0300
0300
0600
0C00
1800
3000
6000
FF80
FF80
ENDCHAR
STARTCHAR 0033
ENCODING 51
SWIDTH 480 0
DWIDTH 12 0
BBX 9 16 2 0
BITMAP
1800
7E00
4300
0300
0300
0300
0600
3C00
3E00
0300
0180
0180
0180
0300
E700
7E00
ENDCHAR
STARTCHAR 0034
ENCODING 52
SWIDTH 480 0
DWIDTH 12 0
BBX 11 16 1 0
BITMAP
0180
0180
0380
0780
0580
0D80
1980
1180
3180
6180
C180
FFE0
0180
0180
0180
0180
ENDCHAR
STARTCHAR 0035
ENCODING 53
SWIDTH 480 0
DWIDTH 12 0
BBX 9 16 2 0
BITMAP
7F80
7F80
4000
C000
C000
C000
FE00
E700
8180
0180
0180
0180
0180
C180
E700
7E00
ENDCHAR
STARTCHAR 0036
ENCODING 54
SWIDTH 480 0
DWIDTH 12 0
BBX 9 16 2 0
BITMAP
0C00
3F00
6100
4000
C000
C000
9E00
B700
C300
C180
8180
C180
C180
C180
7700
3E00
ENDCHAR
STARTCHAR 0037
ENCODING 55
SWIDTH 480 0
DWIDTH 12 0
BBX 9 16 2 0
BITMAP
FF80
FF80
0300
0300
0300
0600
0600
0600
0C00
0C00
0C00
1800
1800
1800
3000
3000
ENDCHAR
STARTCHAR 0038
ENCODING 56
SWIDTH 480 0
DWIDTH 12 0
BBX 9 16 2 0
BITMAP
1C00
7F00
4300
C100
C100
4300
7700
3C00
7E00
C300
C180
8180
8180
C180
E700
7E00
ENDCHAR
STARTCHAR 0039
ENCODING 57
SWIDTH 480 0
DWIDTH 12 0
BBX 9 16 2 0
BITMAP
1800
7E00
C300
C100
8180
8180
C180
C180
7780
3F80
0180
0180
0300
0300
CE00
7C00
ENDCHAR
STARTCHAR 003A
ENCODING 58
SWIDTH 480 0
DWIDTH 12 0
BBX 2 10 5 1
BITMAP
C0
C0
00
00
00
00
00
00
C0
C0
ENDCHAR
STARTCHAR 003B
ENCODING 59
SWIDTH 480 0
DWIDTH 12 0
BBX 4 14 4 -3
BITMAP
60
60
00
00
00
00
00
00
60
70
30
20
40
C0
ENDCHAR
STARTCHAR 003C
ENCODING 60
SWIDTH 480 0
DWIDTH 12 0
BBX 11 13 1 1
BITMAP
0040
01C0
0780
1E00
3800
E000
E000
7000
1C00
0700
01C0
00E0
0020
ENDCHAR
STARTCHAR 003D
ENCODING 61
SWIDTH 480 0
DWIDTH 12 0
BBX 10 5 1 6
BITMAP
FFC0
FFC0
0000
0000
FFC0
ENDCHAR
STARTCHAR 003E
ENCODING 62
SWIDTH 480 0
DWIDTH 12 0
BBX 11 13 1 1
BITMAP
8000
E000
3800
0E00
0380
00E0
00E0
0380
0E00
1C00
7000
C000
8000
ENDCHAR
STARTCHAR 003F
ENCODING 63
SWIDTH 480 0
DWIDTH 12 0
BBX 9 17 2 0
BITMAP
1800
7F00
C300
8180
0180
0180
0100
0300
0600
0C00
0800
0800
0000
0000
0800
1C00
1C00
ENDCHAR
STARTCHAR 0040
ENCODING 64
SWIDTH 480 0
DWIDTH 12 0
BBX 11 16 1 0
BITMAP
0E00
3F80
60C0
4040
C060
87E0
8C60
8860
9860
9860
CFE0
C760
4000
6000
3880
1F80
ENDCHAR
STARTCHAR 0041
ENCODING 65
SWIDTH 480 0
DWIDTH 12 0
BBX 11 15 1 1
BITMAP
0400
0C00
0E00
0E00
1A00
1300
3300
3100
2180
7F80
6080
40C0
C0C0
C060
8060
ENDCHAR
STARTCHAR 0042
ENCODING 66
SWIDTH 480 0
DWIDTH 12 0
BBX 10 16 1 0
BITMAP
F800
FF80
C180
C0C0
C0C0
C0C0
C180
FF00
C380
C0C0
C0C0
C040
C0C0
C0C0
FF80
FF00
ENDCHAR
STARTCHAR 0043
ENCODING 67
SWIDTH 480 0
DWIDTH 12 0
BBX 10 16 1 0
BITMAP
0600
1F80
30C0
6040
4000
C000
C000
C000
C000
C000
C000
C000
6000
6040
39C0
1F80
ENDCHAR
STARTCHAR 0044
ENCODING 68
SWIDTH 480 0
DWIDTH 12 0
BBX 10 16 1 0
BITMAP
F800
FF00
C380
C0C0
C0C0
C0C0
C040
C040
C040
C040
C040
C0C0
C0C0
C180
CF00
FE00
ENDCHAR
STARTCHAR 0045
ENCODING 69
SWIDTH 480 0
DWIDTH 12 0
BBX 10 16 1 0
BITMAP
FFC0
FFC0
C000
C000
C000
C000
C000
FF80
FF80
C000
C000
C000
C000
C000
FFC0
FFC0
ENDCHAR
STARTCHAR 0046
ENCODING 70
SWIDTH 480 0
DWIDTH 12 0
BBX 9 16 2 0
BITMAP
FF80
FF80
C000
C000
C000
C000
C000
FF00
C000
C000
C000
C000
C000
C000
C000
C000
ENDCHAR
STARTCHAR 0047
ENCODING 71
SWIDTH 480 0
DWIDTH 12 0
BBX 11 16 1 0
BITMAP
0E00
3F80
70C0
6040
C000
C000
C000
C000
C000
C3E0
C060
C060
4060
6060
39E0
1F80
ENDCHAR
STARTCHAR 0048
ENCODING 72
SWIDTH 480 0
DWIDTH 12 0
BBX 10 16 1 0
BITMAP
C0C0
C0C0
C0C0
C0C0
C0C0
C0C0
C0C0
FFC0
FFC0
C0C0
C0C0
C0C0
C0C0
C0C0
C0C0
C0C0
ENDCHAR
STARTCHAR 0049
ENCODING 73
SWIDTH 480 0
DWIDTH 12 0
BBX 8 16 2 0
BITMAP
FF
FF
18
18
18
18
18
18
18
18
18
18
18
18
18
FF
ENDCHAR
STARTCHAR 004A
ENCODING 74
SWIDTH 480 0
DWIDTH 12 0
BBX 10 16 1 0
BITMAP
1FC0
1FC0
0300
0300
0300
0300
0300
0300
0300
0300
0300
0300
0300
0300
E600
7C00
ENDCHAR
STARTCHAR 004B
ENCODING 75
SWIDTH 480 0
DWIDTH 12 0
BBX 10 16 1 0
BITMAP
C0C0
C180
C380
C300
C600
CC00
D800
F800
F800
CC00
C600
C700
C300
C180
C1C0
C0C0
ENDCHAR
STARTCHAR 004C
ENCODING 76
SWIDTH 480 0
DWIDTH 12 0
BBX 9 16 2 0
BITMAP
C000
8000
8000
8000
8000
8000
8000
8000
8000
8000
8000
8000
8000
8000
FF80
FF80
ENDCHAR
STARTCHAR 004D
ENCODING 77
SWIDTH 480 0
DWIDTH 12 0
BBX 11 16 1 0
BITMAP
8060
C060
C0E0
E0E0
E1E0
F160
D360
DA60
CE60
CC60
C060
C060
C060
C060
C060
C060
ENDCHAR
STARTCHAR 004E
ENCODING 78
SWIDTH 480 0
DWIDTH 12 0
BBX 10 16 1 0
BITMAP
C0C0
E0C0
E0C0
F0C0
F0C0
D8C0
D8C0
CCC0
C6C0
C6C0
C3C0
C3C0
C1C0
C1C0
C0C0
C040
ENDCHAR
STARTCHAR 004F
ENCODING 79
SWIDTH 480 0
DWIDTH 12 0
BBX 11 16 1 0
BITMAP
0E00
3F80
6180
60C0
C0C0
C060
C060
C060
8060
8060
C060
C060
C0C0
60C0
7380
3F00
ENDCHAR
STARTCHAR 0050
ENCODING 80
SWIDTH 480 0
DWIDTH 12 0
BBX 10 16 1 0
BITMAP
FC00
FF80
C1C0
C0C0
C040
C040
C0C0
C3C0
FF00
C000
C000
C000
C000
C000
C000
C000
ENDCHAR
STARTCHAR 0051
ENCODING 81
SWIDTH 480 0
DWIDTH 12 0
BBX 11 20 1 -4
BITMAP
0E00
3F80
6180
40C0
C0C0
C060
C060
8060
8060
8060
C060
C040
C0C0
60C0
3B80
1F00
0400
0600
07C0
01C0
ENDCHAR
STARTCHAR 0052
ENCODING 82
SWIDTH 480 0
DWIDTH 12 0
BBX 10 16 1 0
BITMAP
FC00
FF80
C1C0
C0C0
C0C0
C0C0
C0C0
C380
FF00
C600
C300
C300
C180
C180
C0C0
C0C0
ENDCHAR
STARTCHAR 0053
ENCODING 83
SWIDTH 480 0
DWIDTH 12 0
BBX 9 16 2 0
BITMAP
1C00
7F00
C180
C000
C000
C000
6000
3C00
0F00
0380
0180
0080
0080
8180
E300
7E00
ENDCHAR
STARTCHAR 0054
ENCODING 84
SWIDTH 480 0
DWIDTH 12 0
BBX 11 16 1 0
BITMAP
FFE0
FFE0
0C00
0C00
0C00
0C00
0C00
0C00
0C00
0C00
0C00
0C00
0C00
0C00
0C00
0C00
ENDCHAR
STARTCHAR 0055
ENCODING 85
SWIDTH 480 0
DWIDTH 12 0
BBX 10 16 1 0
BITMAP
C040
C040
C040
C040
C040
C040
C040
C040
C040
C040
C040
C040
C0C0
60C0
7180
3F00
ENDCHAR
STARTCHAR 0056
ENCODING 86
SWIDTH 480 0
DWIDTH 12 0
BBX 11 16 1 0
BITMAP
8060
C060
C040
40C0
60C0
6080
2180
3180
3100
1300
1B00
1A00
0E00
0E00
0C00
0400
ENDCHAR
STARTCHAR 0057
ENCODING 87
SWIDTH 480 0
DWIDTH 12 0
BBX 12 16 0 0
BITMAP
C010
4010
4230
6230
6730
6720
6520
2520
2DA0
29E0
38E0
38C0
38C0
10C0
1040
1040
ENDCHAR
STARTCHAR 0058
ENCODING 88
SWIDTH 480 0
DWIDTH 12 0
BBX 10 16 1 0
BITMAP
C0C0
60C0
6180
3180
3300
1B00
1E00
0E00
0E00
1E00
1B00
3300
3180
6180
60C0
C0C0
ENDCHAR
STARTCHAR 0059
ENCODING 89
SWIDTH 480 0
DWIDTH 12 0
BBX 11 16 1 0
BITMAP
C060
C0C0
60C0
6080
3180
3100
1B00
1B00
0E00
0E00
0C00
0C00
0C00
0C00
0C00
0C00
ENDCHAR
STARTCHAR 005A
ENCODING 90
SWIDTH 480 0
DWIDTH 12 0
BBX 11 16 1 0
BITMAP
7FC0
7FC0
00C0
0180
0100
0300
0600
0600
0C00
1800
1800
3000
3000
6000
FFE0
FFE0
ENDCHAR
STARTCHAR 005B
ENCODING 91
SWIDTH 480 0
DWIDTH 12 0
BBX 7 19 3 -2
BITMAP
FE
FE
C0
C0
C0
C0
C0
C0
C0
C0
C0
C0
C0
C0
C0
C0
C0
C0
FE
ENDCHAR
STARTCHAR 005C
ENCODING 92
SWIDTH 480 0
DWIDTH 12 0
BBX 9 17 2 0
BITMAP
C000
C000
6000
6000
2000
3000
1000
1800
1800
0C00
0C00
0600
0600
0300
0300
0180
0180
ENDCHAR
STARTCHAR 005D
ENCODING 93
SWIDTH 480 0
DWIDTH 12 0
BBX 7 19 3 -2
BITMAP
FE
FE
02
02
02
02
02
02
02
02
02
02
02
02
02
02
02
02
FE
ENDCHAR
STARTCHAR 005E
ENCODING 94
SWIDTH 480 0
DWIDTH 12 0
BBX 7 7 3 9
BITMAP
10
10
38
68
4C
C4
86
ENDCHAR
STARTCHAR 005F
ENCODING 95
SWIDTH 480 0
DWIDTH 12 0
BBX 11 2 1 -2
BITMAP
FFE0
FFE0
ENDCHAR
STARTCHAR 0060
ENCODING 96
SWIDTH 480 0
DWIDTH 12 0
BBX 3 4 4 13
BITMAP
C0
C0
60
20
ENDCHAR
STARTCHAR 0061
ENCODING 97
SWIDTH 480 0
DWIDTH 12 0
BBX 10 12 1 0
BITMAP
0C00
7F80
6180
00C0
00C0
0FC0
3FC0
60C0
C0C0
C0C0
63C0
7EC0
ENDCHAR
STARTCHAR 0062
ENCODING 98
SWIDTH 480 0
DWIDTH 12 0
BBX 9 17 2 0
BITMAP
C000
8000
8000
8000
8000
8C00
BF00
E380
C180
C180
8080
8080
8180
C180
C180
F700
BE00
ENDCHAR
STARTCHAR 0063
ENCODING 99
SWIDTH 480 0
DWIDTH 12 0
BBX 10 12 1 0
BITMAP
0600
1FC0
30C0
6000
6000
C000
C000
C000
6000
6000
39C0
1F80
ENDCHAR
STARTCHAR 0064
ENCODING 100
SWIDTH 480 0
DWIDTH 12 0
BBX 10 17 1 0
BITMAP
00C0
00C0
00C0
00C0
00C0
0CC0
3FC0
61C0
40C0
C0C0
C0C0
C0C0
C0C0
C0C0
61C0
73C0
3EC0
ENDCHAR
STARTCHAR 0065
ENCODING 101
SWIDTH 480 0
DWIDTH 12 0
BBX 10 12 1 0
BITMAP
0E00
3F80
6180
60C0
C0C0
FFC0
FFC0
C000
C000
6000
31C0
1F80
ENDCHAR
STARTCHAR 0066
ENCODING 102
SWIDTH 480 0
DWIDTH 12 0
BBX 10 17 2 0
BITMAP
0700
1FC0
3080
3000
3000
3000
FF00
3000
3000
3000
3000
3000
3000
3000
3000
3000
3000
ENDCHAR
STARTCHAR 0067
ENCODING 103
SWIDTH 480 0
DWIDTH 12 0
BBX 11 16 1 -4
BITMAP
1C60
3FE0
6100
4180
4180
6100
7700
3E00
4000
6000
7F80
47C0
C0C0
C0C0
E1C0
7F80
ENDCHAR
STARTCHAR 0068
ENCODING 104
SWIDTH 480 0
DWIDTH 12 0
BBX 9 17 2 0
BITMAP
C000
C000
C000
C000
C000
CC00
FF00
E300
C180
C180
C180
C180
C180
C180
C180
C180
C180
ENDCHAR
STARTCHAR 0069
ENCODING 105
SWIDTH 480 0
DWIDTH 12 0
BBX 7 16 3 0
BITMAP
30
30
00
00
00
F0
30
30
30
30
30
30
30
30
30
FE
ENDCHAR
STARTCHAR 006A
ENCODING 106
SWIDTH 480 0
DWIDTH 12 0
BBX 8 20 1 -4
BITMAP
03
03
00
00
00
3F
03
03
03
03
03
03
03
03
03
03
03
03
E7
7E
ENDCHAR
STARTCHAR 006B
ENCODING 107
SWIDTH 480 0
DWIDTH 12 0
BBX 10 17 2 0
BITMAP
C000
8000
8000
8000
8000
8000
8380
8600
8C00
9800
B800
F800
CC00
8600
8300
8380
81C0
ENDCHAR
STARTCHAR 006C
ENCODING 108
SWIDTH 480 0
DWIDTH 12 0
BBX 9 17 2 0
BITMAP
F800
F800
1800
1800
1800
1800
1800
1800
1800
1800
1800
1800
1800
1800
1800
1800
FF80
ENDCHAR
STARTCHAR 006D
ENCODING 109
SWIDTH 480 0
DWIDTH 12 0
BBX 11 12 1 0
BITMAP
10C0
FFC0
CE60
CC60
CC60
CC60
CC60
CC60
CC60
CC60
CC60
CC60
ENDCHAR
STARTCHAR 006E
ENCODING 110
SWIDTH 480 0
DWIDTH 12 0
BBX 9 12 2 0
BITMAP
0C00
FF00
E300
C180
C180
C180
C180
C180
C180
C180
C180
C180
ENDCHAR
STARTCHAR 006F
ENCODING 111
SWIDTH 480 0
DWIDTH 12 0
BBX 11 12 1 0
BITMAP
0C00
3F80
6180
60C0
C0C0
C040
C060
C0C0
C0C0
60C0
7380
1F00
ENDCHAR
STARTCHAR 0070
ENCODING 112
SWIDTH 480 0
DWIDTH 12 0
BBX 10 16 2 -4
BITMAP
0C00
BF00
E380
C180
C080
80C0
80C0
8080
C180
C180
E700
BE00
8000
8000
8000
8000
ENDCHAR
STARTCHAR 0071
ENCODING 113
SWIDTH 480 0
DWIDTH 12 0
BBX 10 16 1 -4
BITMAP
0C00
3FC0
61C0
40C0
C0C0
C0C0
C0C0
C0C0
C0C0
61C0
73C0
3EC0
00C0
00C0
00C0
00C0
ENDCHAR
STARTCHAR 0072
ENCODING 114
SWIDTH 480 0
DWIDTH 12 0
BBX 8 12 3 0
BITMAP
0C
DF
E1
C0
C0
C0
C0
C0
C0
C0
C0
C0
ENDCHAR
STARTCHAR 0073
ENCODING 115
SWIDTH 480 0
DWIDTH 12 0
BBX 10 12 1 0
BITMAP
1C00
3F80
6080
6000
7000
3E00
0780
01C0
00C0
40C0
F380
3F00
ENDCHAR
STARTCHAR 0074
ENCODING 116
SWIDTH 480 0
DWIDTH 12 0
BBX 9 15 2 0
BITMAP
1800
3000
3000
3000
FF00
3000
3000
3000
3000
3000
3000
3000
3000
3980
1F00
ENDCHAR
STARTCHAR 0075
ENCODING 117
SWIDTH 480 0
DWIDTH 12 0
BBX 9 11 2 0
BITMAP
8180
8180
8180
8180
8180
8180
8180
8180
C380
E780
7D80
ENDCHAR
STARTCHAR 0076
ENCODING 118
SWIDTH 480 0
DWIDTH 12 0
BBX 10 11 1 0
BITMAP
C0C0
60C0
60C0
2180
3180
3100
1B00
1A00
0E00
0E00
0C00
ENDCHAR
STARTCHAR 0077
ENCODING 119
SWIDTH 480 0
DWIDTH 12 0
BBX 11 11 1 0
BITMAP
8060
8460
CC60
CE40
CA40
4A40
5B40
73C0
71C0
7180
2180
ENDCHAR
STARTCHAR 0078
ENCODING 120
SWIDTH 480 0
DWIDTH 12 0
BBX 9 11 2 0
BITMAP
C300
6300
6600
3C00
1C00
1800
3C00
3600
6300
C300
C180
ENDCHAR
STARTCHAR 0079
ENCODING 121
SWIDTH 480 0
DWIDTH 12 0
BBX 10 15 1 -4
BITMAP
40C0
60C0
6080
3180
3180
1100
1B00
1B00
0A00
0E00
0600
0400
0C00
9800
F800
ENDCHAR
STARTCHAR 007A
ENCODING 122
SWIDTH 480 0
DWIDTH 12 0
BBX 10 11 1 0
BITMAP
7FC0
0180
0300
0700
0600
0C00
1800
3000
6000
FFC0
FFC0
ENDCHAR
STARTCHAR 007B
ENCODING 123
SWIDTH 480 0
DWIDTH 12 0
BBX 9 20 1 -4
BITMAP
0780
0E00
1800
1800
1800
1800
1800
1800
3000
E000
3000
1800
1800
1800
1800
1800
1800
1800
0E00
0780
ENDCHAR
STARTCHAR 007C
ENCODING 124
SWIDTH 480 0
DWIDTH 12 0
BBX 2 20 5 -4
BITMAP
C0
C0
C0
C0
C0
C0
C0
C0
C0
C0
C0
C0
C0
C0
C0
C0
C0
C0
C0
C0
ENDCHAR
STARTCHAR 007D
ENCODING 125
SWIDTH 480 0
DWIDTH 12 0
BBX 9 20 1 -4
BITMAP
F000
FC00
0C00
0400
0400
0400
0400
0600
0600
0180
0300
0600
0600
0400
0600
0600
0600
0C00
3C00
F800
ENDCHAR
STARTCHAR 007E
ENCODING 126
SWIDTH 480 0
DWIDTH 12 0
BBX 10 2 2 7
BITMAP
78C0
CF80
ENDCHAR
STARTCHAR 00A0
ENCODING 160
SWIDTH 480 0
DWIDTH 12 0
BBX 0 0 0 0
BITMAP
ENDCHAR
STARTCHAR 00A1
ENCODING 161
SWIDTH 480 0
DWIDTH 12 0
BBX 2 17 5 -2
BITMAP
C0
C0
C0
00
00
C0
C0
C0
C0
C0
C0
C0
C0
C0
C0
C0
C0
ENDCHAR
STARTCHAR 00A2
ENCODING 162
SWIDTH 480 0
DWIDTH 12 0
BBX 10 18 1 -2
BITMAP
0200
0200
0200
0700
1FC0
32C0
6600
4600
C400
C400
4400
6400
7400
3DC0
1F80
0800
0800
0800
ENDCHAR
STARTCHAR 00A3
ENCODING 163
SWIDTH 480 0
DWIDTH 12 0
BBX 11 16 1 0
BITMAP
0200
1F80
3080
3000
2000
3000
3000
7E00
3000
1000
1000
1000
3000
3000
FE40
C7E0
ENDCHAR
STARTCHAR 00A4
ENCODING 164
SWIDTH 480 0
DWIDTH 12 0
BBX 9 9 2 4
BITMAP
8180
FF00
6300
C100
C100
4100
6300
FF00
8100
ENDCHAR
STARTCHAR 00A5
ENCODING 165
SWIDTH 480 0
DWIDTH 12 0
BBX 11 16 1 0
BITMAP
C060
40C0
60C0
3180
3100
1B00
1A00
0E00
0400
7FC0
7FC0
0400
7FC0
7FC0
0400
0400
ENDCHAR
STARTCHAR 00A6
ENCODING 166
SWIDTH 480 0
DWIDTH 12 0
BBX 2 20 5 -4
BITMAP
C0
C0
C0
C0
C0
C0
C0
C0
C0
00
00
C0
C0
C0
C0
C0
C0
C0
C0
C0
ENDCHAR
STARTCHAR 00A7
ENCODING 167
SWIDTH 480 0
DWIDTH 12 0
BBX 8 18 2 -1
BITMAP
1C
7F
63
C0
C0
70
3C
4F
C3
C1
E3
3E
0E
03
03
83
E7
7E
ENDCHAR
STARTCHAR 00A8
ENCODING 168
SWIDTH 480 0
DWIDTH 12 0
BBX 7 3 3 14
BITMAP
04
CE
C4
ENDCHAR
STARTCHAR 00A9
ENCODING 169
SWIDTH 480 0
DWIDTH 12 0
BBX 12 13 0 0
BITMAP
0F80
3040
6220
4F90
58D0
D010
9010
D810
4D90
6730
3060
1FC0
0200
ENDCHAR
STARTCHAR 00AA
ENCODING 170
SWIDTH 480 0
DWIDTH 12 0
BBX 9 12 2 4
BITMAP
0800
7E00
0300
0300
3F00
7300
4300
4300
7F00
1000
0000
FF80
ENDCHAR
STARTCHAR 00AB
ENCODING 171
SWIDTH 480 0
DWIDTH 12 0
BBX 9 8 2 2
BITMAP
1100
3300
6600
CC00
CC00
6600
3300
1980
ENDCHAR
STARTCHAR 00AC
ENCODING 172
SWIDTH 480 0
DWIDTH 12 0
BBX 8 5 2 4
BITMAP
FF
FF
01
01
01
ENDCHAR
STARTCHAR 00AD
ENCODING 173
SWIDTH 480 0
DWIDTH 12 0
BBX 9 2 2 7
BITMAP
FF80
FF80
ENDCHAR
STARTCHAR 00AE
ENCODING 174
SWIDTH 480 0
DWIDTH 12 0
BBX 12 13 0 0
BITMAP
0F80
3040
6E20
4990
4890
C990
8F10
C910
4890
68B0
3060
1FC0
0200
ENDCHAR
STARTCHAR 00AF
ENCODING 175
SWIDTH 480 0
DWIDTH 12 0
BBX 6 2 3 14
BITMAP
FC
FC
ENDCHAR
STARTCHAR 00B0
ENCODING 176
SWIDTH 480 0
DWIDTH 12 0
BBX 7 7 3 9
BITMAP
38
6C
C6
C6
C6
7C
30
ENDCHAR
STARTCHAR 00B1
ENCODING 177
SWIDTH 480 0
DWIDTH 12 0
BBX 10 14 1 0
BITMAP
0400
0400
0400
0400
FFC0
0400
0400
0400
0400
0400
0000
0000
FFC0
FFC0
ENDCHAR
STARTCHAR 00B2
ENCODING 178
SWIDTH 480 0
DWIDTH 12 0
BBX 7 10 3 6
BITMAP
3C
EC
86
06
0C
18
30
60
FE
FE
ENDCHAR
STARTCHAR 00B3
ENCODING 179
SWIDTH 480 0
DWIDTH 12 0
BBX 7 10 3 6
BITMAP
78
EC
06
04
18
0E
06
86
FE
38
ENDCHAR
STARTCHAR 00B4
ENCODING 180
SWIDTH 480 0
DWIDTH 12 0
BBX 3 4 6 13
BITMAP
60
C0
80
80
ENDCHAR
STARTCHAR 00B5
ENCODING 181
SWIDTH 480 0
DWIDTH 12 0
BBX 11 15 1 -4
BITMAP
C100
C100
C100
C100
C100
C100
C100
C100
C300
E7A0
BCE0
8000
8000
8000
8000
ENDCHAR
STARTCHAR 00B6
ENCODING 182
SWIDTH 480 0
DWIDTH 12 0
BBX 9 19 2 -2
BITMAP
0780
7F80
FD80
FD80
FD80
FD80
FD80
7D80
3D80
0D80
0D80
0D80
0D80
0D80
0D80
0D80
0D80
0D80
0D80
ENDCHAR
STARTCHAR 00B7
ENCODING 183
SWIDTH 480 0
DWIDTH 12 0
BBX 3 3 4 7
BITMAP
40
E0
60
ENDCHAR
STARTCHAR 00B8
ENCODING 184
SWIDTH 480 0
DWIDTH 12 0
BBX 5 5 5 -5
BITMAP
60
70
18
90
E0
ENDCHAR
STARTCHAR 00B9
ENCODING 185
SWIDTH 480 0
DWIDTH 12 0
BBX 4 10 3 6
BITMAP
10
70
90
10
10
10
10
10
10
10
ENDCHAR
STARTCHAR 00BA
ENCODING 186
SWIDTH 480 0
DWIDTH 12 0
BBX 9 11 2 5
BITMAP
3E00
6200
4300
C300
C300
4300
6200
3E00
1800
0000
FF80
ENDCHAR
STARTCHAR 00BB
ENCODING 187
SWIDTH 480 0
DWIDTH 12 0
BBX 9 8 2 2
BITMAP
8400
C600
7300
1980
1180
3300
6600
CC00
ENDCHAR
STARTCHAR 00BC
ENCODING 188
SWIDTH 480 0
DWIDTH 12 0
BBX 12 19 0 -2
BITMAP
3000
F060
3040
30C0
3080
3180
3100
3300
0300
0200
0600
0460
0C60
08A0
1920
1320
33F0
2020
0020
ENDCHAR
STARTCHAR 00BD
ENCODING 189
SWIDTH 480 0
DWIDTH 12 0
BBX 12 19 0 -2
BITMAP
3000
F060
3040
30C0
3080
3180
3100
3300
0300
0200
0600
04E0
0D10
0810
1830
1060
30C0
2100
01F0
ENDCHAR
STARTCHAR 00BE
ENCODING 190
SWIDTH 480 0
DWIDTH 12 0
BBX 12 19 0 -2
BITMAP
7800
4C60
0440
18C0
0480
0580
FD80
3100
0300
0200
0600
0460
0C60
08A0
1920
1320
33F0
2020
0020
ENDCHAR
STARTCHAR 00BF
ENCODING 191
SWIDTH 480 0
DWIDTH 12 0
BBX 9 17 2 -3
BITMAP
1800
3800
1800
0000
0000
1800
1800
1800
3000
6000
C000
C000
8000
8100
C180
FF00
7E00
ENDCHAR
STARTCHAR 00C0
ENCODING 192
SWIDTH 480 0
DWIDTH 12 0
BBX 11 20 1 0
BITMAP
1000
3800
0E00
0000
0000
0400
0C00
0E00
0E00
1A00
1300
3300
3100
2180
7F80
6080
40C0
C0C0
C060
8060
ENDCHAR
STARTCHAR 00C1
ENCODING 193
SWIDTH 480 0
DWIDTH 12 0
BBX 11 20 1 0
BITMAP
0200
0E00
1C00
0000
0000
0400
0C00
0E00
0E00
1A00
1300
3300
3100
2180
7F80
6080
40C0
C0C0
C060
8060
ENDCHAR
STARTCHAR 00C2
ENCODING 194
SWIDTH 480 0
DWIDTH 12 0
BBX 11 20 1 0
BITMAP
0C00
1E00
3380
0080
0000
0400
0C00
0E00
0E00
1A00
1300
3300
3100
2180
7F80
6080
40C0
C0C0
C060
8060
ENDCHAR
STARTCHAR 00C3
ENCODING 195
SWIDTH 480 0
DWIDTH 12 0
BBX 11 20 1 0
BITMAP
1880
3F80
2300
0000
0000
0400
0C00
0E00
0E00
1A00
1300
3300
3100
2180
7F80
6080
40C0
C0C0
C060
8060
ENDCHAR
STARTCHAR 00C4
ENCODING 196
SWIDTH 480 0
DWIDTH 12 0
BBX 11 20 1 0
BITMAP
2100
3380
3100
0000
0000
0400
0C00
0E00
0E00
1A00
1300
3300
3100
2180
7F80
6080
40C0
C0C0
C060
8060
ENDCHAR
STARTCHAR 00C5
ENCODING 197
SWIDTH 480 0
DWIDTH 12 0
BBX 11 20 1 0
BITMAP
0C00
1A00
1300
1E00
0400
0400
0C00
0E00
0E00
1A00
1300
3300
3100
2180
7F80
6080
40C0
C0C0
C060
8060
ENDCHAR
STARTCHAR 00C6
ENCODING 198
SWIDTH 480 0
DWIDTH 12 0
BBX 11 16 1 0
BITMAP
0FE0
0FE0
0A00
1A00
1A00
1200
3200
33E0
23E0
6200
7E00
7E00
C200
C200
83E0
83E0
ENDCHAR
STARTCHAR 00C7
ENCODING 199
SWIDTH 480 0
DWIDTH 12 0
BBX 10 21 1 -5
BITMAP
0600
1F80
30C0
6040
4000
C000
C000
C000
C000
C000
C000
C000
6000
6040
39C0
1F80
0200
0300
0180
0980
0F00
ENDCHAR
STARTCHAR 00C8
ENCODING 200
SWIDTH 480 0
DWIDTH 12 0
BBX 10 20 1 0
BITMAP
1000
1C00
0E00
0000
FFC0
FFC0
C000
C000
C000
C000
C000
FF80
FF80
C000
C000
C000
C000
C000
FFC0
FFC0
ENDCHAR
STARTCHAR 00C9
ENCODING 201
SWIDTH 480 0
DWIDTH 12 0
BBX 10 19 1 1
BITMAP
0700
1E00
0000
FFC0
FFC0
C000
C000
C000
C000
C000
FF80
FF80
C000
C000
C000
C000
C000
FFC0
FFC0
ENDCHAR
STARTCHAR 00CA
ENCODING 202
SWIDTH 480 0
DWIDTH 12 0
BBX 10 20 1 0
BITMAP
0400
1F00
3980
0000
FFC0
FFC0
C000
C000
C000
C000
C000
FF80
FF80
C000
C000
C000
C000
C000
FFC0
FFC0
ENDCHAR
STARTCHAR 00CB
ENCODING 203
SWIDTH 480 0
DWIDTH 12 0
BBX 10 20 1 0
BITMAP
1100
3980
1180
0000
FFC0
FFC0
C000
C000
C000
C000
C000
FF80
FF80
C000
C000
C000
C000
C000
FFC0
FFC0
ENDCHAR
STARTCHAR 00CC
ENCODING 204
SWIDTH 480 0
DWIDTH 12 0
BBX 8 19 2 1
BITMAP
70
3C
00
FF
FF
18
18
18
18
18
18
18
18
18
18
18
18
18
FF
ENDCHAR
STARTCHAR 00CD
ENCODING 205
SWIDTH 480 0
DWIDTH 12 0
BBX 8 20 2 0
BITMAP
04
1C
38
00
FF
FF
18
18
18
18
18
18
18
18
18
18
18
18
18
FF
ENDCHAR
STARTCHAR 00CE
ENCODING 206
SWIDTH 480 0
DWIDTH 12 0
BBX 8 20 2 0
BITMAP
18
3C
E7
00
FF
FF
18
18
18
18
18
18
18
18
18
18
18
18
18
FF
ENDCHAR
STARTCHAR 00CF
ENCODING 207
SWIDTH 480 0
DWIDTH 12 0
BBX 8 20 2 0
BITMAP
42
E6
46
00
FF
FF
18
18
18
18
18
18
18
18
18
18
18
18
18
FF
ENDCHAR
STARTCHAR 00D0
ENCODING 208
SWIDTH 480 0
DWIDTH 12 0
BBX 11 16 1 0
BITMAP
7800
7F00
6180
60C0
60C0
6040
6060
F860
6060
6060
6040
60C0
60C0
6180
6F00
7E00
ENDCHAR
STARTCHAR 00D1
ENCODING 209
SWIDTH 480 0
DWIDTH 12 0
BBX 10 20 1 0
BITMAP
1880
3F80
2300
0000
C0C0
E0C0
E0C0
F0C0
F0C0
D8C0
D8C0
CCC0
C6C0
C6C0
C3C0
C3C0
C1C0
C1C0
C0C0
C040
ENDCHAR
STARTCHAR 00D2
ENCODING 210
SWIDTH 480 0
DWIDTH 12 0
BBX 11 20 1 0
BITMAP
1000
3800
0E00
0000
0E00
3F80
6180
60C0
C0C0
C060
C060
C060
8060
8060
C060
C060
C0C0
60C0
7380
3F00
ENDCHAR
STARTCHAR 00D3
ENCODING 211
SWIDTH 480 0
DWIDTH 12 0
BBX 11 20 1 0
BITMAP
0200
0E00
1C00
0000
0E00
3F80
6180
60C0
C0C0
C060
C060
C060
8060
8060
C060
C060
C0C0
60C0
7380
3F00
ENDCHAR
STARTCHAR 00D4
ENCODING 212
SWIDTH 480 0
DWIDTH 12 0
BBX 11 20 1 0
BITMAP
0C00
1E00
3380
0080
0E00
3F80
6180
60C0
C0C0
C060
C060
C060
8060
8060
C060
C060
C0C0
60C0
7380
3F00
ENDCHAR
STARTCHAR 00D5
ENCODING 213
SWIDTH 480 0
DWIDTH 12 0
BBX 11 20 1 0
BITMAP
1880
3F80
2300
0000
0E00
3F80
6180
60C0
C0C0
C060
C060
C060
8060
8060
C060
C060
C0C0
60C0
7380
3F00
ENDCHAR
STARTCHAR 00D6
ENCODING 214
SWIDTH 480 0
DWIDTH 12 0
BBX 11 20 1 0
BITMAP
2100
3380
3100
0000
0E00
3F80
6180
60C0
C0C0
C060
C060
C060
8060
8060
C060
C060
C0C0
60C0
7380
3F00
ENDCHAR
STARTCHAR 00D7
ENCODING 215
SWIDTH 480 0
DWIDTH 12 0
BBX 9 9 2 4
BITMAP
0100
C380
6300
3600
1C00
1C00
3600
6300
C100
ENDCHAR
STARTCHAR 00D8
ENCODING 216
SWIDTH 480 0
DWIDTH 12 0
BBX 11 18 1 -1
BITMAP
0040
0C40
3F80
6180
61C0
C3C0
C260
C660
C460
8C60
8860
D860
D060
F0C0
60C0
7380
7F00
8000
ENDCHAR
STARTCHAR 00D9
ENCODING 217
SWIDTH 480 0
DWIDTH 12 0
BBX 10 20 1 0
BITMAP
1000
3800
0E00
0000
C040
C040
C040
C040
C040
C040
C040
C040
C040
C040
C040
C040
C0C0
60C0
7180
3F00
ENDCHAR
STARTCHAR 00DA
ENCODING 218
SWIDTH 480 0
DWIDTH 12 0
BBX 10 20 1 0
BITMAP
0200
0E00
1C00
0000
C040
C040
C040
C040
C040
C040
C040
C040
C040
C040
C040
C040
C0C0
60C0
7180
3F00
ENDCHAR
STARTCHAR 00DB
ENCODING 219
SWIDTH 480 0
DWIDTH 12 0
BBX 10 20 1 0
BITMAP
0C00
1E00
3380
0080
C040
C040
C040
C040
C040
C040
C040
C040
C040
C040
C040
C040
C0C0
60C0
7180
3F00
ENDCHAR
STARTCHAR 00DC
ENCODING 220
SWIDTH 480 0
DWIDTH 12 0
BBX 10 20 1 0
BITMAP
2100
3380
3100
0000
C040
C040
C040
C040
C040
C040
C040
C040
C040
C040
C040
C040
C0C0
60C0
7180
3F00
ENDCHAR
STARTCHAR 00DD
ENCODING 221
SWIDTH 480 0
DWIDTH 12 0
BBX 11 20 1 0
BITMAP
0200
0E00
1C00
0000
C060
C0C0
60C0
6080
3180
3100
1B00
1B00
0E00
0E00
0C00
0C00
0C00
0C00
0C00
0C00
ENDCHAR
STARTCHAR 00DE
ENCODING 222
SWIDTH 480 0
DWIDTH 12 0
BBX 10 16 1 0
BITMAP
C000
C000
C000
FE00
FF80
C1C0
C0C0
C040
C0C0
C0C0
C380
FF00
C000
C000
C000
C000
ENDCHAR
STARTCHAR 00DF
ENCODING 223
SWIDTH 480 0
DWIDTH 12 0
BBX 11 17 1 0
BITMAP
0C00
3F00
6180
6080
C080
C080
C180
C700
CF80
C0C0
C040
C040
C060
C060
C0C0
C9C0
DF80
ENDCHAR
STARTCHAR 00E0
ENCODING 224
SWIDTH 480 0
DWIDTH 12 0
BBX 10 17 1 0
BITMAP
1000
1800
0800
0C00
0000
0C00
7F80
6180
00C0
00C0
0FC0
3FC0
60C0
C0C0
C0C0
63C0
7EC0
ENDCHAR
STARTCHAR 00E1
ENCODING 225
SWIDTH 480 0
DWIDTH 12 0
BBX 10 17 1 0
BITMAP
0200
0600
0400
0C00
0000
0C00
7F80
6180
00C0
00C0
0FC0
3FC0
60C0
C0C0
C0C0
63C0
7EC0
ENDCHAR
STARTCHAR 00E2
ENCODING 226
SWIDTH 480 0
DWIDTH 12 0
BBX 10 17 1 0
BITMAP
0C00
1E00
3300
2180
0000
0C00
7F80
6180
00C0
00C0
0FC0
3FC0
60C0
C0C0
C0C0
63C0
7EC0
ENDCHAR
STARTCHAR 00E3
ENCODING 227
SWIDTH 480 0
DWIDTH 12 0
BBX 10 17 1 0
BITMAP
3880
6780
0300
0000
0000
0C00
7F80
6180
00C0
00C0
0FC0
3FC0
60C0
C0C0
C0C0
63C0
7EC0
ENDCHAR
STARTCHAR 00E4
ENCODING 228
SWIDTH 480 0
DWIDTH 12 0
BBX 10 17 1 0
BITMAP
0100
3380
3100
0000
0000
0C00
7F80
6180
00C0
00C0
0FC0
3FC0
60C0
C0C0
C0C0
63C0
7EC0
ENDCHAR
STARTCHAR 00E5
ENCODING 229
SWIDTH 480 0
DWIDTH 12 0
BBX 10 17 1 0
BITMAP
1E00
1200
1200
0E00
0000
0C00
7F80
6180
00C0
00C0
0FC0
3FC0
60C0
C0C0
C0C0
63C0
7EC0
ENDCHAR
STARTCHAR 00E6
ENCODING 230
SWIDTH 480 0
DWIDTH 12 0
BBX 12 12 0 0
BITMAP
10C0
7DE0
4730
0610
0210
1FF0
7E00
4600
C600
C600
6710
7DF0
ENDCHAR
STARTCHAR 00E7
ENCODING 231
SWIDTH 480 0
DWIDTH 12 0
BBX 10 17 1 -5
BITMAP
0600
1FC0
30C0
6000
6000
C000
C000
C000
6000
6000
39C0
1F80
0200
0300
0180
0980
0F00
ENDCHAR
STARTCHAR 00E8
ENCODING 232
SWIDTH 480 0
DWIDTH 12 0
BBX 10 17 1 0
BITMAP
1800
1800
0C00
0400
0000
0E00
3F80
6180
60C0
C0C0
FFC0
FFC0
C000
C000
6000
31C0
1F80
ENDCHAR
STARTCHAR 00E9
ENCODING 233
SWIDTH 480 0
DWIDTH 12 0
BBX 10 17 1 0
BITMAP
0200
0200
0600
0C00
0000
0E00
3F80
6180
60C0
C0C0
FFC0
FFC0
C000
C000
6000
31C0
1F80
ENDCHAR
STARTCHAR 00EA
ENCODING 234
SWIDTH 480 0
DWIDTH 12 0
BBX 10 17 1 0
BITMAP
0400
0A00
1100
2080
0000
0E00
3F80
6180
60C0
C0C0
FFC0
FFC0
C000
C000
6000
31C0
1F80
ENDCHAR
STARTCHAR 00EB
ENCODING 235
SWIDTH 480 0
DWIDTH 12 0
BBX 10 17 1 0
BITMAP
1100
3980
3180
0000
0000
0E00
3F80
6180
60C0
C0C0
FFC0
FFC0
C000
C000
6000
31C0
1F80
ENDCHAR
STARTCHAR 00EC
ENCODING 236
SWIDTH 480 0
DWIDTH 12 0
BBX 7 17 3 0
BITMAP
C0
60
30
30
00
00
F0
30
30
30
30
30
30
30
30
30
FE
ENDCHAR
STARTCHAR 00ED
ENCODING 237
SWIDTH 480 0
DWIDTH 12 0
BBX 7 17 3 0
BITMAP
0C
18
10
20
00
00
F0
30
30
30
30
30
30
30
30
30
FE
ENDCHAR
STARTCHAR 00EE
ENCODING 238
SWIDTH 480 0
DWIDTH 12 0
BBX 7 17 3 0
BITMAP
30
78
C8
84
00
00
F0
30
30
30
30
30
30
30
30
30
FE
ENDCHAR
STARTCHAR 00EF
ENCODING 239
SWIDTH 480 0
DWIDTH 12 0
BBX 7 17 3 0
BITMAP
04
CE
CC
00
00
00
F0
30
30
30
30
30
30
30
30
30
FE
ENDCHAR
STARTCHAR 00F0
ENCODING 240
SWIDTH 480 0
DWIDTH 12 0
BBX 10 17 1 0
BITMAP
1800
0CC0
0F80
1B00
0180
0C80
3FC0
61C0
60C0
C0C0
C040
C040
C040
C0C0
60C0
7180
1F00
ENDCHAR
STARTCHAR 00F1
ENCODING 241
SWIDTH 480 0
DWIDTH 12 0
BBX 9 17 2 0
BITMAP
3800
6F00
0200
0000
0000
0C00
FF00
E300
C180
C180
C180
C180
C180
C180
C180
C180
C180
ENDCHAR
STARTCHAR 00F2
ENCODING 242
SWIDTH 480 0
DWIDTH 12 0
BBX 11 17 1 0
BITMAP
1000
1800
0800
0C00
0000
0C00
3F80
6180
60C0
C0C0
C040
C060
C0C0
C0C0
60C0
7380
1F00
ENDCHAR
STARTCHAR 00F3
ENCODING 243
SWIDTH 480 0
DWIDTH 12 0
BBX 11 17 1 0
BITMAP
0200
0600
0400
0C00
0000
0C00
3F80
6180
60C0
C0C0
C040
C060
C0C0
C0C0
60C0
7380
1F00
ENDCHAR
STARTCHAR 00F4
ENCODING 244
SWIDTH 480 0
DWIDTH 12 0
BBX 11 17 1 0
BITMAP
0C00
1E00
3300
2180
0000
0C00
3F80
6180
60C0
C0C0
C040
C060
C0C0
C0C0
60C0
7380
1F00
ENDCHAR
STARTCHAR 00F5
ENCODING 245
SWIDTH 480 0
DWIDTH 12 0
BBX 11 17 1 0
BITMAP
3880
6780
0300
0000
0000
0C00
3F80
6180
60C0
C0C0
C040
C060
C0C0
C0C0
60C0
7380
1F00
ENDCHAR
STARTCHAR 00F6
ENCODING 246
SWIDTH 480 0
DWIDTH 12 0
BBX 11 17 1 0
BITMAP
0100
3380
3100
0000
0000
0C00
3F80
6180
60C0
C0C0
C040
C060
C0C0
C0C0
60C0
7380
1F00
ENDCHAR
STARTCHAR 00F7
ENCODING 247
SWIDTH 480 0
DWIDTH 12 0
BBX 9 10 2 3
BITMAP
0800
1800
0000
0000
FF80
FF80
0000
0000
1800
1800
ENDCHAR
STARTCHAR 00F8
ENCODING 248
SWIDTH 480 0
DWIDTH 12 0
BBX 11 14 1 -2
BITMAP
0080
0C80
3F80
7380
63C0
C6C0
C640
CC60
C840
D8C0
70C0
7380
3F00
6000
ENDCHAR
STARTCHAR 00F9
ENCODING 249
SWIDTH 480 0
DWIDTH 12 0
BBX 9 17 2 0
BITMAP
2000
3000
1000
1800
0000
0000
8180
8180
8180
8180
8180
8180
8180
8180
C380
E780
7D80
ENDCHAR
STARTCHAR 00FA
ENCODING 250
SWIDTH 480 0
DWIDTH 12 0
BBX 9 17 2 0
BITMAP
0400
0C00
0800
1800
0000
0000
8180
8180
8180
8180
8180
8180
8180
8180
C380
E780
7D80
ENDCHAR
STARTCHAR 00FB
ENCODING 251
SWIDTH 480 0
DWIDTH 12 0
BBX 9 17 2 0
BITMAP
1800
3C00
6600
4300
0000
0000
8180
8180
8180
8180
8180
8180
8180
8180
C380
E780
7D80
ENDCHAR
STARTCHAR 00FC
ENCODING 252
SWIDTH 480 0
DWIDTH 12 0
BBX 9 17 2 0
BITMAP
0200
6700
6200
0000
0000
0000
8180
8180
8180
8180
8180
8180
8180
8180
C380
E780
7D80
ENDCHAR
STARTCHAR 00FD
ENCODING 253
SWIDTH 480 0
DWIDTH 12 0
BBX 10 21 1 -4
BITMAP
0200
0600
0600
0C00
0000
0000
40C0
60C0
6080
3180
3180
1100
1B00
1B00
0A00
0E00
0600
0400
0C00
9800
F800
ENDCHAR
STARTCHAR 00FE
ENCODING 254
SWIDTH 480 0
DWIDTH 12 0
BBX 10 21 2 -4
BITMAP
8000
8000
8000
8000
8000
8C00
BF00
E380
C180
C180
80C0
80C0
8080
C180
C180
E300
BE00
8000
8000
8000
8000
ENDCHAR
STARTCHAR 00FF
ENCODING 255
SWIDTH 480 0
DWIDTH 12 0
BBX 10 21 1 -4
BITMAP
0100
3380
3100
0000
0000
0000
40C0
60C0
6080
3180
3180
1100
1B00
1B00
0A00
0E00
0600
0400
0C00
9800
F800
ENDCHAR
STARTCHAR 0100
ENCODING 256
SWIDTH 480 0
DWIDTH 12 0
BBX 11 20 1 0
BITMAP
1F80
1F80
0000
0000
0000
0400
0C00
0E00
0E00
1A00
1300
3300
3100
2180
7F80
6080
40C0
C0C0
C060
8060
ENDCHAR
STARTCHAR 0101
ENCODING 257
SWIDTH 480 0
DWIDTH 12 0
BBX 10 16 1 0
BITMAP
3F00
3F00
0000
0000
0C00
7F80
6180
00C0
00C0
0FC0
3FC0
60C0
C0C0
C0C0
63C0
7EC0
ENDCHAR
STARTCHAR 0102
ENCODING 258
SWIDTH 480 0
DWIDTH 12 0
BBX 11 20 1 0
BITMAP
0100
3100
1E00
0000
0000
0400
0C00
0E00
0E00
1A00
1300
3300
3100
2180
7F80
6080
40C0
C0C0
C060
8060
ENDCHAR
STARTCHAR 0103
ENCODING 259
SWIDTH 480 0
DWIDTH 12 0
BBX 10 16 1 0
BITMAP
2180
1F00
0400
0000
0C00
7F80
6180
00C0
00C0
0FC0
3FC0
60C0
C0C0
C0C0
63C0
7EC0
ENDCHAR
STARTCHAR 0104
ENCODING 260
SWIDTH 480 0
DWIDTH 12 0
BBX 11 21 1 -5
BITMAP
0400
0C00
0E00
0E00
1A00
1300
3300
3100
2180
7F80
6080
40C0
C0C0
C060
8060
0040
0080
0180
0180
01C0
0040
ENDCHAR
STARTCHAR 0105
ENCODING 261
SWIDTH 480 0
DWIDTH 12 0
BBX 10 16 1 -4
BITMAP
0C00
7F80
6180
00C0
00C0
0FC0
3FC0
60C0
C0C0
C0C0
63C0
7EC0
0180
0300
0200
03C0
ENDCHAR
STARTCHAR 0106
ENCODING 262
SWIDTH 480 0
DWIDTH 12 0
BBX 10 19 1 1
BITMAP
0700
1E00
0000
0600
1F80
30C0
6040
4000
C000
C000
C000
C000
C000
C000
C000
6000
6040
39C0
1F80
ENDCHAR
STARTCHAR 0107
ENCODING 263
SWIDTH 480 0
DWIDTH 12 0
BBX 10 17 1 0
BITMAP
0100
0300
0200
0600
0000
0600
1FC0
30C0
6000
6000
C000
C000
C000
6000
6000
39C0
1F80
ENDCHAR
STARTCHAR 0108
ENCODING 264
SWIDTH 480 0
DWIDTH 12 0
BBX 10 20 1 0
BITMAP
0400
1F00
3980
0000
0600
1F80
30C0
6040
4000
C000
C000
C000
C000
C000
C000
C000
6000
6040
39C0
1F80
ENDCHAR
STARTCHAR 0109
ENCODING 265
SWIDTH 480 0
DWIDTH 12 0
BBX 10 17 1 0
BITMAP
0600
0F00
1980
10C0
0000
0600
1FC0
30C0
6000
6000
C000
C000
C000
6000
6000
39C0
1F80
ENDCHAR
STARTCHAR 010A
ENCODING 266
SWIDTH 480 0
DWIDTH 12 0
BBX 10 20 1 0
BITMAP
0400
0E00
0400
0000
0600
1F80
30C0
6040
4000
C000
C000
C000
C000
C000
C000
C000
6000
6040
39C0
1F80
ENDCHAR
STARTCHAR 010B
ENCODING 267
SWIDTH 480 0
DWIDTH 12 0
BBX 10 16 1 0
BITMAP
0600
0600
0000
0000
0600
1FC0
30C0
6000
6000
C000
C000
C000
6000
6000
39C0
1F80
ENDCHAR
STARTCHAR 010C
ENCODING 268
SWIDTH 480 0
DWIDTH 12 0
BBX 10 20 1 0
BITMAP
1080
1980
0E00
0400
0600
1F80
30C0
6040
4000
C000
C000
C000
C000
C000
C000
C000
6000
6040
39C0
1F80
ENDCHAR
STARTCHAR 010D
ENCODING 269
SWIDTH 480 0
DWIDTH 12 0
BBX 10 17 1 0
BITMAP
10C0
1980
0F00
0600
0000
0600
1FC0
30C0
6000
6000
C000
C000
C000
6000
6000
39C0
1F80
ENDCHAR
STARTCHAR 010E
ENCODING 270
SWIDTH 480 0
DWIDTH 12 0
BBX 10 19 1 1
BITMAP
7600
1C00
0800
F800
FF00
C380
C0C0
C0C0
C0C0
C040
C040
C040
C040
C040
C0C0
C0C0
C180
CF00
FE00
ENDCHAR
STARTCHAR 010F
ENCODING 271
SWIDTH 480 0
DWIDTH 12 0
BBX 11 17 1 0
BITMAP
0300
0360
0360
0340
0340
1B00
7F00
C700
C300
8300
8300
8300
8300
C300
C700
6F00
7B00
ENDCHAR
STARTCHAR 0110
ENCODING 272
SWIDTH 480 0
DWIDTH 12 0
BBX 11 16 1 0
BITMAP
7800
7F00
6180
60C0
60C0
6040
6060
F860
6060
6060
6040
60C0
60C0
6180
6F00
7E00
ENDCHAR
STARTCHAR 0111
ENCODING 273
SWIDTH 480 0
DWIDTH 12 0
BBX 12 17 1 0
BITMAP
00C0
00C0
00C0
07F0
00C0
0CC0
3FC0
61C0
40C0
C0C0
C0C0
C0C0
C0C0
C0C0
61C0
73C0
3EC0
ENDCHAR
STARTCHAR 0112
ENCODING 274
SWIDTH 480 0
DWIDTH 12 0
BBX 10 20 1 0
BITMAP
1F80
1F80
0000
0000
FFC0
FFC0
C000
C000
C000
C000
C000
FF80
FF80
C000
C000
C000
C000
C000
FFC0
FFC0
ENDCHAR
STARTCHAR 0113
ENCODING 275
SWIDTH 480 0
DWIDTH 12 0
BBX 10 16 1 0
BITMAP
3F80
3F80
0000
0000
0E00
3F80
6180
60C0
C0C0
FFC0
FFC0
C000
C000
6000
31C0
1F80
ENDCHAR
STARTCHAR 0114
ENCODING 276
SWIDTH 480 0
DWIDTH 12 0
BBX 10 20 1 0
BITMAP
1000
1180
0F00
0000
FFC0
FFC0
C000
C000
C000
C000
C000
FF80
FF80
C000
C000
C000
C000
C000
FFC0
FFC0
ENDCHAR
STARTCHAR 0115
ENCODING 277
SWIDTH 480 0
DWIDTH 12 0
BBX 10 16 1 0
BITMAP
3180
1F00
0400
0000
0E00
3F80
6180
60C0
C0C0
FFC0
FFC0
C000
C000
6000
31C0
1F80
ENDCHAR
STARTCHAR 0116
ENCODING 278
SWIDTH 480 0
DWIDTH 12 0
BBX 10 20 1 0
BITMAP
0400
0E00
0400
0000
FFC0
FFC0
C000
C000
C000
C000
C000
FF80
FF80
C000
C000
C000
C000
C000
FFC0
FFC0
ENDCHAR
STARTCHAR 0117
ENCODING 279
SWIDTH 480 0
DWIDTH 12 0
BBX 10 16 1 0
BITMAP
0E00
0E00
0000
0000
0E00
3F80
6180
60C0
C0C0
FFC0
FFC0
C000
C000
6000
31C0
1F80
ENDCHAR
STARTCHAR 0118
ENCODING 280
SWIDTH 480 0
DWIDTH 12 0
BBX 10 20 1 -4
BITMAP
FFC0
FFC0
C000
C000
C000
C000
C000
FF80
FF80
C000
C000
C000
C000
C000
FFC0
FFC0
0180
0300
0200
03C0
ENDCHAR
STARTCHAR 0119
ENCODING 281
SWIDTH 480 0
DWIDTH 12 0
BBX 10 16 1 -4
BITMAP
0E00
3F80
6180
60C0
C0C0
FFC0
FFC0
C000
C000
6000
31C0
1F80
0180
0300
0200
03C0
ENDCHAR
STARTCHAR 011A
ENCODING 282
SWIDTH 480 0
DWIDTH 12 0
BBX 10 20 1 0
BITMAP
1080
1980
0E00
0400
FFC0
FFC0
C000
C000
C000
C000
C000
FF80
FF80
C000
C000
C000
C000
C000
FFC0
FFC0
ENDCHAR
STARTCHAR 011B
ENCODING 283
SWIDTH 480 0
DWIDTH 12 0
BBX 10 17 1 0
BITMAP
2080
1100
0A00
0400
0000
0E00
3F80
6180
60C0
C0C0
FFC0
FFC0
C000
C000
6000
31C0
1F80
ENDCHAR
STARTCHAR 011C
ENCODING 284
SWIDTH 480 0
DWIDTH 12 0
BBX 11 20 1 0
BITMAP
0400
0F00
39C0
0000
0E00
3F80
70C0
6040
C000
C000
C000
C000
C000
C3E0
C060
C060
4060
6060
39E0
1F80
ENDCHAR
STARTCHAR 011D
ENCODING 285
SWIDTH 480 0
DWIDTH 12 0
BBX 11 21 1 -4
BITMAP
0C00
1E00
3300
6100
0000
1C60
3FE0
6100
4180
4180
6100
7700
3E00
4000
6000
7F80
47C0
C0C0
C0C0
E1C0
7F80
ENDCHAR
STARTCHAR 011E
ENCODING 286
SWIDTH 480 0
DWIDTH 12 0
BBX 11 20 1 0
BITMAP
1000
1180
0F00
0000
0E00
3F80
70C0
6040
C000
C000
C000
C000
C000
C3E0
C060
C060
4060
6060
39E0
1F80
ENDCHAR
STARTCHAR 011F
ENCODING 287
SWIDTH 480 0
DWIDTH 12 0
BBX 11 20 1 -4
BITMAP
2080
3B80
0E00
0000
1C60
3FE0
6100
4180
4180
6100
7700
3E00
4000
6000
7F80
47C0
C0C0
C0C0
E1C0
7F80
ENDCHAR
STARTCHAR 0120
ENCODING 288
SWIDTH 480 0
DWIDTH 12 0
BBX 11 20 1 0
BITMAP
0600
0600
0600
0000
0E00
3F80
70C0
6040
C000
C000
C000
C000
C000
C3E0
C060
C060
4060
6060
39E0
1F80
ENDCHAR
STARTCHAR 0121
ENCODING 289
SWIDTH 480 0
DWIDTH 12 0
BBX 11 20 1 -4
BITMAP
1C00
0C00
0000
0000
1C60
3FE0
6100
4180
4180
6100
7700
3E00
4000
6000
7F80
47C0
C0C0
C0C0
E1C0
7F80
ENDCHAR
STARTCHAR 0122
ENCODING 290
SWIDTH 480 0
DWIDTH 12 0
BBX 11 23 1 -7
BITMAP
0E00
3F80
70C0
6040
C000
C000
C000
C000
C000
C3E0
C060
C060
4060
6060
39E0
1F80
0000
0600
0600
0600
0600
0400
0800
ENDCHAR
STARTCHAR 0123
ENCODING 291
SWIDTH 480 0
DWIDTH 12 0
BBX 11 24 1 -3
BITMAP
0C00
0800
1800
1800
1C00
1C00
0000
0000
1C60
3FE0
6100
4180
4180
6100
7700
3E00
4000
6000
7F80
47C0
C0C0
C0C0
E1C0
7F80
ENDCHAR
STARTCHAR 0124
ENCODING 292
SWIDTH 480 0
DWIDTH 12 0
BBX 10 20 1 0
BITMAP
0C00
1E00
3380
0080
C0C0
C0C0
C0C0
C0C0
C0C0
C0C0
C0C0
FFC0
FFC0
C0C0
C0C0
C0C0
C0C0
C0C0
C0C0
C0C0
ENDCHAR
STARTCHAR 0125
ENCODING 293
SWIDTH 480 0
DWIDTH 12 0
BBX 12 21 -1 0
BITMAP
1000
7C00
E600
0000
1800
1800
1800
1800
1800
1980
1FE0
1C60
1830
1830
1830
1830
1830
1830
1830
1830
1830
ENDCHAR
STARTCHAR 0126
ENCODING 294
SWIDTH 480 0
DWIDTH 12 0
BBX 10 16 1 0
BITMAP
C0C0
C0C0
C0C0
C0C0
C0C0
C0C0
C0C0
FFC0
FFC0
C0C0
C0C0
C0C0
C0C0
C0C0
C0C0
C0C0
ENDCHAR
STARTCHAR 0127
ENCODING 295
SWIDTH 480 0
DWIDTH 12 0
BBX 11 17 0 0
BITMAP
3000
3000
3000
FE00
3000
3300
3FC0
38C0
3060
3060
3060
3060
3060
3060
3060
3060
3060
ENDCHAR
STARTCHAR 0128
ENCODING 296
SWIDTH 480 0
DWIDTH 12 0
BBX 8 21 2 0
BITMAP
F3
9E
00
00
00
FF
FF
18
18
18
18
18
18
18
18
18
18
18
18
18
FF
ENDCHAR
STARTCHAR 0129
ENCODING 297
SWIDTH 480 0
DWIDTH 12 0
BBX 7 17 3 0
BITMAP
60
F6
9C
00
00
00
F0
30
30
30
30
30
30
30
30
30
FE
ENDCHAR
STARTCHAR 012A
ENCODING 298
SWIDTH 480 0
DWIDTH 12 0
BBX 8 20 2 0
BITMAP
7E
7E
00
00
FF
FF
18
18
18
18
18
18
18
18
18
18
18
18
18
FF
ENDCHAR
STARTCHAR 012B
ENCODING 299
SWIDTH 480 0
DWIDTH 12 0
BBX 7 16 3 0
BITMAP
FC
FC
00
00
00
F0
30
30
30
30
30
30
30
30
30
FE
ENDCHAR
STARTCHAR 012C
ENCODING 300
SWIDTH 480 0
DWIDTH 12 0
BBX 8 20 2 0
BITMAP
42
66
3C
00
FF
FF
18
18
18
18
18
18
18
18
18
18
18
18
18
FF
ENDCHAR
STARTCHAR 012D
ENCODING 301
SWIDTH 480 0
DWIDTH 12 0
BBX 7 16 3 0
BITMAP
86
7C
10
00
00
F0
30
30
30
30
30
30
30
30
30
FE
ENDCHAR
STARTCHAR 012E
ENCODING 302
SWIDTH 480 0
DWIDTH 12 0
BBX 8 22 2 -6
BITMAP
FF
FF
18
18
18
18
18
18
18
18
18
18
18
18
18
FF
03
06
04
0C
07
02
ENDCHAR
STARTCHAR 012F
ENCODING 303
SWIDTH 480 0
DWIDTH 12 0
BBX 7 22 3 -6
BITMAP
30
30
00
00
00
F0
30
30
30
30
30
30
30
30
30
FE
04
08
18
18
0C
04
ENDCHAR
STARTCHAR 0130
ENCODING 304
SWIDTH 480 0
DWIDTH 12 0
BBX 8 20 2 0
BITMAP
18
18
18
00
FF
FF
18
18
18
18
18
18
18
18
18
18
18
18
18
FF
ENDCHAR
STARTCHAR 0131
ENCODING 305
SWIDTH 480 0
DWIDTH 12 0
BBX 7 11 3 0
BITMAP
F0
30
30
30
30
30
30
30
30
30
FE
ENDCHAR
STARTCHAR 0134
ENCODING 308
SWIDTH 480 0
DWIDTH 12 0
BBX 11 20 1 0
BITMAP
0300
0780
0CE0
0020
1FC0
1FC0
0300
0300
0300
0300
0300
0300
0300
0300
0300
0300
0300
0300
E600
7C00
ENDCHAR
STARTCHAR 0135
ENCODING 309
SWIDTH 480 0
DWIDTH 12 0
BBX 11 21 1 -4
BITMAP
0300
0780
0CC0
0860
0000
0000
3F00
0300
0300
0300
0300
0300
0300
0300
0300
0300
0300
0300
0300
E700
7E00
ENDCHAR
STARTCHAR 0136
ENCODING 310
SWIDTH 480 0
DWIDTH 12 0
BBX 10 23 1 -7
BITMAP
C0C0
C180
C380
C300
C600
CC00
D800
F800
F800
CC00
C600
C700
C300
C180
C1C0
C0C0
0000
0C00
0E00
0400
0400
0800
0800
ENDCHAR
STARTCHAR 0137
ENCODING 311
SWIDTH 480 0
DWIDTH 12 0
BBX 10 24 2 -7
BITMAP
C000
8000
8000
8000
8000
8000
8380
8600
8C00
9800
B800
F800
CC00
8600
8300
8380
81C0
0000
1C00
1C00
0C00
0800
1800
1000
ENDCHAR
STARTCHAR 0138
ENCODING 312
SWIDTH 480 0
DWIDTH 12 0
BBX 10 12 2 0
BITMAP
0100
8380
8600
8C00
9800
B800
F800
CC00
8600
8300
8380
81C0
ENDCHAR
STARTCHAR 0139
ENCODING 313
SWIDTH 480 0
DWIDTH 12 0
BBX 9 20 2 0
BITMAP
0800
3800
7000
0000
C000
8000
8000
8000
8000
8000
8000
8000
8000
8000
8000
8000
8000
8000
FF80
FF80
ENDCHAR
STARTCHAR 013A
ENCODING 314
SWIDTH 480 0
DWIDTH 12 0
BBX 9 21 2 0
BITMAP
0400
1C00
3800
0000
F800
F800
1800
1800
1800
1800
1800
1800
1800
1800
1800
1800
1800
1800
1800
1800
FF80
ENDCHAR
STARTCHAR 013B
ENCODING 315
SWIDTH 480 0
DWIDTH 12 0
BBX 9 23 2 -7
BITMAP
C000
8000
8000
8000
8000
8000
8000
8000
8000
8000
8000
8000
8000
8000
FF80
FF80
0000
1C00
1C00
0C00
0800
1800
1000
ENDCHAR
STARTCHAR 013C
ENCODING 316
SWIDTH 480 0
DWIDTH 12 0
BBX 9 24 2 -7
BITMAP
F800
F800
1800
1800
1800
1800
1800
1800
1800
1800
1800
1800
1800
1800
1800
1800
FF80
0000
1C00
1C00
0C00
0800
1800
1000
ENDCHAR
STARTCHAR 013D
ENCODING 317
SWIDTH 480 0
DWIDTH 12 0
BBX 9 16 2 0
BITMAP
C100
8380
8180
8100
8300
8200
8000
8000
8000
8000
8000
8000
8000
8000
FF80
FF80
ENDCHAR
STARTCHAR 013E
ENCODING 318
SWIDTH 480 0
DWIDTH 12 0
BBX 9 17 2 0
BITMAP
F980
F980
1880
1880
1900
1800
1800
1800
1800
1800
1800
1800
1800
1800
1800
1800
FF80
ENDCHAR
STARTCHAR 013F
ENCODING 319
SWIDTH 480 0
DWIDTH 12 0
BBX 9 16 2 0
BITMAP
C000
8000
8000
8000
8000
8000
8400
8E00
8E00
8000
8000
8000
8000
8000
FF80
FF80
ENDCHAR
STARTCHAR 0140
ENCODING 320
SWIDTH 480 0
DWIDTH 12 0
BBX 9 17 2 0
BITMAP
F000
F000
1000
1000
1000
1000
1000
1100
1380
1380
1000
1000
1000
1000
1000
1000
FF00
ENDCHAR
STARTCHAR 0141
ENCODING 321
SWIDTH 480 0
DWIDTH 12 0
BBX 10 16 1 0
BITMAP
6000
6000
6000
6000
6000
6000
6000
6E00
F800
E000
6000
6000
6000
6000
7FC0
7FC0
ENDCHAR
STARTCHAR 0142
ENCODING 322
SWIDTH 480 0
DWIDTH 12 0
BBX 9 17 2 0
BITMAP
F800
F800
1800
1800
1800
1800
1800
1A00
1E00
7800
5800
1800
1800
1800
1800
1800
FF80
ENDCHAR
STARTCHAR 0143
ENCODING 323
SWIDTH 480 0
DWIDTH 12 0
BBX 10 20 1 0
BITMAP
0200
0E00
1C00
0000
C0C0
E0C0
E0C0
F0C0
F0C0
D8C0
D8C0
CCC0
C6C0
C6C0
C3C0
C3C0
C1C0
C1C0
C0C0
C040
ENDCHAR
STARTCHAR 0144
ENCODING 324
SWIDTH 480 0
DWIDTH 12 0
BBX 9 17 2 0
BITMAP
0400
0600
0C00
0800
0000
0C00
FF00
E300
C180
C180
C180
C180
C180
C180
C180
C180
C180
ENDCHAR
STARTCHAR 0145
ENCODING 325
SWIDTH 480 0
DWIDTH 12 0
BBX 10 23 1 -7
BITMAP
C0C0
E0C0
E0C0
F0C0
F0C0
D8C0
D8C0
CCC0
C6C0
C6C0
C3C0
C3C0
C1C0
C1C0
C0C0
C040
0000
0E00
0E00
0600
0400
0C00
0800
ENDCHAR
STARTCHAR 0146
ENCODING 326
SWIDTH 480 0
DWIDTH 12 0
BBX 9 19 2 -7
BITMAP
0C00
FF00
E300
C180
C180
C180
C180
C180
C180
C180
C180
C180
0000
1C00
1C00
0C00
0C00
0800
1000
ENDCHAR
STARTCHAR 0147
ENCODING 327
SWIDTH 480 0
DWIDTH 12 0
BBX 10 20 1 0
BITMAP
2000
3300
1E00
0400
C0C0
E0C0
E0C0
F0C0
F0C0
D8C0
D8C0
CCC0
C6C0
C6C0
C3C0
C3C0
C1C0
C1C0
C0C0
C040
ENDCHAR
STARTCHAR 0148
ENCODING 328
SWIDTH 480 0
DWIDTH 12 0
BBX 9 17 2 0
BITMAP
6100
3300
1E00
0C00
0000
0C00
FF00
E300
C180
C180
C180
C180
C180
C180
C180
C180
C180
ENDCHAR
STARTCHAR 014A
ENCODING 330
SWIDTH 480 0
DWIDTH 12 0
BBX 10 21 1 -5
BITMAP
C0C0
E0C0
E0C0
F0C0
F0C0
D8C0
D8C0
CCC0
C6C0
C6C0
C3C0
C3C0
C1C0
C1C0
C0C0
C0C0
00C0
00C0
00C0
0F80
0600
ENDCHAR
STARTCHAR 014B
ENCODING 331
SWIDTH 480 0
DWIDTH 12 0
BBX 9 16 2 -4
BITMAP
0C00
FF00
E300
C180
C180
C180
C180
C180
C180
C180
C180
C180
0180
0100
1300
3E00
ENDCHAR
STARTCHAR 014C
ENCODING 332
SWIDTH 480 0
DWIDTH 12 0
BBX 11 20 1 0
BITMAP
1F80
1F80
0000
0000
0E00
3F80
6180
60C0
C0C0
C060
C060
C060
8060
8060
C060
C060
C0C0
60C0
7380
3F00
ENDCHAR
STARTCHAR 014D
ENCODING 333
SWIDTH 480 0
DWIDTH 12 0
BBX 11 16 1 0
BITMAP
3F00
3F00
0000
0000
0C00
3F80
6180
60C0
C0C0
C040
C060
C0C0
C0C0
60C0
7380
1F00
ENDCHAR
STARTCHAR 014E
ENCODING 334
SWIDTH 480 0
DWIDTH 12 0
BBX 11 20 1 0
BITMAP
0100
3100
1E00
0000
0E00
3F80
6180
60C0
C0C0
C060
C060
C060
8060
8060
C060
C060
C0C0
60C0
7380
3F00
ENDCHAR
STARTCHAR 014F
ENCODING 335
SWIDTH 480 0
DWIDTH 12 0
BBX 11 16 1 0
BITMAP
2180
1F00
0400
0000
0C00
3F80
6180
60C0
C0C0
C040
C060
C0C0
C0C0
60C0
7380
1F00
ENDCHAR
STARTCHAR 0150
ENCODING 336
SWIDTH 480 0
DWIDTH 12 0
BBX 11 20 1 0
BITMAP
1880
3980
7300
4200
0E00
3F80
6180
60C0
C0C0
C060
C060
C060
8060
8060
C060
C060
C0C0
60C0
7380
3F00
ENDCHAR
STARTCHAR 0151
ENCODING 337
SWIDTH 480 0
DWIDTH 12 0
BBX 11 17 1 0
BITMAP
0CC0
1D80
1980
1100
0000
0C00
3F80
6180
60C0
C0C0
C040
C060
C0C0
C0C0
60C0
7380
1F00
ENDCHAR
STARTCHAR 0152
ENCODING 338
SWIDTH 480 0
DWIDTH 12 0
BBX 12 16 0 0
BITMAP
1FF0
3FF0
6300
4300
4300
C300
C300
C3E0
C3E0
C300
C300
C300
4300
6300
77F0
3FF0
ENDCHAR
STARTCHAR 0153
ENCODING 339
SWIDTH 480 0
DWIDTH 12 0
BBX 12 12 0 0
BITMAP
18C0
7FE0
6630
C610
C610
C7F0
C600
C600
C600
4600
6710
3DF0
ENDCHAR
STARTCHAR 0154
ENCODING 340
SWIDTH 480 0
DWIDTH 12 0
BBX 10 20 1 0
BITMAP
0200
0E00
1C00
0000
FC00
FF80
C1C0
C0C0
C0C0
C0C0
C0C0
C380
FF00
C600
C300
C300
C180
C180
C0C0
C0C0
ENDCHAR
STARTCHAR 0155
ENCODING 341
SWIDTH 480 0
DWIDTH 12 0
BBX 8 17 3 0
BITMAP
08
18
10
30
00
0C
DF
E1
C0
C0
C0
C0
C0
C0
C0
C0
C0
ENDCHAR
STARTCHAR 0156
ENCODING 342
SWIDTH 480 0
DWIDTH 12 0
BBX 10 23 1 -7
BITMAP
FC00
FF80
C1C0
C0C0
C0C0
C0C0
C0C0
C380
FF00
C600
C300
C300
C180
C180
C0C0
C0C0
0000
0E00
0E00
0600
0400
0C00
0800
ENDCHAR
STARTCHAR 0157
ENCODING 343
SWIDTH 480 0
DWIDTH 12 0
BBX 8 18 3 -7
BITMAP
0C
DF
E1
C0
C0
C0
C0
C0
C0
C0
C0
C0
00
18
18
08
08
10
ENDCHAR
STARTCHAR 0158
ENCODING 344
SWIDTH 480 0
DWIDTH 12 0
BBX 10 20 1 0
BITMAP
2000
3300
1E00
0400
FC00
FF80
C1C0
C0C0
C0C0
C0C0
C0C0
C380
FF00
C600
C300
C300
C180
C180
C0C0
C0C0
ENDCHAR
STARTCHAR 0159
ENCODING 345
SWIDTH 480 0
DWIDTH 12 0
BBX 8 17 3 0
BITMAP
86
CC
78
30
00
0C
DF
E1
C0
C0
C0
C0
C0
C0
C0
C0
C0
ENDCHAR
STARTCHAR 015A
ENCODING 346
SWIDTH 480 0
DWIDTH 12 0
BBX 9 20 2 0
BITMAP
0400
0E00
3800
0000
1C00
7F00
C180
C000
C000
C000
6000
3C00
0F00
0380
0180
0080
0080
8180
E300
7E00
ENDCHAR
STARTCHAR 015B
ENCODING 347
SWIDTH 480 0
DWIDTH 12 0
BBX 10 17 1 0
BITMAP
0200
0200
0600
0C00
0000
1C00
3F80
6080
6000
7000
3E00
0780
01C0
00C0
40C0
F380
3F00
ENDCHAR
STARTCHAR 015C
ENCODING 348
SWIDTH 480 0
DWIDTH 12 0
BBX 9 20 2 0
BITMAP
0800
3E00
6300
4000
1C00
7F00
C180
C000
C000
C000
6000
3C00
0F00
0380
0180
0080
0080
8180
E300
7E00
ENDCHAR
STARTCHAR 015D
ENCODING 349
SWIDTH 480 0
DWIDTH 12 0
BBX 10 17 1 0
BITMAP
0C00
1E00
3300
2180
0000
1C00
3F80
6080
6000
7000
3E00
0780
01C0
00C0
40C0
F380
3F00
ENDCHAR
STARTCHAR 015E
ENCODING 350
SWIDTH 480 0
DWIDTH 12 0
BBX 9 21 2 -5
BITMAP
1C00
7F00
C180
C000
C000
C000
6000
3C00
0F00
0380
0180
0080
0080
8180
E300
7E00
0800
0C00
0600
2600
3C00
ENDCHAR
STARTCHAR 015F
ENCODING 351
SWIDTH 480 0
DWIDTH 12 0
BBX 10 17 1 -5
BITMAP
1C00
3F80
6080
6000
7000
3E00
0780
01C0
00C0
40C0
F380
3F00
0600
0700
0180
0900
0E00
ENDCHAR
STARTCHAR 0160
ENCODING 352
SWIDTH 480 0
DWIDTH 12 0
BBX 9 19 2 1
BITMAP
7700
1C00
0800
1C00
7F00
C180
C000
C000
C000
6000
3C00
0F00
0380
0180
0080
0080
8180
E300
7E00
ENDCHAR
STARTCHAR 0161
ENCODING 353
SWIDTH 480 0
DWIDTH 12 0
BBX 10 17 1 0
BITMAP
2180
3300
1E00
0C00
0000
1C00
3F80
6080
6000
7000
3E00
0780
01C0
00C0
40C0
F380
3F00
ENDCHAR
STARTCHAR 0162
ENCODING 354
SWIDTH 480 0
DWIDTH 12 0
BBX 11 21 1 -5
BITMAP
FFE0
FFE0
0C00
0C00
0C00
0C00
0C00
0C00
0C00
0C00
0C00
0C00
0C00
0C00
0C00
0C00
0400
0600
0100
1100
1E00
ENDCHAR
STARTCHAR 0163
ENCODING 355
SWIDTH 480 0
DWIDTH 12 0
BBX 9 20 2 -5
BITMAP
1800
3000
3000
3000
FF00
3000
3000
3000
3000
3000
3000
3000
3000
1980
1F00
0800
0C00
0200
2200
3C00
ENDCHAR
STARTCHAR 0164
ENCODING 356
SWIDTH 480 0
DWIDTH 12 0
BBX 11 20 1 0
BITMAP
2000
3300
1E00
0400
FFE0
FFE0
0C00
0C00
0C00
0C00
0C00
0C00
0C00
0C00
0C00
0C00
0C00
0C00
0C00
0C00
ENDCHAR
STARTCHAR 0165
ENCODING 357
SWIDTH 480 0
DWIDTH 12 0
BBX 9 18 2 0
BITMAP
0180
0180
0080
1880
3100
3000
3000
FF00
3000
3000
3000
3000
3000
3000
3000
3000
3980
1F00
ENDCHAR
STARTCHAR 0166
ENCODING 358
SWIDTH 480 0
DWIDTH 12 0
BBX 11 16 1 0
BITMAP
FFE0
FFE0
0C00
0C00
0C00
0C00
0C00
0F80
7F80
0C00
0C00
0C00
0C00
0C00
0C00
0C00
ENDCHAR
STARTCHAR 0167
ENCODING 359
SWIDTH 480 0
DWIDTH 12 0
BBX 9 15 2 0
BITMAP
1800
3000
3000
3000
FF00
3000
3000
3000
FF00
F000
3000
3000
3000
3980
1F00
ENDCHAR
STARTCHAR 0168
ENCODING 360
SWIDTH 480 0
DWIDTH 12 0
BBX 10 20 1 0
BITMAP
1880
3F80
2300
0000
C040
C040
C040
C040
C040
C040
C040
C040
C040
C040
C040
C040
C0C0
60C0
7180
3F00
ENDCHAR
STARTCHAR 0169
ENCODING 361
SWIDTH 480 0
DWIDTH 12 0
BBX 9 17 2 0
BITMAP
7100
CF00
0600
0000
0000
0000
8180
8180
8180
8180
8180
8180
8180
8180
C380
E780
7D80
ENDCHAR
STARTCHAR 016A
ENCODING 362
SWIDTH 480 0
DWIDTH 12 0
BBX 10 20 1 0
BITMAP
1F80
1F80
0000
0000
C040
C040
C040
C040
C040
C040
C040
C040
C040
C040
C040
C040
C0C0
60C0
7180
3F00
ENDCHAR
STARTCHAR 016B
ENCODING 363
SWIDTH 480 0
DWIDTH 12 0
BBX 9 16 2 0
BITMAP
7E00
7E00
0000
0000
0000
8180
8180
8180
8180
8180
8180
8180
8180
C380
E780
7D80
ENDCHAR
STARTCHAR 016C
ENCODING 364
SWIDTH 480 0
DWIDTH 12 0
BBX 10 20 1 0
BITMAP
0100
3100
1E00
0000
C040
C040
C040
C040
C040
C040
C040
C040
C040
C040
C040
C040
C0C0
60C0
7180
3F00
ENDCHAR
STARTCHAR 016D
ENCODING 365
SWIDTH 480 0
DWIDTH 12 0
BBX 9 16 2 0
BITMAP
4300
3E00
0800
0000
0000
8180
8180
8180
8180
8180
8180
8180
8180
C380
E780
7D80
ENDCHAR
STARTCHAR 016E
ENCODING 366
SWIDTH 480 0
DWIDTH 12 0
BBX 10 20 1 0
BITMAP
0C00
1A00
1300
1E00
C040
C040
C040
C040
C040
C040
C040
C040
C040
C040
C040
C040
C0C0
60C0
7180
3F00
ENDCHAR
STARTCHAR 016F
ENCODING 367
SWIDTH 480 0
DWIDTH 12 0
BBX 9 17 2 0
BITMAP
3C00
2400
2400
1C00
0000
0000
8180
8180
8180
8180
8180
8180
8180
8180
C380
E780
7D80
ENDCHAR
STARTCHAR 0170
ENCODING 368
SWIDTH 480 0
DWIDTH 12 0
BBX 10 20 1 0
BITMAP
1880
3980
7300
4200
C040
C040
C040
C040
C040
C040
C040
C040
C040
C040
C040
C040
C0C0
60C0
7180
3F00
ENDCHAR
STARTCHAR 0171
ENCODING 369
SWIDTH 480 0
DWIDTH 12 0
BBX 9 17 2 0
BITMAP
1980
3B00
3300
2200
0000
0000
8180
8180
8180
8180
8180
8180
8180
8180
C380
E780
7D80
ENDCHAR
STARTCHAR 0172
ENCODING 370
SWIDTH 480 0
DWIDTH 12 0
BBX 10 21 1 -5
BITMAP
C040
C040
C040
C040
C040
C040
C040
C040
C040
C040
C040
C040
C0C0
60C0
7180
3F00
0200
0400
0C00
0C00
0600
ENDCHAR
STARTCHAR 0173
ENCODING 371
SWIDTH 480 0
DWIDTH 12 0
BBX 9 17 2 -6
BITMAP
8180
8180
8180
8180
8180
8180
8180
8180
C380
E780
7D80
0100
0300
0600
0600
0380
0100
ENDCHAR
STARTCHAR 0174
ENCODING 372
SWIDTH 480 0
DWIDTH 12 0
BBX 12 20 0 0
BITMAP
0200
0F80
18C0
1000
C010
4010
4230
6230
6730
6720
6520
2520
2DA0
29E0
38E0
38C0
38C0
10C0
1040
1040
ENDCHAR
STARTCHAR 0175
ENCODING 373
SWIDTH 480 0
DWIDTH 12 0
BBX 11 17 1 0
BITMAP
0C00
1E00
3300
2180
0000
0000
8060
8460
CC60
CE40
CA40
4A40
5B40
73C0
71C0
7180
2180
ENDCHAR
STARTCHAR 0176
ENCODING 374
SWIDTH 480 0
DWIDTH 12 0
BBX 11 20 1 0
BITMAP
0C00
1E00
3380
0080
C060
C0C0
60C0
6080
3180
3100
1B00
1B00
0E00
0E00
0C00
0C00
0C00
0C00
0C00
0C00
ENDCHAR
STARTCHAR 0177
ENCODING 375
SWIDTH 480 0
DWIDTH 12 0
BBX 10 21 1 -4
BITMAP
0C00
1E00
3300
2180
0000
0000
40C0
60C0
6080
3180
3180
1100
1B00
1B00
0A00
0E00
0600
0400
0C00
9800
F800
ENDCHAR
STARTCHAR 0178
ENCODING 376
SWIDTH 480 0
DWIDTH 12 0
BBX 11 20 1 0
BITMAP
2100
3380
3100
0000
C060
C0C0
60C0
6080
3180
3100
1B00
1B00
0E00
0E00
0C00
0C00
0C00
0C00
0C00
0C00
ENDCHAR
STARTCHAR 0179
ENCODING 377
SWIDTH 480 0
DWIDTH 12 0
BBX 11 20 1 0
BITMAP
0200
0700
1C00
0000
7FC0
7FC0
00C0
0180
0100
0300
0600
0600
0C00
1800
1800
3000
3000
6000
FFE0
FFE0
ENDCHAR
STARTCHAR 017A
ENCODING 378
SWIDTH 480 0
DWIDTH 12 0
BBX 10 17 1 0
BITMAP
0200
0600
0400
0C00
0000
0000
7FC0
0180
0300
0700
0600
0C00
1800
3000
6000
FFC0
FFC0
ENDCHAR
STARTCHAR 017B
ENCODING 379
SWIDTH 480 0
DWIDTH 12 0
BBX 11 20 1 0
BITMAP
0400
0E00
0400
0000
7FC0
7FC0
00C0
0180
0100
0300
0600
0600
0C00
1800
1800
3000
3000
6000
FFE0
FFE0
ENDCHAR
STARTCHAR 017C
ENCODING 380
SWIDTH 480 0
DWIDTH 12 0
BBX 10 16 1 0
BITMAP
0E00
0C00
0000
0000
0000
7FC0
0180
0300
0700
0600
0C00
1800
3000
6000
FFC0
FFC0
ENDCHAR
STARTCHAR 017D
ENCODING 381
SWIDTH 480 0
DWIDTH 12 0
BBX 11 19 1 1
BITMAP
3B00
0E00
0400
7FC0
7FC0
00C0
0180
0100
0300
0600
0600
0C00
1800
1800
3000
3000
6000
FFE0
FFE0
ENDCHAR
STARTCHAR 017E
ENCODING 382
SWIDTH 480 0
DWIDTH 12 0
BBX 10 17 1 0
BITMAP
2180
3300
1E00
0C00
0000
0000
7FC0
0180
0300
0700
0600
0C00
1800
3000
6000
FFC0
FFC0
ENDCHAR
STARTCHAR 018F
ENCODING 399
SWIDTH 480 0
DWIDTH 12 0
BBX 11 16 1 0
BITMAP
0E00
3F80
6180
60C0
C0C0
C060
C060
C060
8060
8060
C060
C060
C0C0
60C0
7380
3F00
ENDCHAR
STARTCHAR 0192
ENCODING 402
SWIDTH 480 0
DWIDTH 12 0
BBX 12 21 0 -4
BITMAP
00E0
03F0
0310
0200
0600
0600
0600
3FC0
3FC0
0600
0600
0600
0400
0400
0400
0400
0C00
0C00
0C00
5800
F800
ENDCHAR
STARTCHAR 0198
ENCODING 408
SWIDTH 480 0
DWIDTH 12 0
BBX 11 16 1 0
BITMAP
C060
C1E0
C300
C600
CC00
D800
D000
F800
F800
CC00
C600
C700
C300
C180
C1C0
C0C0
ENDCHAR
STARTCHAR 01A0
ENCODING 416
SWIDTH 480 0
DWIDTH 12 0
BBX 11 17 1 0
BITMAP
0060
0C60
3FC0
6180
60C0
C0C0
C060
C060
C060
8060
8060
C060
C060
C0C0
60C0
7380
3F00
ENDCHAR
STARTCHAR 01A1
ENCODING 417
SWIDTH 480 0
DWIDTH 12 0
BBX 11 13 1 0
BITMAP
0040
0C40
3FC0
6180
60C0
C0C0
C040
C060
C0C0
C0C0
60C0
7380
1F00
ENDCHAR
STARTCHAR 01AF
ENCODING 431
SWIDTH 480 0
DWIDTH 12 0
BBX 11 18 1 0
BITMAP
0020
0020
C0E0
C0C0
C080
C080
C080
C080
C080
C080
C080
C080
C080
C080
C180
4180
6300
3E00
ENDCHAR
STARTCHAR 01B0
ENCODING 432
SWIDTH 480 0
DWIDTH 12 0
BBX 11 14 1 0
BITMAP
0020
0020
0060
C1C0
C180
C180
C180
C180
C180
C180
C180
C380
6780
3D80
ENDCHAR
STARTCHAR 01B8
ENCODING 440
SWIDTH 480 0
DWIDTH 12 0
BBX 9 16 2 0
BITMAP
FF00
FF00
6000
3000
1000
1800
0C00
3C00
6000
C000
C000
C000
C000
C100
6380
3F00
ENDCHAR
STARTCHAR 01B9
ENCODING 441
SWIDTH 480 0
DWIDTH 12 0
BBX 9 16 3 -4
BITMAP
FF00
FF00
6000
3000
1000
1800
0C00
3C00
6000
C000
C000
C000
C000
C100
6380
3F00
ENDCHAR
STARTCHAR 01C7
ENCODING 455
SWIDTH 480 0
DWIDTH 12 0
BBX 9 20 2 -4
BITMAP
CF80
8F80
8080
8080
8080
8080
8080
8080
8080
8080
8080
8080
8080
8080
FC80
FD80
0180
2180
3F00
0E00
ENDCHAR
STARTCHAR 01C8
ENCODING 456
SWIDTH 480 0
DWIDTH 12 0
BBX 9 20 2 -4
BITMAP
C380
8380
8000
8000
8000
9F80
8180
8180
8180
8180
8180
8180
8180
8180
F980
F980
0180
0100
6300
7E00
ENDCHAR
STARTCHAR 01C9
ENCODING 457
SWIDTH 480 0
DWIDTH 12 0
BBX 11 21 0 -4
BITMAP
7000
70E0
30E0
3000
3000
3000
37E0
3060
3060
3060
3060
3060
3060
3060
3060
3060
FE60
0060
0040
18C0
1F80
ENDCHAR
STARTCHAR 01E6
ENCODING 486
SWIDTH 480 0
DWIDTH 12 0
BBX 11 20 1 0
BITMAP
1080
1980
0E00
0400
0E00
3F80
70C0
6040
C000
C000
C000
C000
C000
C3E0
C060
C060
4060
6060
39E0
1F80
ENDCHAR
STARTCHAR 01E7
ENCODING 487
SWIDTH 480 0
DWIDTH 12 0
BBX 11 21 1 -4
BITMAP
6100
3300
1E00
0C00
0000
1C60
3FE0
6100
4180
4180
6100
7700
3E00
4000
6000
7F80
47C0
C0C0
C0C0
E1C0
7F80
ENDCHAR
STARTCHAR 01EA
ENCODING 490
SWIDTH 480 0
DWIDTH 12 0
BBX 11 21 1 -5
BITMAP
0E00
3F80
6180
60C0
C0C0
C060
C060
C060
8060
8060
C060
C060
C0C0
60C0
7380
3F00
0600
0C00
0800
0C00
0E00
ENDCHAR
STARTCHAR 01EB
ENCODING 491
SWIDTH 480 0
DWIDTH 12 0
BBX 11 17 1 -5
BITMAP
0C00
3F80
6180
60C0
C0C0
C040
C060
C0C0
C0C0
60C0
7380
1F00
0600
0C00
0800
0C00
0E00
ENDCHAR
STARTCHAR 01FA
ENCODING 506
SWIDTH 480 0
DWIDTH 12 0
BBX 11 24 1 0
BITMAP
0200
0F00
1800
0000
0C00
1A00
1300
1E00
0400
0400
0C00
0E00
0E00
1A00
1300
3300
3100
2180
7F80
6080
40C0
C0C0
C060
8060
ENDCHAR
STARTCHAR 01FB
ENCODING 507
SWIDTH 480 0
DWIDTH 12 0
BBX 10 23 1 0
BITMAP
0200
0600
0400
0800
0000
0000
1E00
1200
1200
0E00
0000
0C00
7F80
6180
00C0
00C0
0FC0
3FC0
60C0
C0C0
C0C0
63C0
7EC0
ENDCHAR
STARTCHAR 01FC
ENCODING 508
SWIDTH 480 0
DWIDTH 12 0
BBX 11 19 1 1
BITMAP
0700
1E00
0000
0FE0
0FE0
0A00
1A00
1A00
1200
3200
33E0
23E0
6200
7E00
7E00
C200
C200
83E0
83E0
ENDCHAR
STARTCHAR 01FD
ENCODING 509
SWIDTH 480 0
DWIDTH 12 0
BBX 12 17 0 0
BITMAP
0100
0100
0300
0600
0000
10C0
7DE0
4730
0610
0210
1FF0
7E00
4600
C600
C600
6710
7DF0
ENDCHAR
STARTCHAR 01FE
ENCODING 510
SWIDTH 480 0
DWIDTH 12 0
BBX 11 21 1 -1
BITMAP
0200
0E00
1C00
0040
0C40
3F80
6180
61C0
C3C0
C260
C660
C460
8C60
8860
D860
D060
F0C0
60C0
7380
7F00
8000
ENDCHAR
STARTCHAR 01FF
ENCODING 511
SWIDTH 480 0
DWIDTH 12 0
BBX 11 18 1 -2
BITMAP
0200
0200
0600
0C00
0080
0C80
3F80
7380
63C0
C6C0
C640
CC60
C840
D8C0
70C0
7380
3F00
6000
ENDCHAR
STARTCHAR 0200
ENCODING 512
SWIDTH 480 0
DWIDTH 12 0
BBX 11 21 1 0
BITMAP
2200
3300
3300
1980
0000
0000
0400
0C00
0E00
0E00
1A00
1300
3300
3100
2180
7F80
6080
40C0
C0C0
C060
8060
ENDCHAR
STARTCHAR 0201
ENCODING 513
SWIDTH 480 0
DWIDTH 12 0
BBX 10 17 1 0
BITMAP
6600
6600
3300
1100
0000
0C00
7F80
6180
00C0
00C0
0FC0
3FC0
60C0
C0C0
C0C0
63C0
7EC0
ENDCHAR
STARTCHAR 0202
ENCODING 514
SWIDTH 480 0
DWIDTH 12 0
BBX 11 20 1 0
BITMAP
1E00
3300
2100
0000
0000
0400
0C00
0E00
0E00
1A00
1300
3300
3100
2180
7F80
6080
40C0
C0C0
C060
8060
ENDCHAR
STARTCHAR 0203
ENCODING 515
SWIDTH 480 0
DWIDTH 12 0
BBX 10 16 1 0
BITMAP
1E00
3300
2100
0000
0C00
7F80
6180
00C0
00C0
0FC0
3FC0
60C0
C0C0
C0C0
63C0
7EC0
ENDCHAR
STARTCHAR 0204
ENCODING 516
SWIDTH 480 0
DWIDTH 12 0
BBX 10 21 1 0
BITMAP
2200
3300
3300
1980
0000
FFC0
FFC0
C000
C000
C000
C000
C000
FF80
FF80
C000
C000
C000
C000
C000
FFC0
FFC0
ENDCHAR
STARTCHAR 0205
ENCODING 517
SWIDTH 480 0
DWIDTH 12 0
BBX 10 17 1 0
BITMAP
2200
6600
3300
1100
0000
0E00
3F80
6180
60C0
C0C0
FFC0
FFC0
C000
C000
6000
31C0
1F80
ENDCHAR
STARTCHAR 0206
ENCODING 518
SWIDTH 480 0
DWIDTH 12 0
BBX 10 20 1 0
BITMAP
0F00
1980
1080
0000
FFC0
FFC0
C000
C000
C000
C000
C000
FF80
FF80
C000
C000
C000
C000
C000
FFC0
FFC0
ENDCHAR
STARTCHAR 0207
ENCODING 519
SWIDTH 480 0
DWIDTH 12 0
BBX 10 16 1 0
BITMAP
1F00
3180
0000
0000
0E00
3F80
6180
60C0
C0C0
FFC0
FFC0
C000
C000
6000
31C0
1F80
ENDCHAR
STARTCHAR 0208
ENCODING 520
SWIDTH 480 0
DWIDTH 12 0
BBX 8 21 2 0
BITMAP
88
CC
CC
66
00
FF
FF
18
18
18
18
18
18
18
18
18
18
18
18
18
FF
ENDCHAR
STARTCHAR 0209
ENCODING 521
SWIDTH 480 0
DWIDTH 12 0
BBX 8 17 2 0
BITMAP
CC
CC
66
22
00
00
78
18
18
18
18
18
18
18
18
18
FF
ENDCHAR
STARTCHAR 020A
ENCODING 522
SWIDTH 480 0
DWIDTH 12 0
BBX 8 20 2 0
BITMAP
3C
66
42
00
FF
FF
18
18
18
18
18
18
18
18
18
18
18
18
18
FF
ENDCHAR
STARTCHAR 020B
ENCODING 523
SWIDTH 480 0
DWIDTH 12 0
BBX 7 16 3 0
BITMAP
78
CC
84
00
00
F0
30
30
30
30
30
30
30
30
30
FE
ENDCHAR
STARTCHAR 020C
ENCODING 524
SWIDTH 480 0
DWIDTH 12 0
BBX 11 21 1 0
BITMAP
2200
3300
3300
1980
0000
0E00
3F80
6180
60C0
C0C0
C060
C060
C060
8060
8060
C060
C060
C0C0
60C0
7380
3F00
ENDCHAR
STARTCHAR 020D
ENCODING 525
SWIDTH 480 0
DWIDTH 12 0
BBX 11 17 1 0
BITMAP
6600
6600
3300
1100
0000
0C00
3F80
6180
60C0
C0C0
C040
C060
C0C0
C0C0
60C0
7380
1F00
ENDCHAR
STARTCHAR 020E
ENCODING 526
SWIDTH 480 0
DWIDTH 12 0
BBX 11 20 1 0
BITMAP
1E00
3300
2100
0000
0E00
3F80
6180
60C0
C0C0
C060
C060
C060
8060
8060
C060
C060
C0C0
60C0
7380
3F00
ENDCHAR
STARTCHAR 020F
ENCODING 527
SWIDTH 480 0
DWIDTH 12 0
BBX 11 16 1 0
BITMAP
1E00
3300
2100
0000
0C00
3F80
6180
60C0
C0C0
C040
C060
C0C0
C0C0
60C0
7380
1F00
ENDCHAR
STARTCHAR 0210
ENCODING 528
SWIDTH 480 0
DWIDTH 12 0
BBX 10 21 1 0
BITMAP
2200
3300
3300
1980
0000
FC00
FF80
C1C0
C0C0
C0C0
C0C0
C0C0
C380
FF00
C600
C300
C300
C180
C180
C0C0
C0C0
ENDCHAR
STARTCHAR 0211
ENCODING 529
SWIDTH 480 0
DWIDTH 12 0
BBX 9 17 2 0
BITMAP
CC00
CC00
6600
2200
0000
0600
6F80
7080
6000
6000
6000
6000
6000
6000
6000
6000
6000
ENDCHAR
STARTCHAR 0212
ENCODING 530
SWIDTH 480 0
DWIDTH 12 0
BBX 10 20 1 0
BITMAP
1E00
3300
2100
0000
FC00
FF80
C1C0
C0C0
C0C0
C0C0
C0C0
C380
FF00
C600
C300
C300
C180
C180
C0C0
C0C0
ENDCHAR
STARTCHAR 0213
ENCODING 531
SWIDTH 480 0
DWIDTH 12 0
BBX 8 16 3 0
BITMAP
78
CC
84
00
0C
DF
E1
C0
C0
C0
C0
C0
C0
C0
C0
C0
ENDCHAR
STARTCHAR 0214
ENCODING 532
SWIDTH 480 0
DWIDTH 12 0
BBX 10 21 1 0
BITMAP
2200
3300
3300
1980
0000
C040
C040
C040
C040
C040
C040
C040
C040
C040
C040
C040
C040
C0C0
60C0
7180
3F00
ENDCHAR
STARTCHAR 0215
ENCODING 533
SWIDTH 480 0
DWIDTH 12 0
BBX 9 17 2 0
BITMAP
CC00
CC00
6600
2200
0000
0000
8180
8180
8180
8180
8180
8180
8180
8180
C380
E780
7D80
ENDCHAR
STARTCHAR 0216
ENCODING 534
SWIDTH 480 0
DWIDTH 12 0
BBX 10 20 1 0
BITMAP
1E00
3300
2100
0000
C040
C040
C040
C040
C040
C040
C040
C040
C040
C040
C040
C040
C0C0
60C0
7180
3F00
ENDCHAR
STARTCHAR 0217
ENCODING 535
SWIDTH 480 0
DWIDTH 12 0
BBX 9 16 2 0
BITMAP
3C00
6600
4200
0000
0000
8180
8180
8180
8180
8180
8180
8180
8180
C380
E780
7D80
ENDCHAR
STARTCHAR 0218
ENCODING 536
SWIDTH 480 0
DWIDTH 12 0
BBX 9 23 2 -7
BITMAP
1C00
7F00
C180
C000
C000
C000
6000
3C00
0F00
0380
0180
0080
0080
8180
E300
7E00
0000
1C00
1C00
0C00
0800
1800
1000
ENDCHAR
STARTCHAR 0219
ENCODING 537
SWIDTH 480 0
DWIDTH 12 0
BBX 10 19 1 -7
BITMAP
1C00
3F80
6080
6000
7000
3E00
0780
01C0
00C0
40C0
F380
3F00
0000
0C00
0E00
0400
0400
0800
0800
ENDCHAR
STARTCHAR 021A
ENCODING 538
SWIDTH 480 0
DWIDTH 12 0
BBX 11 23 1 -7
BITMAP
FFE0
FFE0
0C00
0C00
0C00
0C00
0C00
0C00
0C00
0C00
0C00
0C00
0C00
0C00
0C00
0C00
0000
0E00
0E00
0600
0400
0C00
0800
ENDCHAR
STARTCHAR 021B
ENCODING 539
SWIDTH 480 0
DWIDTH 12 0
BBX 9 22 2 -7
BITMAP
1800
3000
3000
3000
FF00
3000
3000
3000
3000
3000
3000
3000
3000
3980
1F00
0000
1C00
1C00
0C00
0800
1800
1000
ENDCHAR
STARTCHAR 022A
ENCODING 554
SWIDTH 480 0
DWIDTH 12 0
BBX 11 24 1 0
BITMAP
3F00
3F00
0000
0000
2100
3380
3100
0000
0E00
3F80
6180
60C0
C0C0
C060
C060
C060
8060
8060
C060
C060
C0C0
60C0
7380
3F00
ENDCHAR
STARTCHAR 022B
ENCODING 555
SWIDTH 480 0
DWIDTH 12 0
BBX 11 20 1 0
BITMAP
1F80
1F80
0000
0100
3380
3100
0000
0000
0C00
3F80
6180
60C0
C0C0
C040
C060
C0C0
C0C0
60C0
7380
1F00
ENDCHAR
STARTCHAR 022C
ENCODING 556
SWIDTH 480 0
DWIDTH 12 0
BBX 11 24 1 0
BITMAP
3F00
3F00
0000
1800
3D00
6700
0000
0000
0E00
3F80
6180
60C0
C0C0
C060
C060
C060
8060
8060
C060
C060
C0C0
60C0
7380
3F00
ENDCHAR
STARTCHAR 022D
ENCODING 557
SWIDTH 480 0
DWIDTH 12 0
BBX 11 20 1 0
BITMAP
1F80
1F80
0000
3880
6780
0300
0000
0000
0C00
3F80
6180
60C0
C0C0
C040
C060
C0C0
C0C0
60C0
7380
1F00
ENDCHAR
STARTCHAR 0230
ENCODING 560
SWIDTH 480 0
DWIDTH 12 0
BBX 11 23 1 0
BITMAP
3F00
3F00
0000
0400
0E00
0400
0000
0E00
3F80
6180
60C0
C0C0
C060
C060
C060
8060
8060
C060
C060
C0C0
60C0
7380
3F00
ENDCHAR
STARTCHAR 0231
ENCODING 561
SWIDTH 480 0
DWIDTH 12 0
BBX 11 20 1 0
BITMAP
1F80
1F80
0000
0000
0C00
0C00
0000
0000
0C00
3F80
6180
60C0
C0C0
C040
C060
C0C0
C0C0
60C0
7380
1F00
ENDCHAR
STARTCHAR 0232
ENCODING 562
SWIDTH 480 0
DWIDTH 12 0
BBX 11 20 1 0
BITMAP
1F80
1F80
0000
0000
C060
C0C0
60C0
6080
3180
3100
1B00
1B00
0E00
0E00
0C00
0C00
0C00
0C00
0C00
0C00
ENDCHAR
STARTCHAR 0233
ENCODING 563
SWIDTH 480 0
DWIDTH 12 0
BBX 10 20 1 -4
BITMAP
3F80
3F80
0000
0000
0000
40C0
60C0
6080
3180
3180
1100
1B00
1B00
0A00
0E00
0600
0400
0C00
9800
F800
ENDCHAR
STARTCHAR 0237
ENCODING 567
SWIDTH 480 0
DWIDTH 12 0
BBX 8 15 1 -4
BITMAP
3F
03
03
03
03
03
03
03
03
03
03
03
03
E7
7E
ENDCHAR
STARTCHAR 024D
ENCODING 589
SWIDTH 480 0
DWIDTH 12 0
BBX 10 12 1 0
BITMAP
0300
37C0
3840
3000
3000
3000
FE00
FE00
3000
3000
3000
3000
ENDCHAR
STARTCHAR 0259
ENCODING 601
SWIDTH 480 0
DWIDTH 12 0
BBX 10 12 1 0
BITMAP
0C00
7F00
4180
00C0
00C0
00C0
FFC0
C0C0
40C0
60C0
7180
3F00
ENDCHAR
STARTCHAR 027B
ENCODING 635
SWIDTH 480 0
DWIDTH 12 0
BBX 11 15 1 -4
BITMAP
0300
0300
0300
0300
0300
0300
0300
0700
8700
DB00
FB00
0300
0300
0320
03E0
ENDCHAR
STARTCHAR 0298
ENCODING 664
SWIDTH 480 0
DWIDTH 12 0
BBX 11 16 1 0
BITMAP
0E00
3F80
6180
60C0
C0C0
C060
C060
CC60
8C60
8060
C060
C060
C0C0
60C0
7380
3F00
ENDCHAR
STARTCHAR 029A
ENCODING 666
SWIDTH 480 0
DWIDTH 12 0
BBX 11 12 1 0
BITMAP
0E00
3F80
6180
60C0
60C0
3C60
7C60
E040
C0C0
60C0
7380
3F00
ENDCHAR
STARTCHAR 02B9
ENCODING 697
SWIDTH 480 0
DWIDTH 12 0
BBX 2 4 5 13
BITMAP
C0
C0
C0
80
ENDCHAR
STARTCHAR 02BA
ENCODING 698
SWIDTH 480 0
DWIDTH 12 0
BBX 5 4 4 13
BITMAP
D8
98
90
90
ENDCHAR
STARTCHAR 02BB
ENCODING 699
SWIDTH 480 0
DWIDTH 12 0
BBX 3 6 4 10
BITMAP
20
20
40
40
E0
60
ENDCHAR
STARTCHAR 02BC
ENCODING 700
SWIDTH 480 0
DWIDTH 12 0
BBX 2 5 5 11
BITMAP
C0
C0
40
40
80
ENDCHAR
STARTCHAR 02BE
ENCODING 702
SWIDTH 480 0
DWIDTH 12 0
BBX 3 6 5 11
BITMAP
80
C0
60
60
C0
80
ENDCHAR
STARTCHAR 02BF
ENCODING 703
SWIDTH 480 0
DWIDTH 12 0
BBX 3 6 5 11
BITMAP
20
E0
80
80
C0
60
ENDCHAR
STARTCHAR 02C6
ENCODING 710
SWIDTH 480 0
DWIDTH 12 0
BBX 7 4 3 13
BITMAP
10
38
4C
C6
ENDCHAR
STARTCHAR 02C7
ENCODING 711
SWIDTH 480 0
DWIDTH 12 0
BBX 6 4 3 13
BITMAP
C4
6C
38
10
ENDCHAR
STARTCHAR 02C8
ENCODING 712
SWIDTH 480 0
DWIDTH 12 0
BBX 1 6 6 11
BITMAP
80
80
80
80
80
80
ENDCHAR
STARTCHAR 02C9
ENCODING 713
SWIDTH 480 0
DWIDTH 12 0
BBX 6 2 3 14
BITMAP
FC
FC
ENDCHAR
STARTCHAR 02CA
ENCODING 714
SWIDTH 480 0
DWIDTH 12 0
BBX 4 4 5 14
BITMAP
30
60
40
80
ENDCHAR
STARTCHAR 02CB
ENCODING 715
SWIDTH 480 0
DWIDTH 12 0
BBX 3 4 5 13
BITMAP
C0
C0
60
20
ENDCHAR
STARTCHAR 02CC
ENCODING 716
SWIDTH 480 0
DWIDTH 12 0
BBX 2 6 5 -5
BITMAP
C0
C0
C0
C0
C0
C0
ENDCHAR
STARTCHAR 02D8
ENCODING 728
SWIDTH 480 0
DWIDTH 12 0
BBX 7 3 3 13
BITMAP
82
EC
38
ENDCHAR
STARTCHAR 02D9
ENCODING 729
SWIDTH 480 0
DWIDTH 12 0
BBX 3 2 5 14
BITMAP
E0
C0
ENDCHAR
STARTCHAR 02DA
ENCODING 730
SWIDTH 480 0
DWIDTH 12 0
BBX 5 4 4 13
BITMAP
70
98
D8
70
ENDCHAR
STARTCHAR 02DB
ENCODING 731
SWIDTH 480 0
DWIDTH 12 0
BBX 4 4 7 -4
BITMAP
60
C0
80
F0
ENDCHAR
STARTCHAR 02DC
ENCODING 732
SWIDTH 480 0
DWIDTH 12 0
BBX 7 3 3 14
BITMAP
72
DE
04
ENDCHAR
STARTCHAR 02DD
ENCODING 733
SWIDTH 480 0
DWIDTH 12 0
BBX 7 4 4 13
BITMAP
66
CC
D8
88
ENDCHAR
STARTCHAR 0300
ENCODING 768
SWIDTH 0 0
DWIDTH 0 0
BBX 3 4 -8 13
BITMAP
80
C0
C0
60
ENDCHAR
STARTCHAR 0301
ENCODING 769
SWIDTH 0 0
DWIDTH 0 0
BBX 3 4 -7 13
BITMAP
20
60
40
80
ENDCHAR
STARTCHAR 0302
ENCODING 770
SWIDTH 0 0
DWIDTH 0 0
BBX 7 4 -10 13
BITMAP
18
3C
66
C2
ENDCHAR
STARTCHAR 0303
ENCODING 771
SWIDTH 0 0
DWIDTH 0 0
BBX 8 3 -10 14
BITMAP
71
DF
04
ENDCHAR
STARTCHAR 0304
ENCODING 772
SWIDTH 0 0
DWIDTH 0 0
BBX 6 2 -9 14
BITMAP
FC
FC
ENDCHAR
STARTCHAR 0306
ENCODING 774
SWIDTH 0 0
DWIDTH 0 0
BBX 6 2 -9 13
BITMAP
84
FC
ENDCHAR
STARTCHAR 0307
ENCODING 775
SWIDTH 0 0
DWIDTH 0 0
BBX 2 2 -7 14
BITMAP
C0
C0
ENDCHAR
STARTCHAR 0308
ENCODING 776
SWIDTH 0 0
DWIDTH 0 0
BBX 7 3 -10 14
BITMAP
40
E6
46
ENDCHAR
STARTCHAR 0309
ENCODING 777
SWIDTH 0 0
DWIDTH 0 0
BBX 4 5 -9 13
BITMAP
20
F0
10
30
20
ENDCHAR
STARTCHAR 030A
ENCODING 778
SWIDTH 0 0
DWIDTH 0 0
BBX 4 4 -8 13
BITMAP
F0
90
90
E0
ENDCHAR
STARTCHAR 030B
ENCODING 779
SWIDTH 0 0
DWIDTH 0 0
BBX 7 4 -9 13
BITMAP
66
66
CC
88
ENDCHAR
STARTCHAR 030C
ENCODING 780
SWIDTH 0 0
DWIDTH 0 0
BBX 7 4 -10 13
BITMAP
C2
66
3C
18
ENDCHAR
STARTCHAR 030F
ENCODING 783
SWIDTH 0 0
DWIDTH 0 0
BBX 7 4 -10 13
BITMAP
CC
CC
66
22
ENDCHAR
STARTCHAR 0311
ENCODING 785
SWIDTH 0 0
DWIDTH 0 0
BBX 6 3 -9 13
BITMAP
78
CC
84
ENDCHAR
STARTCHAR 0312
ENCODING 786
SWIDTH 0 0
DWIDTH 0 0
BBX 3 6 -8 15
BITMAP
60
40
C0
C0
E0
E0
ENDCHAR
STARTCHAR 031B
ENCODING 795
SWIDTH 0 0
DWIDTH 0 0
BBX 3 4 -3 10
BITMAP
60
60
E0
C0
ENDCHAR
STARTCHAR 0323
ENCODING 803
SWIDTH 0 0
DWIDTH 0 0
BBX 3 3 -8 -4
BITMAP
40
E0
C0
ENDCHAR
STARTCHAR 0324
ENCODING 804
SWIDTH 0 0
DWIDTH 0 0
BBX 7 3 -10 -4
BITMAP
40
E6
46
ENDCHAR
STARTCHAR 0326
ENCODING 806
SWIDTH 0 0
DWIDTH 0 0
BBX 3 6 -8 -7
BITMAP
E0
E0
60
60
40
80
ENDCHAR
STARTCHAR 0327
ENCODING 807
SWIDTH 0 0
DWIDTH 0 0
BBX 5 5 -8 -5
BITMAP
20
30
08
88
F0
ENDCHAR
STARTCHAR 0328
ENCODING 808
SWIDTH 0 0
DWIDTH 0 0
BBX 3 6 -9 -6
BITMAP
20
60
C0
C0
60
20
ENDCHAR
STARTCHAR 032E
ENCODING 814
SWIDTH 0 0
DWIDTH 0 0
BBX 6 2 -9 -3
BITMAP
84
78
ENDCHAR
STARTCHAR 0331
ENCODING 817
SWIDTH 0 0
DWIDTH 0 0
BBX 6 2 -9 -4
BITMAP
FC
FC
ENDCHAR
STARTCHAR 0335
ENCODING 821
SWIDTH 0 0
DWIDTH 0 0
BBX 6 2 -9 7
BITMAP
FC
FC
ENDCHAR
STARTCHAR 0336
ENCODING 822
SWIDTH 0 0
DWIDTH 0 0
BBX 9 2 -11 7
BITMAP
FF80
FF80
ENDCHAR
STARTCHAR 0375
ENCODING 885
SWIDTH 480 0
DWIDTH 12 0
BBX 4 5 4 -2
BITMAP
30
60
60
40
C0
ENDCHAR
STARTCHAR 1E08
ENCODING 7688
SWIDTH 480 0
DWIDTH 12 0
BBX 10 24 1 -4
BITMAP
0700
1E00
0000
0600
1F80
30C0
6040
4000
C000
C000
C000
C000
C000
C000
C000
6000
6040
39C0
1F80
0200
0300
0180
0980
0F00
ENDCHAR
STARTCHAR 1E09
ENCODING 7689
SWIDTH 480 0
DWIDTH 12 0
BBX 10 22 1 -5
BITMAP
0100
0300
0200
0600
0000
0600
1FC0
30C0
6000
6000
C000
C000
C000
6000
6000
39C0
1F80
0200
0300
0180
0980
0F00
ENDCHAR
STARTCHAR 1E0C
ENCODING 7692
SWIDTH 480 0
DWIDTH 12 0
BBX 10 20 1 -4
BITMAP
F800
FF00
C380
C0C0
C0C0
C0C0
C040
C040
C040
C040
C040
C0C0
C0C0
C180
CF00
FE00
0000
0000
0C00
0C00
ENDCHAR
STARTCHAR 1E0D
ENCODING 7693
SWIDTH 480 0
DWIDTH 12 0
BBX 10 21 1 -4
BITMAP
00C0
00C0
00C0
00C0
00C0
0CC0
3FC0
61C0
40C0
C0C0
C0C0
C0C0
C0C0
C0C0
61C0
73C0
3EC0
0000
0000
0C00
0C00
ENDCHAR
STARTCHAR 1E0E
ENCODING 7694
SWIDTH 480 0
DWIDTH 12 0
BBX 10 20 1 -4
BITMAP
F800
FF00
C380
C0C0
C0C0
C0C0
C040
C040
C040
C040
C040
C0C0
C0C0
C180
CF00
FE00
0000
0000
3F00
3F00
ENDCHAR
STARTCHAR 1E0F
ENCODING 7695
SWIDTH 480 0
DWIDTH 12 0
BBX 10 21 1 -4
BITMAP
00C0
00C0
00C0
00C0
00C0
0CC0
3FC0
61C0
40C0
C0C0
C0C0
C0C0
C0C0
C0C0
61C0
73C0
3EC0
0000
0000
3F00
3F00
ENDCHAR
STARTCHAR 1E14
ENCODING 7700
SWIDTH 480 0
DWIDTH 12 0
BBX 10 24 1 0
BITMAP
1000
3800
0E00
0000
1F80
1F80
0000
0000
FFC0
FFC0
C000
C000
C000
C000
C000
FF80
FF80
C000
C000
C000
C000
C000
FFC0
FFC0
ENDCHAR
STARTCHAR 1E15
ENCODING 7701
SWIDTH 480 0
DWIDTH 12 0
BBX 10 21 1 0
BITMAP
1000
1800
1800
0C00
0000
3F80
3F80
0000
0000
0E00
3F80
6180
60C0
C0C0
FFC0
FFC0
C000
C000
6000
31C0
1F80
ENDCHAR
STARTCHAR 1E16
ENCODING 7702
SWIDTH 480 0
DWIDTH 12 0
BBX 10 24 1 0
BITMAP
0100
0700
0E00
0000
1F80
1F80
0000
0000
FFC0
FFC0
C000
C000
C000
C000
C000
FF80
FF80
C000
C000
C000
C000
C000
FFC0
FFC0
ENDCHAR
STARTCHAR 1E17
ENCODING 7703
SWIDTH 480 0
DWIDTH 12 0
BBX 10 21 1 0
BITMAP
0200
0600
0400
0800
0000
3F80
3F80
0000
0000
0E00
3F80
6180
60C0
C0C0
FFC0
FFC0
C000
C000
6000
31C0
1F80
ENDCHAR
STARTCHAR 1E1C
ENCODING 7708
SWIDTH 480 0
DWIDTH 12 0
BBX 10 25 1 -5
BITMAP
1000
1180
0F00
0000
FFC0
FFC0
C000
C000
C000
C000
C000
FF80
FF80
C000
C000
C000
C000
C000
FFC0
FFC0
0400
0600
0100
1100
1E00
ENDCHAR
STARTCHAR 1E1D
ENCODING 7709
SWIDTH 480 0
DWIDTH 12 0
BBX 10 21 1 -5
BITMAP
3180
1F00
0400
0000
0E00
3F80
6180
60C0
C0C0
FFC0
FFC0
C000
C000
6000
31C0
1F80
0200
0300
0180
0980
0F00
ENDCHAR
STARTCHAR 1E20
ENCODING 7712
SWIDTH 480 0
DWIDTH 12 0
BBX 11 20 1 0
BITMAP
1F80
1F80
0000
0000
0E00
3F80
70C0
6040
C000
C000
C000
C000
C000
C3E0
C060
C060
4060
6060
39E0
1F80
ENDCHAR
STARTCHAR 1E21
ENCODING 7713
SWIDTH 480 0
DWIDTH 12 0
BBX 11 20 1 -4
BITMAP
7F00
7F00
0000
0000
1C60
3FE0
6100
4180
4180
6100
7700
3E00
4000
6000
7F80
47C0
C0C0
C0C0
E1C0
7F80
ENDCHAR
STARTCHAR 1E24
ENCODING 7716
SWIDTH 480 0
DWIDTH 12 0
BBX 10 20 1 -4
BITMAP
C0C0
C0C0
C0C0
C0C0
C0C0
C0C0
C0C0
FFC0
FFC0
C0C0
C0C0
C0C0
C0C0
C0C0
C0C0
C0C0
0000
0000
0C00
0C00
ENDCHAR
STARTCHAR 1E25
ENCODING 7717
SWIDTH 480 0
DWIDTH 12 0
BBX 9 21 2 -4
BITMAP
C000
C000
C000
C000
C000
CC00
FF00
E300
C180
C180
C180
C180
C180
C180
C180
C180
C180
0000
0000
1800
1800
ENDCHAR
STARTCHAR 1E2A
ENCODING 7722
SWIDTH 480 0
DWIDTH 12 0
BBX 10 20 1 -4
BITMAP
C0C0
C0C0
C0C0
C0C0
C0C0
C0C0
C0C0
FFC0
FFC0
C0C0
C0C0
C0C0
C0C0
C0C0
C0C0
C0C0
0000
0000
3180
1F00
ENDCHAR
STARTCHAR 1E2B
ENCODING 7723
SWIDTH 480 0
DWIDTH 12 0
BBX 9 21 2 -4
BITMAP
C000
C000
C000
C000
C000
CC00
FF00
E300
C180
C180
C180
C180
C180
C180
C180
C180
C180
0000
0000
6300
3E00
ENDCHAR
STARTCHAR 1E2E
ENCODING 7726
SWIDTH 480 0
DWIDTH 12 0
BBX 8 24 2 0
BITMAP
04
1C
38
00
42
E6
46
00
FF
FF
18
18
18
18
18
18
18
18
18
18
18
18
18
FF
ENDCHAR
STARTCHAR 1E2F
ENCODING 7727
SWIDTH 480 0
DWIDTH 12 0
BBX 7 21 3 0
BITMAP
08
18
10
20
04
CE
C4
00
00
00
F0
30
30
30
30
30
30
30
30
30
FE
ENDCHAR
STARTCHAR 1E36
ENCODING 7734
SWIDTH 480 0
DWIDTH 12 0
BBX 9 20 2 -4
BITMAP
C000
8000
8000
8000
8000
8000
8000
8000
8000
8000
8000
8000
8000
8000
FF80
FF80
0000
0000
1800
1800
ENDCHAR
STARTCHAR 1E37
ENCODING 7735
SWIDTH 480 0
DWIDTH 12 0
BBX 9 21 2 -4
BITMAP
F800
F800
1800
1800
1800
1800
1800
1800
1800
1800
1800
1800
1800
1800
1800
1800
FF80
0000
0000
1800
1800
ENDCHAR
STARTCHAR 1E3A
ENCODING 7738
SWIDTH 480 0
DWIDTH 12 0
BBX 9 20 2 -4
BITMAP
C000
8000
8000
8000
8000
8000
8000
8000
8000
8000
8000
8000
8000
8000
FF80
FF80
0000
0000
7E00
7E00
ENDCHAR
STARTCHAR 1E3B
ENCODING 7739
SWIDTH 480 0
DWIDTH 12 0
BBX 9 21 2 -4
BITMAP
F800
F800
1800
1800
1800
1800
1800
1800
1800
1800
1800
1800
1800
1800
1800
1800
FF80
0000
0000
7E00
7E00
ENDCHAR
STARTCHAR 1E42
ENCODING 7746
SWIDTH 480 0
DWIDTH 12 0
BBX 11 20 1 -4
BITMAP
8060
C060
C0E0
E0E0
E1E0
F160
D360
DA60
CE60
CC60
C060
C060
C060
C060
C060
C060
0000
0000
0C00
0C00
ENDCHAR
STARTCHAR 1E43
ENCODING 7747
SWIDTH 480 0
DWIDTH 12 0
BBX 11 16 1 -4
BITMAP
10C0
FFC0
CE60
CC60
CC60
CC60
CC60
CC60
CC60
CC60
CC60
CC60
0000
0000
0C00
0C00
ENDCHAR
STARTCHAR 1E44
ENCODING 7748
SWIDTH 480 0
DWIDTH 12 0
BBX 10 20 1 0
BITMAP
0400
0E00
0400
0000
C0C0
E0C0
E0C0
F0C0
F0C0
D8C0
D8C0
CCC0
C6C0
C6C0
C3C0
C3C0
C1C0
C1C0
C0C0
C040
ENDCHAR
STARTCHAR 1E45
ENCODING 7749
SWIDTH 480 0
DWIDTH 12 0
BBX 9 16 2 0
BITMAP
1C00
1C00
0000
0000
0C00
FF00
E300
C180
C180
C180
C180
C180
C180
C180
C180
C180
ENDCHAR
STARTCHAR 1E46
ENCODING 7750
SWIDTH 480 0
DWIDTH 12 0
BBX 10 20 1 -4
BITMAP
C0C0
E0C0
E0C0
F0C0
F0C0
D8C0
D8C0
CCC0
C6C0
C6C0
C3C0
C3C0
C1C0
C1C0
C0C0
C040
0000
0000
0C00
0C00
ENDCHAR
STARTCHAR 1E47
ENCODING 7751
SWIDTH 480 0
DWIDTH 12 0
BBX 9 16 2 -4
BITMAP
0C00
FF00
E300
C180
C180
C180
C180
C180
C180
C180
C180
C180
0000
0800
1C00
1800
ENDCHAR
STARTCHAR 1E48
ENCODING 7752
SWIDTH 480 0
DWIDTH 12 0
BBX 10 20 1 -4
BITMAP
C0C0
E0C0
E0C0
F0C0
F0C0
D8C0
D8C0
CCC0
C6C0
C6C0
C3C0
C3C0
C1C0
C1C0
C0C0
C040
0000
0000
3F00
3F00
ENDCHAR
STARTCHAR 1E49
ENCODING 7753
SWIDTH 480 0
DWIDTH 12 0
BBX 9 16 2 -4
BITMAP
0C00
FF00
E300
C180
C180
C180
C180
C180
C180
C180
C180
C180
0000
0000
7F00
7F00
ENDCHAR
STARTCHAR 1E4C
ENCODING 7756
SWIDTH 480 0
DWIDTH 12 0
BBX 11 24 1 0
BITMAP
0200
0E00
1C00
0000
1880
3F80
2300
0000
0E00
3F80
6180
60C0
C0C0
C060
C060
C060
8060
8060
C060
C060
C0C0
60C0
7380
3F00
ENDCHAR
STARTCHAR 1E4D
ENCODING 7757
SWIDTH 480 0
DWIDTH 12 0
BBX 11 21 1 0
BITMAP
0200
0600
0400
0800
3880
6780
0300
0000
0000
0C00
3F80
6180
60C0
C0C0
C040
C060
C0C0
C0C0
60C0
7380
1F00
ENDCHAR
STARTCHAR 1E4E
ENCODING 7758
SWIDTH 480 0
DWIDTH 12 0
BBX 11 24 1 0
BITMAP
2200
7300
2300
0000
1880
3F80
2300
0000
0E00
3F80
6180
60C0
C0C0
C060
C060
C060
8060
8060
C060
C060
C0C0
60C0
7380
3F00
ENDCHAR
STARTCHAR 1E4F
ENCODING 7759
SWIDTH 480 0
DWIDTH 12 0
BBX 11 21 1 0
BITMAP
2000
7300
2300
0000
3880
6780
0300
0000
0000
0C00
3F80
6180
60C0
C0C0
C040
C060
C0C0
C0C0
60C0
7380
1F00
ENDCHAR
STARTCHAR 1E50
ENCODING 7760
SWIDTH 480 0
DWIDTH 12 0
BBX 11 24 1 0
BITMAP
1000
3800
0E00
0000
1F80
1F80
0000
0000
0E00
3F80
6180
60C0
C0C0
C060
C060
C060
8060
8060
C060
C060
C0C0
60C0
7380
3F00
ENDCHAR
STARTCHAR 1E51
ENCODING 7761
SWIDTH 480 0
DWIDTH 12 0
BBX 11 21 1 0
BITMAP
1000
1800
1800
0C00
0000
3F00
3F00
0000
0000
0C00
3F80
6180
60C0
C0C0
C040
C060
C0C0
C0C0
60C0
7380
1F00
ENDCHAR
STARTCHAR 1E52
ENCODING 7762
SWIDTH 480 0
DWIDTH 12 0
BBX 11 24 1 0
BITMAP
0200
0E00
1C00
0000
1F80
1F80
0000
0000
0E00
3F80
6180
60C0
C0C0
C060
C060
C060
8060
8060
C060
C060
C0C0
60C0
7380
3F00
ENDCHAR
STARTCHAR 1E53
ENCODING 7763
SWIDTH 480 0
DWIDTH 12 0
BBX 11 21 1 0
BITMAP
0200
0600
0400
0800
0000
3F00
3F00
0000
0000
0C00
3F80
6180
60C0
C0C0
C040
C060
C0C0
C0C0
60C0
7380
1F00
ENDCHAR
STARTCHAR 1E5A
ENCODING 7770
SWIDTH 480 0
DWIDTH 12 0
BBX 10 20 1 -4
BITMAP
FC00
FF80
C1C0
C0C0
C0C0
C0C0
C0C0
C380
FF00
C600
C300
C300
C180
C180
C0C0
C0C0
0000
0000
0C00
0C00
ENDCHAR
STARTCHAR 1E5B
ENCODING 7771
SWIDTH 480 0
DWIDTH 12 0
BBX 8 16 3 -4
BITMAP
0C
DF
E1
C0
C0
C0
C0
C0
C0
C0
C0
C0
00
10
38
18
ENDCHAR
STARTCHAR 1E5E
ENCODING 7774
SWIDTH 480 0
DWIDTH 12 0
BBX 10 20 1 -4
BITMAP
FC00
FF80
C1C0
C0C0
C0C0
C0C0
C0C0
C380
FF00
C600
C300
C300
C180
C180
C0C0
C0C0
0000
0000
3F00
3F00
ENDCHAR
STARTCHAR 1E5F
ENCODING 7775
SWIDTH 480 0
DWIDTH 12 0
BBX 8 16 3 -4
BITMAP
0C
DF
E1
C0
C0
C0
C0
C0
C0
C0
C0
C0
00
00
7E
7E
ENDCHAR
STARTCHAR 1E60
ENCODING 7776
SWIDTH 480 0
DWIDTH 12 0
BBX 9 20 2 0
BITMAP
0800
1C00
0800
0000
1C00
7F00
C180
C000
C000
C000
6000
3C00
0F00
0380
0180
0080
0080
8180
E300
7E00
ENDCHAR
STARTCHAR 1E61
ENCODING 7777
SWIDTH 480 0
DWIDTH 12 0
BBX 10 16 1 0
BITMAP
0E00
0C00
0000
0000
1C00
3F80
6080
6000
7000
3E00
0780
01C0
00C0
40C0
F380
3F00
ENDCHAR
STARTCHAR 1E62
ENCODING 7778
SWIDTH 480 0
DWIDTH 12 0
BBX 9 20 2 -4
BITMAP
1C00
7F00
C180
C000
C000
C000
6000
3C00
0F00
0380
0180
0080
0080
8180
E300
7E00
0000
0000
1800
1800
ENDCHAR
STARTCHAR 1E63
ENCODING 7779
SWIDTH 480 0
DWIDTH 12 0
BBX 10 16 1 -4
BITMAP
1C00
3F80
6080
6000
7000
3E00
0780
01C0
00C0
40C0
F380
3F00
0000
0000
0C00
0C00
ENDCHAR
STARTCHAR 1E64
ENCODING 7780
SWIDTH 480 0
DWIDTH 12 0
BBX 9 23 2 0
BITMAP
0C00
0C00
0C00
0400
0E00
3800
0000
1C00
7F00
C180
C000
C000
C000
6000
3C00
0F00
0380
0180
0080
0080
8180
E300
7E00
ENDCHAR
STARTCHAR 1E65
ENCODING 7781
SWIDTH 480 0
DWIDTH 12 0
BBX 10 20 1 0
BITMAP
0600
0600
0000
0200
0200
0600
0C00
0000
1C00
3F80
6080
6000
7000
3E00
0780
01C0
00C0
40C0
F380
3F00
ENDCHAR
STARTCHAR 1E66
ENCODING 7782
SWIDTH 480 0
DWIDTH 12 0
BBX 9 24 2 0
BITMAP
0C00
0C00
0C00
0000
0000
7700
1C00
0800
1C00
7F00
C180
C000
C000
C000
6000
3C00
0F00
0380
0180
0080
0080
8180
E300
7E00
ENDCHAR
STARTCHAR 1E67
ENCODING 7783
SWIDTH 480 0
DWIDTH 12 0
BBX 10 20 1 0
BITMAP
0600
0600
0000
2180
3300
1E00
0C00
0000
1C00
3F80
6080
6000
7000
3E00
0780
01C0
00C0
40C0
F380
3F00
ENDCHAR
STARTCHAR 1E68
ENCODING 7784
SWIDTH 480 0
DWIDTH 12 0
BBX 9 24 2 -4
BITMAP
0800
1C00
0800
0000
1C00
7F00
C180
C000
C000
C000
6000
3C00
0F00
0380
0180
0080
0080
8180
E300
7E00
0000
0000
1800
1800
ENDCHAR
STARTCHAR 1E69
ENCODING 7785
SWIDTH 480 0
DWIDTH 12 0
BBX 10 20 1 -4
BITMAP
0E00
0C00
0000
0000
1C00
3F80
6080
6000
7000
3E00
0780
01C0
00C0
40C0
F380
3F00
0000
0000
0C00
0C00
ENDCHAR
STARTCHAR 1E6C
ENCODING 7788
SWIDTH 480 0
DWIDTH 12 0
BBX 11 20 1 -4
BITMAP
FFE0
FFE0
0C00
0C00
0C00
0C00
0C00
0C00
0C00
0C00
0C00
0C00
0C00
0C00
0C00
0C00
0000
0000
0C00
0C00
ENDCHAR
STARTCHAR 1E6D
ENCODING 7789
SWIDTH 480 0
DWIDTH 12 0
BBX 9 19 2 -4
BITMAP
1800
3000
3000
3000
FF00
3000
3000
3000
3000
3000
3000
3000
3000
3980
1F00
0000
0000
1800
1800
ENDCHAR
STARTCHAR 1E6E
ENCODING 7790
SWIDTH 480 0
DWIDTH 12 0
BBX 11 20 1 -4
BITMAP
FFE0
FFE0
0C00
0C00
0C00
0C00
0C00
0C00
0C00
0C00
0C00
0C00
0C00
0C00
0C00
0C00
0000
0000
3F00
3F00
ENDCHAR
STARTCHAR 1E6F
ENCODING 7791
SWIDTH 480 0
DWIDTH 12 0
BBX 9 19 2 -4
BITMAP
1800
3000
3000
3000
FF00
3000
3000
3000
3000
3000
3000
3000
3000
3980
1F00
0000
0000
7E00
7E00
ENDCHAR
STARTCHAR 1E78
ENCODING 7800
SWIDTH 480 0
DWIDTH 12 0
BBX 10 24 1 0
BITMAP
0200
0E00
1C00
0000
1880
3F80
2300
0000
C040
C040
C040
C040
C040
C040
C040
C040
C040
C040
C040
C040
C0C0
60C0
7180
3F00
ENDCHAR
STARTCHAR 1E79
ENCODING 7801
SWIDTH 480 0
DWIDTH 12 0
BBX 9 21 2 0
BITMAP
0400
0C00
0800
1000
7100
CF00
0600
0000
0000
0000
8180
8180
8180
8180
8180
8180
8180
8180
C380
E780
7D80
ENDCHAR
STARTCHAR 1E7A
ENCODING 7802
SWIDTH 480 0
DWIDTH 12 0
BBX 10 24 1 0
BITMAP
2200
7300
2300
0000
1F80
1F80
0000
0000
C040
C040
C040
C040
C040
C040
C040
C040
C040
C040
C040
C040
C0C0
60C0
7180
3F00
ENDCHAR
STARTCHAR 1E7B
ENCODING 7803
SWIDTH 480 0
DWIDTH 12 0
BBX 9 21 2 0
BITMAP
4000
E600
4600
0000
0000
7E00
7E00
0000
0000
0000
8180
8180
8180
8180
8180
8180
8180
8180
C380
E780
7D80
ENDCHAR
STARTCHAR 1E80
ENCODING 7808
SWIDTH 480 0
DWIDTH 12 0
BBX 12 20 0 0
BITMAP
0800
0E00
0700
0000
C010
4010
4230
6230
6730
6720
6520
2520
2DA0
29E0
38E0
38C0
38C0
10C0
1040
1040
ENDCHAR
STARTCHAR 1E81
ENCODING 7809
SWIDTH 480 0
DWIDTH 12 0
BBX 11 17 1 0
BITMAP
1000
1800
0800
0C00
0000
0000
8060
8460
CC60
CE40
CA40
4A40
5B40
73C0
71C0
7180
2180
ENDCHAR
STARTCHAR 1E82
ENCODING 7810
SWIDTH 480 0
DWIDTH 12 0
BBX 12 20 0 0
BITMAP
0100
0380
0E00
0000
C010
4010
4230
6230
6730
6720
6520
2520
2DA0
29E0
38E0
38C0
38C0
10C0
1040
1040
ENDCHAR
STARTCHAR 1E83
ENCODING 7811
SWIDTH 480 0
DWIDTH 12 0
BBX 11 17 1 0
BITMAP
0200
0600
0400
0C00
0000
0000
8060
8460
CC60
CE40
CA40
4A40
5B40
73C0
71C0
7180
2180
ENDCHAR
STARTCHAR 1E84
ENCODING 7812
SWIDTH 480 0
DWIDTH 12 0
BBX 12 20 0 0
BITMAP
0880
1DC0
0880
0000
C010
4010
4230
6230
6730
6720
6520
2520
2DA0
29E0
38E0
38C0
38C0
10C0
1040
1040
ENDCHAR
STARTCHAR 1E85
ENCODING 7813
SWIDTH 480 0
DWIDTH 12 0
BBX 11 17 1 0
BITMAP
0100
3380
3100
0000
0000
0000
8060
8460
CC60
CE40
CA40
4A40
5B40
73C0
71C0
7180
2180
ENDCHAR
STARTCHAR 1E8E
ENCODING 7822
SWIDTH 480 0
DWIDTH 12 0
BBX 11 20 1 0
BITMAP
0400
0E00
0400
0000
C060
C0C0
60C0
6080
3180
3100
1B00
1B00
0E00
0E00
0C00
0C00
0C00
0C00
0C00
0C00
ENDCHAR
STARTCHAR 1E8F
ENCODING 7823
SWIDTH 480 0
DWIDTH 12 0
BBX 10 20 1 -4
BITMAP
0E00
0C00
0000
0000
0000
40C0
60C0
6080
3180
3180
1100
1B00
1B00
0A00
0E00
0600
0400
0C00
9800
F800
ENDCHAR
STARTCHAR 1E92
ENCODING 7826
SWIDTH 480 0
DWIDTH 12 0
BBX 11 20 1 -4
BITMAP
7FC0
7FC0
00C0
0180
0100
0300
0600
0600
0C00
1800
1800
3000
3000
6000
FFE0
FFE0
0000
0400
0E00
0600
ENDCHAR
STARTCHAR 1E93
ENCODING 7827
SWIDTH 480 0
DWIDTH 12 0
BBX 10 15 1 -4
BITMAP
7FC0
0180
0300
0700
0600
0C00
1800
3000
6000
FFC0
FFC0
0000
0000
0C00
0C00
ENDCHAR
STARTCHAR 1E97
ENCODING 7831
SWIDTH 480 0
DWIDTH 12 0
BBX 9 20 2 0
BITMAP
4000
E600
4600
0000
0000
1800
3000
3000
3000
FF00
3000
3000
3000
3000
3000
3000
3000
3000
3980
1F00
ENDCHAR
STARTCHAR 1E9E
ENCODING 7838
SWIDTH 480 0
DWIDTH 12 0
BBX 11 17 1 0
BITMAP
0C00
3F00
6180
4080
C080
C180
C600
CC00
CF80
C0C0
C0C0
C060
C060
C060
C0C0
C9C0
DF80
ENDCHAR
STARTCHAR 1EA0
ENCODING 7840
SWIDTH 480 0
DWIDTH 12 0
BBX 11 19 1 -3
BITMAP
0400
0C00
0E00
0E00
1A00
1300
3300
3100
2180
7F80
6080
40C0
C0C0
C060
8060
0000
0000
0C00
0C00
ENDCHAR
STARTCHAR 1EA1
ENCODING 7841
SWIDTH 480 0
DWIDTH 12 0
BBX 10 16 1 -4
BITMAP
0C00
7F80
6180
00C0
00C0
0FC0
3FC0
60C0
C0C0
C0C0
63C0
7EC0
0000
0000
0C00
0C00
ENDCHAR
STARTCHAR 1EA2
ENCODING 7842
SWIDTH 480 0
DWIDTH 12 0
BBX 11 22 1 0
BITMAP
0400
1E00
0200
0600
0400
0000
0000
0400
0C00
0E00
0E00
1A00
1300
3300
3100
2180
7F80
6080
40C0
C0C0
C060
8060
ENDCHAR
STARTCHAR 1EA3
ENCODING 7843
SWIDTH 480 0
DWIDTH 12 0
BBX 10 18 1 0
BITMAP
0400
1E00
0200
0600
0400
0000
0C00
7F80
6180
00C0
00C0
0FC0
3FC0
60C0
C0C0
C0C0
63C0
7EC0
ENDCHAR
STARTCHAR 1EA4
ENCODING 7844
SWIDTH 480 0
DWIDTH 12 0
BBX 12 23 1 0
BITMAP
0010
0070
00E0
0C00
1E00
3380
0080
0000
0400
0C00
0E00
0E00
1A00
1300
3300
3100
2180
7F80
6080
40C0
C0C0
C060
8060
ENDCHAR
STARTCHAR 1EA5
ENCODING 7845
SWIDTH 480 0
DWIDTH 12 0
BBX 11 20 1 0
BITMAP
0020
0060
0040
0C80
1E00
3300
2180
0000
0C00
7F80
6180
00C0
00C0
0FC0
3FC0
60C0
C0C0
C0C0
63C0
7EC0
ENDCHAR
STARTCHAR 1EA6
ENCODING 7846
SWIDTH 480 0
DWIDTH 12 0
BBX 11 23 1 0
BITMAP
0400
0E00
0380
0C00
1E00
3380
0080
0000
0400
0C00
0E00
0E00
1A00
1300
3300
3100
2180
7F80
6080
40C0
C0C0
C060
8060
ENDCHAR
STARTCHAR 1EA7
ENCODING 7847
SWIDTH 480 0
DWIDTH 12 0
BBX 10 21 1 0
BITMAP
0100
0180
0180
00C0
0C00
1E00
3300
2180
0000
0C00
7F80
6180
00C0
00C0
0FC0
3FC0
60C0
C0C0
C0C0
63C0
7EC0
ENDCHAR
STARTCHAR 1EA8
ENCODING 7848
SWIDTH 480 0
DWIDTH 12 0
BBX 11 24 1 0
BITMAP
0080
03C0
0040
00C0
0C80
1E00
7380
0000
0000
0400
0C00
0E00
0E00
1A00
1300
3300
3100
2180
7F80
6080
40C0
C0C0
C060
8060
ENDCHAR
STARTCHAR 1EA9
ENCODING 7849
SWIDTH 480 0
DWIDTH 12 0
BBX 10 21 1 0
BITMAP
0080
03C0
0040
00C0
0C80
1E00
3300
2180
0000
0C00
7F80
6180
00C0
00C0
0FC0
3FC0
60C0
C0C0
C0C0
63C0
7EC0
ENDCHAR
STARTCHAR 1EAA
ENCODING 7850
SWIDTH 480 0
DWIDTH 12 0
BBX 11 23 1 0
BITMAP
1800
3D00
6700
0C00
1E00
3380
0080
0000
0400
0C00
0E00
0E00
1A00
1300
3300
3100
2180
7F80
6080
40C0
C0C0
C060
8060
ENDCHAR
STARTCHAR 1EAB
ENCODING 7851
SWIDTH 480 0
DWIDTH 12 0
BBX 10 21 1 0
BITMAP
1800
3D00
6700
0000
0C00
1E00
3300
2180
0000
0C00
7F80
6180
00C0
00C0
0FC0
3FC0
60C0
C0C0
C0C0
63C0
7EC0
ENDCHAR
STARTCHAR 1EAC
ENCODING 7852
SWIDTH 480 0
DWIDTH 12 0
BBX 11 24 1 -4
BITMAP
0C00
1E00
3380
0080
0000
0400
0C00
0E00
0E00
1A00
1300
3300
3100
2180
7F80
6080
40C0
C0C0
C060
8060
0000
0000
0C00
0C00
ENDCHAR
STARTCHAR 1EAD
ENCODING 7853
SWIDTH 480 0
DWIDTH 12 0
BBX 10 21 1 -4
BITMAP
0C00
1E00
3300
2180
0000
0C00
7F80
6180
00C0
00C0
0FC0
3FC0
60C0
C0C0
C0C0
63C0
7EC0
0000
0000
0C00
0C00
ENDCHAR
STARTCHAR 1EAE
ENCODING 7854
SWIDTH 480 0
DWIDTH 12 0
BBX 11 23 1 0
BITMAP
0100
0700
0E00
0100
3100
1E00
0000
0000
0400
0C00
0E00
0E00
1A00
1300
3300
3100
2180
7F80
6080
40C0
C0C0
C060
8060
ENDCHAR
STARTCHAR 1EAF
ENCODING 7855
SWIDTH 480 0
DWIDTH 12 0
BBX 10 20 1 0
BITMAP
0100
0300
0200
0400
2180
1F00
0400
0000
0C00
7F80
6180
00C0
00C0
0FC0
3FC0
60C0
C0C0
C0C0
63C0
7EC0
ENDCHAR
STARTCHAR 1EB0
ENCODING 7856
SWIDTH 480 0
DWIDTH 12 0
BBX 11 24 1 0
BITMAP
1000
3800
0E00
0000
0100
3100
1E00
0000
0000
0400
0C00
0E00
0E00
1A00
1300
3300
3100
2180
7F80
6080
40C0
C0C0
C060
8060
ENDCHAR
STARTCHAR 1EB1
ENCODING 7857
SWIDTH 480 0
DWIDTH 12 0
BBX 10 20 1 0
BITMAP
0800
0C00
0C00
0600
2180
1F00
0400
0000
0C00
7F80
6180
00C0
00C0
0FC0
3FC0
60C0
C0C0
C0C0
63C0
7EC0
ENDCHAR
STARTCHAR 1EB2
ENCODING 7858
SWIDTH 480 0
DWIDTH 12 0
BBX 11 24 1 0
BITMAP
0400
1E00
0200
0600
0500
3100
1E00
0000
0000
0400
0C00
0E00
0E00
1A00
1300
3300
3100
2180
7F80
6080
40C0
C0C0
C060
8060
ENDCHAR
STARTCHAR 1EB3
ENCODING 7859
SWIDTH 480 0
DWIDTH 12 0
BBX 10 21 1 0
BITMAP
0400
1E00
0200
0600
0400
2180
1F00
0400
0000
0C00
7F80
6180
00C0
00C0
0FC0
3FC0
60C0
C0C0
C0C0
63C0
7EC0
ENDCHAR
STARTCHAR 1EB4
ENCODING 7860
SWIDTH 480 0
DWIDTH 12 0
BBX 11 23 1 0
BITMAP
1800
3D00
6700
0100
3100
1E00
0000
0000
0400
0C00
0E00
0E00
1A00
1300
3300
3100
2180
7F80
6080
40C0
C0C0
C060
8060
ENDCHAR
STARTCHAR 1EB5
ENCODING 7861
SWIDTH 480 0
DWIDTH 12 0
BBX 10 20 1 0
BITMAP
1800
3D00
6700
0000
2180
1F00
0400
0000
0C00
7F80
6180
00C0
00C0
0FC0
3FC0
60C0
C0C0
C0C0
63C0
7EC0
ENDCHAR
STARTCHAR 1EB6
ENCODING 7862
SWIDTH 480 0
DWIDTH 12 0
BBX 11 24 1 -4
BITMAP
0100
3100
1E00
0000
0000
0400
0C00
0E00
0E00
1A00
1300
3300
3100
2180
7F80
6080
40C0
C0C0
C060
8060
0000
0000
0C00
0C00
ENDCHAR
STARTCHAR 1EB7
ENCODING 7863
SWIDTH 480 0
DWIDTH 12 0
BBX 10 20 1 -4
BITMAP
2180
1F00
0400
0000
0C00
7F80
6180
00C0
00C0
0FC0
3FC0
60C0
C0C0
C0C0
63C0
7EC0
0000
0000
0C00
0C00
ENDCHAR
STARTCHAR 1EB8
ENCODING 7864
SWIDTH 480 0
DWIDTH 12 0
BBX 10 20 1 -4
BITMAP
FFC0
FFC0
C000
C000
C000
C000
C000
FF80
FF80
C000
C000
C000
C000
C000
FFC0
FFC0
0000
0000
0C00
0C00
ENDCHAR
STARTCHAR 1EB9
ENCODING 7865
SWIDTH 480 0
DWIDTH 12 0
BBX 10 16 1 -4
BITMAP
0E00
3F80
6180
60C0
C0C0
FFC0
FFC0
C000
C000
6000
31C0
1F80
0000
0000
0600
0600
ENDCHAR
STARTCHAR 1EBA
ENCODING 7866
SWIDTH 480 0
DWIDTH 12 0
BBX 10 22 1 0
BITMAP
0400
1E00
0200
0600
0400
0000
FFC0
FFC0
C000
C000
C000
C000
C000
FF80
FF80
C000
C000
C000
C000
C000
FFC0
FFC0
ENDCHAR
STARTCHAR 1EBB
ENCODING 7867
SWIDTH 480 0
DWIDTH 12 0
BBX 10 18 1 0
BITMAP
0400
1E00
0300
0600
0400
0000
0E00
3F80
6180
60C0
C0C0
FFC0
FFC0
C000
C000
6000
31C0
1F80
ENDCHAR
STARTCHAR 1EBC
ENCODING 7868
SWIDTH 480 0
DWIDTH 12 0
BBX 10 20 1 0
BITMAP
1C00
37C0
0180
0000
FFC0
FFC0
C000
C000
C000
C000
C000
FF80
FF80
C000
C000
C000
C000
C000
FFC0
FFC0
ENDCHAR
STARTCHAR 1EBD
ENCODING 7869
SWIDTH 480 0
DWIDTH 12 0
BBX 10 17 1 0
BITMAP
1C80
3780
0100
0000
0000
0E00
3F80
6180
60C0
C0C0
FFC0
FFC0
C000
C000
6000
31C0
1F80
ENDCHAR
STARTCHAR 1EBE
ENCODING 7870
SWIDTH 480 0
DWIDTH 12 0
BBX 12 23 1 0
BITMAP
0010
0070
00E0
0400
1F00
3980
2000
FFC0
FFC0
C000
C000
C000
C000
C000
FF80
FF80
C000
C000
C000
C000
C000
FFC0
FFC0
ENDCHAR
STARTCHAR 1EBF
ENCODING 7871
SWIDTH 480 0
DWIDTH 12 0
BBX 11 20 1 0
BITMAP
0020
0060
0040
0480
0A00
1100
2080
0000
0E00
3F80
6180
60C0
C0C0
FFC0
FFC0
C000
C000
6000
31C0
1F80
ENDCHAR
STARTCHAR 1EC0
ENCODING 7872
SWIDTH 480 0
DWIDTH 12 0
BBX 10 23 1 0
BITMAP
0400
0E00
0380
0400
1F00
3980
0000
FFC0
FFC0
C000
C000
C000
C000
C000
FF80
FF80
C000
C000
C000
C000
C000
FFC0
FFC0
ENDCHAR
STARTCHAR 1EC1
ENCODING 7873
SWIDTH 480 0
DWIDTH 12 0
BBX 10 21 1 0
BITMAP
0100
0180
0180
00C0
0400
0E00
1900
3080
0000
0E00
3F80
6180
60C0
C0C0
FFC0
FFC0
C000
C000
6000
31C0
1F80
ENDCHAR
STARTCHAR 1EC2
ENCODING 7874
SWIDTH 480 0
DWIDTH 12 0
BBX 10 24 1 0
BITMAP
0080
03C0
0040
00C0
0480
1F00
3180
2000
FFC0
FFC0
C000
C000
C000
C000
C000
FF80
FF80
C000
C000
C000
C000
C000
FFC0
FFC0
ENDCHAR
STARTCHAR 1EC3
ENCODING 7875
SWIDTH 480 0
DWIDTH 12 0
BBX 10 21 1 0
BITMAP
0080
03C0
0040
00C0
0480
0E00
1900
2080
0000
0E00
3F80
6180
60C0
C0C0
FFC0
FFC0
C000
C000
6000
31C0
1F80
ENDCHAR
STARTCHAR 1EC4
ENCODING 7876
SWIDTH 480 0
DWIDTH 12 0
BBX 10 23 1 0
BITMAP
0C00
1E80
3380
0400
1F00
3980
0000
FFC0
FFC0
C000
C000
C000
C000
C000
FF80
FF80
C000
C000
C000
C000
C000
FFC0
FFC0
ENDCHAR
STARTCHAR 1EC5
ENCODING 7877
SWIDTH 480 0
DWIDTH 12 0
BBX 10 21 1 0
BITMAP
0C00
1E80
3380
0000
0400
0E00
1900
2080
0000
0E00
3F80
6180
60C0
C0C0
FFC0
FFC0
C000
C000
6000
31C0
1F80
ENDCHAR
STARTCHAR 1EC6
ENCODING 7878
SWIDTH 480 0
DWIDTH 12 0
BBX 10 24 1 -4
BITMAP
0400
1F00
3980
0000
FFC0
FFC0
C000
C000
C000
C000
C000
FF80
FF80
C000
C000
C000
C000
C000
FFC0
FFC0
0000
0000
0C00
0C00
ENDCHAR
STARTCHAR 1EC7
ENCODING 7879
SWIDTH 480 0
DWIDTH 12 0
BBX 10 21 1 -4
BITMAP
0400
0A00
1100
2080
0000
0E00
3F80
6180
60C0
C0C0
FFC0
FFC0
C000
C000
6000
31C0
1F80
0000
0000
0600
0600
ENDCHAR
STARTCHAR 1EC8
ENCODING 7880
SWIDTH 480 0
DWIDTH 12 0
BBX 8 22 2 0
BITMAP
08
3C
04
0C
08
00
FF
FF
18
18
18
18
18
18
18
18
18
18
18
18
18
FF
ENDCHAR
STARTCHAR 1EC9
ENCODING 7881
SWIDTH 480 0
DWIDTH 12 0
BBX 7 18 3 0
BITMAP
10
78
08
18
10
00
00
F0
30
30
30
30
30
30
30
30
30
FE
ENDCHAR
STARTCHAR 1ECA
ENCODING 7882
SWIDTH 480 0
DWIDTH 12 0
BBX 8 20 2 -4
BITMAP
FF
FF
18
18
18
18
18
18
18
18
18
18
18
18
18
FF
00
00
18
18
ENDCHAR
STARTCHAR 1ECB
ENCODING 7883
SWIDTH 480 0
DWIDTH 12 0
BBX 7 20 3 -4
BITMAP
30
30
00
00
00
F0
30
30
30
30
30
30
30
30
30
FE
00
00
30
30
ENDCHAR
STARTCHAR 1ECC
ENCODING 7884
SWIDTH 480 0
DWIDTH 12 0
BBX 11 20 1 -4
BITMAP
0E00
3F80
6180
60C0
C0C0
C060
C060
C060
8060
8060
C060
C060
C0C0
60C0
7380
3F00
0000
0000
0C00
0C00
ENDCHAR
STARTCHAR 1ECD
ENCODING 7885
SWIDTH 480 0
DWIDTH 12 0
BBX 11 16 1 -4
BITMAP
0C00
3F80
6180
60C0
C0C0
C040
C060
C0C0
C0C0
60C0
7380
1F00
0000
0000
0C00
0C00
ENDCHAR
STARTCHAR 1ECE
ENCODING 7886
SWIDTH 480 0
DWIDTH 12 0
BBX 11 22 1 0
BITMAP
0400
1E00
0200
0600
0400
0000
0E00
3F80
6180
60C0
C0C0
C060
C060
C060
8060
8060
C060
C060
C0C0
60C0
7380
3F00
ENDCHAR
STARTCHAR 1ECF
ENCODING 7887
SWIDTH 480 0
DWIDTH 12 0
BBX 11 18 1 0
BITMAP
0400
1E00
0200
0600
0400
0000
0C00
3F80
6180
60C0
C0C0
C040
C060
C0C0
C0C0
60C0
7380
1F00
ENDCHAR
STARTCHAR 1ED0
ENCODING 7888
SWIDTH 480 0
DWIDTH 12 0
BBX 12 23 1 0
BITMAP
0010
0070
00E0
0C00
1E00
3380
0080
0E00
3F80
6180
60C0
C0C0
C060
C060
C060
8060
8060
C060
C060
C0C0
60C0
7380
3F00
ENDCHAR
STARTCHAR 1ED1
ENCODING 7889
SWIDTH 480 0
DWIDTH 12 0
BBX 11 20 1 0
BITMAP
0020
0060
0040
0C80
1E00
3300
2180
0000
0C00
3F80
6180
60C0
C0C0
C040
C060
C0C0
C0C0
60C0
7380
1F00
ENDCHAR
STARTCHAR 1ED2
ENCODING 7890
SWIDTH 480 0
DWIDTH 12 0
BBX 11 23 1 0
BITMAP
0400
0E00
0380
0C00
1E00
3380
0080
0E00
3F80
6180
60C0
C0C0
C060
C060
C060
8060
8060
C060
C060
C0C0
60C0
7380
3F00
ENDCHAR
STARTCHAR 1ED3
ENCODING 7891
SWIDTH 480 0
DWIDTH 12 0
BBX 11 21 1 0
BITMAP
0100
0180
0180
00C0
0C00
1E00
3300
2180
0000
0C00
3F80
6180
60C0
C0C0
C040
C060
C0C0
C0C0
60C0
7380
1F00
ENDCHAR
STARTCHAR 1ED4
ENCODING 7892
SWIDTH 480 0
DWIDTH 12 0
BBX 11 24 1 0
BITMAP
0080
03C0
0040
00C0
0C80
1E00
7380
0000
0E00
3F80
6180
60C0
C0C0
C060
C060
C060
8060
8060
C060
C060
C0C0
60C0
7380
3F00
ENDCHAR
STARTCHAR 1ED5
ENCODING 7893
SWIDTH 480 0
DWIDTH 12 0
BBX 11 21 1 0
BITMAP
0080
03C0
0040
00C0
0C80
1E00
3300
2180
0000
0C00
3F80
6180
60C0
C0C0
C040
C060
C0C0
C0C0
60C0
7380
1F00
ENDCHAR
STARTCHAR 1ED6
ENCODING 7894
SWIDTH 480 0
DWIDTH 12 0
BBX 11 23 1 0
BITMAP
1800
3D00
6700
0C00
1E00
3380
0080
0E00
3F80
6180
60C0
C0C0
C060
C060
C060
8060
8060
C060
C060
C0C0
60C0
7380
3F00
ENDCHAR
STARTCHAR 1ED7
ENCODING 7895
SWIDTH 480 0
DWIDTH 12 0
BBX 11 21 1 0
BITMAP
1800
3D00
6700
0000
0C00
1E00
3300
2180
0000
0C00
3F80
6180
60C0
C0C0
C040
C060
C0C0
C0C0
60C0
7380
1F00
ENDCHAR
STARTCHAR 1ED8
ENCODING 7896
SWIDTH 480 0
DWIDTH 12 0
BBX 11 24 1 -4
BITMAP
0C00
1E00
3380
0080
0E00
3F80
6180
60C0
C0C0
C060
C060
C060
8060
8060
C060
C060
C0C0
60C0
7380
3F00
0000
0000
0C00
0C00
ENDCHAR
STARTCHAR 1ED9
ENCODING 7897
SWIDTH 480 0
DWIDTH 12 0
BBX 11 21 1 -4
BITMAP
0C00
1E00
3300
2180
0000
0C00
3F80
6180
60C0
C0C0
C040
C060
C0C0
C0C0
60C0
7380
1F00
0000
0000
0C00
0C00
ENDCHAR
STARTCHAR 1EDA
ENCODING 7898
SWIDTH 480 0
DWIDTH 12 0
BBX 11 20 1 0
BITMAP
0200
0E00
1C00
0060
0C60
3FC0
6180
60C0
C0C0
C060
C060
C060
8060
8060
C060
C060
C0C0
60C0
7380
3F00
ENDCHAR
STARTCHAR 1EDB
ENCODING 7899
SWIDTH 480 0
DWIDTH 12 0
BBX 11 17 1 0
BITMAP
0200
0600
0400
0C00
0040
0C40
3FC0
6180
60C0
C0C0
C040
C060
C0C0
C0C0
60C0
7380
1F00
ENDCHAR
STARTCHAR 1EDC
ENCODING 7900
SWIDTH 480 0
DWIDTH 12 0
BBX 11 20 1 0
BITMAP
1000
3800
0E00
0060
0C60
3FC0
6180
60C0
C0C0
C060
C060
C060
8060
8060
C060
C060
C0C0
60C0
7380
3F00
ENDCHAR
STARTCHAR 1EDD
ENCODING 7901
SWIDTH 480 0
DWIDTH 12 0
BBX 11 17 1 0
BITMAP
1000
1800
0800
0C00
0040
0C40
3FC0
6180
60C0
C0C0
C040
C060
C0C0
C0C0
60C0
7380
1F00
ENDCHAR
STARTCHAR 1EDE
ENCODING 7902
SWIDTH 480 0
DWIDTH 12 0
BBX 11 22 1 0
BITMAP
0400
1E00
0200
0600
0400
0060
0C60
3FC0
6180
60C0
C0C0
C060
C060
C060
8060
8060
C060
C060
C0C0
60C0
7380
3F00
ENDCHAR
STARTCHAR 1EDF
ENCODING 7903
SWIDTH 480 0
DWIDTH 12 0
BBX 11 18 1 0
BITMAP
0400
1E00
0200
0600
0400
0040
0C40
3FC0
6180
60C0
C0C0
C040
C060
C0C0
C0C0
60C0
7380
1F00
ENDCHAR
STARTCHAR 1EE0
ENCODING 7904
SWIDTH 480 0
DWIDTH 12 0
BBX 11 20 1 0
BITMAP
1880
3F80
2300
0060
0C60
3FC0
6180
60C0
C0C0
C060
C060
C060
8060
8060
C060
C060
C0C0
60C0
7380
3F00
ENDCHAR
STARTCHAR 1EE1
ENCODING 7905
SWIDTH 480 0
DWIDTH 12 0
BBX 11 17 1 0
BITMAP
3880
6780
0300
0000
0040
0C40
3FC0
6180
60C0
C0C0
C040
C060
C0C0
C0C0
60C0
7380
1F00
ENDCHAR
STARTCHAR 1EE2
ENCODING 7906
SWIDTH 480 0
DWIDTH 12 0
BBX 11 21 1 -4
BITMAP
0060
0C60
3FC0
6180
60C0
C0C0
C060
C060
C060
8060
8060
C060
C060
C0C0
60C0
7380
3F00
0000
0000
0C00
0C00
ENDCHAR
STARTCHAR 1EE3
ENCODING 7907
SWIDTH 480 0
DWIDTH 12 0
BBX 11 17 1 -4
BITMAP
0040
0C40
3FC0
6180
60C0
C0C0
C040
C060
C0C0
C0C0
60C0
7380
1F00
0000
0000
0C00
0C00
ENDCHAR
STARTCHAR 1EE4
ENCODING 7908
SWIDTH 480 0
DWIDTH 12 0
BBX 10 20 1 -4
BITMAP
C040
C040
C040
C040
C040
C040
C040
C040
C040
C040
C040
C040
C0C0
60C0
7180
3F00
0000
0000
0C00
0C00
ENDCHAR
STARTCHAR 1EE5
ENCODING 7909
SWIDTH 480 0
DWIDTH 12 0
BBX 9 15 2 -4
BITMAP
8180
8180
8180
8180
8180
8180
8180
8180
C380
E780
7D80
0000
0000
3800
1800
ENDCHAR
STARTCHAR 1EE6
ENCODING 7910
SWIDTH 480 0
DWIDTH 12 0
BBX 10 22 1 0
BITMAP
0400
1E00
0200
0600
0400
0000
C040
C040
C040
C040
C040
C040
C040
C040
C040
C040
C040
C040
C0C0
60C0
7180
3F00
ENDCHAR
STARTCHAR 1EE7
ENCODING 7911
SWIDTH 480 0
DWIDTH 12 0
BBX 9 18 2 0
BITMAP
0800
3C00
0400
0C00
0800
0000
0000
8180
8180
8180
8180
8180
8180
8180
8180
C380
E780
7D80
ENDCHAR
STARTCHAR 1EE8
ENCODING 7912
SWIDTH 480 0
DWIDTH 12 0
BBX 11 20 1 0
BITMAP
0400
0E00
3C20
0020
C0E0
C0C0
C080
C080
C080
C080
C080
C080
C080
C080
C080
C080
C180
4180
6300
3E00
ENDCHAR
STARTCHAR 1EE9
ENCODING 7913
SWIDTH 480 0
DWIDTH 12 0
BBX 11 17 1 0
BITMAP
0400
0600
0C00
0820
0020
0060
C1C0
C180
C180
C180
C180
C180
C180
C180
C380
6780
3D80
ENDCHAR
STARTCHAR 1EEA
ENCODING 7914
SWIDTH 480 0
DWIDTH 12 0
BBX 11 20 1 0
BITMAP
2000
3800
1C20
0020
C0E0
C0C0
C080
C080
C080
C080
C080
C080
C080
C080
C080
C080
C180
4180
6300
3E00
ENDCHAR
STARTCHAR 1EEB
ENCODING 7915
SWIDTH 480 0
DWIDTH 12 0
BBX 11 17 1 0
BITMAP
1000
3000
1800
0820
0020
0060
C1C0
C180
C180
C180
C180
C180
C180
C180
C380
6780
3D80
ENDCHAR
STARTCHAR 1EEC
ENCODING 7916
SWIDTH 480 0
DWIDTH 12 0
BBX 11 22 1 0
BITMAP
0800
3C00
0400
0C00
0820
0020
C0E0
C0C0
C080
C080
C080
C080
C080
C080
C080
C080
C080
C080
C180
4180
6300
3E00
ENDCHAR
STARTCHAR 1EED
ENCODING 7917
SWIDTH 480 0
DWIDTH 12 0
BBX 11 18 1 0
BITMAP
0800
1E00
0600
0400
0C20
0020
0060
C1C0
C180
C180
C180
C180
C180
C180
C180
C380
6780
3D80
ENDCHAR
STARTCHAR 1EEE
ENCODING 7918
SWIDTH 480 0
DWIDTH 12 0
BBX 11 20 1 0
BITMAP
3800
6F80
0720
0020
C0E0
C0C0
C080
C080
C080
C080
C080
C080
C080
C080
C080
C080
C180
4180
6300
3E00
ENDCHAR
STARTCHAR 1EEF
ENCODING 7919
SWIDTH 480 0
DWIDTH 12 0
BBX 11 17 1 0
BITMAP
1000
3D00
4600
0020
0020
0060
C1C0
C180
C180
C180
C180
C180
C180
C180
C380
6780
3D80
ENDCHAR
STARTCHAR 1EF0
ENCODING 7920
SWIDTH 480 0
DWIDTH 12 0
BBX 11 22 1 -4
BITMAP
0020
0020
C0E0
C0C0
C080
C080
C080
C080
C080
C080
C080
C080
C080
C080
C180
4180
6300
3E00
0000
0800
1C00
1800
ENDCHAR
STARTCHAR 1EF1
ENCODING 7921
SWIDTH 480 0
DWIDTH 12 0
BBX 11 18 1 -4
BITMAP
0020
0020
0060
C1C0
C180
C180
C180
C180
C180
C180
C180
C380
6780
7D80
0000
0800
1C00
1800
ENDCHAR
STARTCHAR 1EF2
ENCODING 7922
SWIDTH 480 0
DWIDTH 12 0
BBX 11 20 1 0
BITMAP
1000
3800
0E00
0000
C060
C0C0
60C0
6080
3180
3100
1B00
1B00
0E00
0E00
0C00
0C00
0C00
0C00
0C00
0C00
ENDCHAR
STARTCHAR 1EF3
ENCODING 7923
SWIDTH 480 0
DWIDTH 12 0
BBX 10 21 1 -4
BITMAP
1000
1800
0800
0400
0000
0000
40C0
60C0
6080
3180
3180
1100
1B00
1B00
0A00
0E00
0600
0400
0C00
9800
F800
ENDCHAR
STARTCHAR 1EF4
ENCODING 7924
SWIDTH 480 0
DWIDTH 12 0
BBX 11 20 1 -4
BITMAP
C060
C0C0
60C0
6080
3180
3100
1B00
1B00
0E00
0E00
0C00
0C00
0C00
0C00
0C00
0C00
0000
0400
0E00
0C00
ENDCHAR
STARTCHAR 1EF5
ENCODING 7925
SWIDTH 480 0
DWIDTH 12 0
BBX 10 15 1 -4
BITMAP
40C0
60C0
6080
3180
3180
1100
1B00
1B00
0A00
0E00
0600
0400
0C00
9980
F980
ENDCHAR
STARTCHAR 1EF6
ENCODING 7926
SWIDTH 480 0
DWIDTH 12 0
BBX 11 22 1 0
BITMAP
0400
1E00
0200
0600
0400
0000
C060
C0C0
60C0
6080
3180
3100
1B00
1B00
0E00
0E00
0C00
0C00
0C00
0C00
0C00
0C00
ENDCHAR
STARTCHAR 1EF7
ENCODING 7927
SWIDTH 480 0
DWIDTH 12 0
BBX 10 22 1 -4
BITMAP
0400
1E00
0200
0600
0400
0000
0000
40C0
60C0
6080
3180
3180
1100
1B00
1B00
0A00
0E00
0600
0400
0C00
9800
F800
ENDCHAR
STARTCHAR 1EF8
ENCODING 7928
SWIDTH 480 0
DWIDTH 12 0
BBX 11 20 1 0
BITMAP
1880
3F80
2300
0000
C060
C0C0
60C0
6080
3180
3100
1B00
1B00
0E00
0E00
0C00
0C00
0C00
0C00
0C00
0C00
ENDCHAR
STARTCHAR 1EF9
ENCODING 7929
SWIDTH 480 0
DWIDTH 12 0
BBX 10 21 1 -4
BITMAP
3880
2780
0300
0000
0000
0000
40C0
60C0
6080
3180
3180
1100
1B00
1B00
0A00
0E00
0600
0400
0C00
9800
F800
ENDCHAR
STARTCHAR 2007
ENCODING 8199
SWIDTH 480 0
DWIDTH 12 0
BBX 0 0 0 0
BITMAP
ENDCHAR
STARTCHAR 2008
ENCODING 8200
SWIDTH 480 0
DWIDTH 12 0
BBX 0 0 0 0
BITMAP
ENDCHAR
STARTCHAR 2009
ENCODING 8201
SWIDTH 480 0
DWIDTH 12 0
BBX 0 0 0 0
BITMAP
ENDCHAR
STARTCHAR 200A
ENCODING 8202
SWIDTH 480 0
DWIDTH 12 0
BBX 0 0 0 0
BITMAP
ENDCHAR
STARTCHAR 200B
ENCODING 8203
SWIDTH 480 0
DWIDTH 12 0
BBX 0 0 0 0
BITMAP
ENDCHAR
STARTCHAR 2010
ENCODING 8208
SWIDTH 480 0
DWIDTH 12 0
BBX 9 2 2 7
BITMAP
FF80
FF80
ENDCHAR
STARTCHAR 2012
ENCODING 8210
SWIDTH 480 0
DWIDTH 12 0
BBX 11 2 1 7
BITMAP
FFE0
FFE0
ENDCHAR
STARTCHAR 2013
ENCODING 8211
SWIDTH 480 0
DWIDTH 12 0
BBX 9 2 2 7
BITMAP
FF80
FF80
ENDCHAR
STARTCHAR 2014
ENCODING 8212
SWIDTH 480 0
DWIDTH 12 0
BBX 12 2 0 7
BITMAP
FFF0
FFF0
ENDCHAR
STARTCHAR 2015
ENCODING 8213
SWIDTH 480 0
DWIDTH 12 0
BBX 12 2 0 7
BITMAP
FFF0
FFF0
ENDCHAR
STARTCHAR 2018
ENCODING 8216
SWIDTH 480 0
DWIDTH 12 0
BBX 3 7 5 9
BITMAP
20
40
C0
80
C0
E0
C0
ENDCHAR
STARTCHAR 2019
ENCODING 8217
SWIDTH 480 0
DWIDTH 12 0
BBX 4 6 4 9
BITMAP
60
F0
70
20
60
40
ENDCHAR
STARTCHAR 201A
ENCODING 8218
SWIDTH 480 0
DWIDTH 12 0
BBX 4 6 4 -3
BITMAP
60
70
30
20
40
C0
ENDCHAR
STARTCHAR 201C
ENCODING 8220
SWIDTH 480 0
DWIDTH 12 0
BBX 8 7 2 9
BITMAP
21
63
42
C6
E7
E7
43
ENDCHAR
STARTCHAR 201D
ENCODING 8221
SWIDTH 480 0
DWIDTH 12 0
BBX 9 6 2 9
BITMAP
6300
E380
7380
2100
6300
4200
ENDCHAR
STARTCHAR 201E
ENCODING 8222
SWIDTH 480 0
DWIDTH 12 0
BBX 8 7 2 -4
BITMAP
42
E7
E7
63
43
C2
84
ENDCHAR
STARTCHAR 2020
ENCODING 8224
SWIDTH 480 0
DWIDTH 12 0
BBX 10 20 1 -4
BITMAP
0C00
0C00
0C00
0C00
0C00
FFC0
0C00
0C00
0C00
0C00
0C00
0C00
0C00
0C00
0C00
0C00
0C00
0C00
0C00
0C00
ENDCHAR
STARTCHAR 2021
ENCODING 8225
SWIDTH 480 0
DWIDTH 12 0
BBX 10 20 1 -4
BITMAP
0C00
0C00
0C00
0C00
0C00
FFC0
0C00
0C00
0C00
0C00
0C00
0C00
0C00
FFC0
0C00
0C00
0C00
0C00
0C00
0C00
ENDCHAR
STARTCHAR 2022
ENCODING 8226
SWIDTH 480 0
DWIDTH 12 0
BBX 5 4 4 6
BITMAP
70
F8
F0
20
ENDCHAR
STARTCHAR 2026
ENCODING 8230
SWIDTH 480 0
DWIDTH 12 0
BBX 12 3 0 0
BITMAP
4020
EE70
E670
ENDCHAR
STARTCHAR 2030
ENCODING 8240
SWIDTH 480 0
DWIDTH 12 0
BBX 11 16 1 0
BITMAP
6000
F000
9800
9860
99C0
7300
0C00
3800
E000
8000
6180
F3C0
9A60
9A60
9B60
71C0
ENDCHAR
STARTCHAR 2032
ENCODING 8242
SWIDTH 480 0
DWIDTH 12 0
BBX 2 4 5 13
BITMAP
C0
C0
C0
80
ENDCHAR
STARTCHAR 2033
ENCODING 8243
SWIDTH 480 0
DWIDTH 12 0
BBX 5 4 4 13
BITMAP
D8
98
90
90
ENDCHAR
STARTCHAR 2039
ENCODING 8249
SWIDTH 480 0
DWIDTH 12 0
BBX 5 8 4 2
BITMAP
10
30
60
C0
C0
60
30
18
ENDCHAR
STARTCHAR 203A
ENCODING 8250
SWIDTH 480 0
DWIDTH 12 0
BBX 4 8 4 2
BITMAP
80
C0
60
30
30
60
40
C0
ENDCHAR
STARTCHAR 2044
ENCODING 8260
SWIDTH 480 0
DWIDTH 12 0
BBX 9 17 2 0
BITMAP
0180
0100
0300
0200
0600
0400
0C00
0C00
0800
1800
1000
3000
2000
6000
4000
C000
8000
ENDCHAR
STARTCHAR 2070
ENCODING 8304
SWIDTH 480 0
DWIDTH 12 0
BBX 7 10 3 6
BITMAP
38
6C
C6
CE
DE
D6
E6
C6
7C
38
ENDCHAR
STARTCHAR 2074
ENCODING 8308
SWIDTH 480 0
DWIDTH 12 0
BBX 8 10 2 6
BITMAP
06
0E
1E
36
26
46
FF
06
06
06
ENDCHAR
STARTCHAR 2075
ENCODING 8309
SWIDTH 480 0
DWIDTH 12 0
BBX 7 10 3 6
BITMAP
7C
7C
40
58
7C
06
06
06
FC
38
ENDCHAR
STARTCHAR 2076
ENCODING 8310
SWIDTH 480 0
DWIDTH 12 0
BBX 7 10 3 6
BITMAP
3C
6C
C0
F0
FC
C4
C6
C4
7C
38
ENDCHAR
STARTCHAR 2077
ENCODING 8311
SWIDTH 480 0
DWIDTH 12 0
BBX 5 10 4 6
BITMAP
F8
F8
18
10
30
20
60
60
40
C0
ENDCHAR
STARTCHAR 2078
ENCODING 8312
SWIDTH 480 0
DWIDTH 12 0
BBX 6 10 3 6
BITMAP
38
6C
44
6C
38
4C
C4
C4
7C
38
ENDCHAR
STARTCHAR 2079
ENCODING 8313
SWIDTH 480 0
DWIDTH 12 0
BBX 6 10 4 6
BITMAP
70
D8
88
88
9C
7C
08
08
F8
70
ENDCHAR
STARTCHAR 207B
ENCODING 8315
SWIDTH 480 0
DWIDTH 12 0
BBX 10 2 1 7
BITMAP
FFC0
FFC0
ENDCHAR
STARTCHAR 207F
ENCODING 8319
SWIDTH 480 0
DWIDTH 12 0
BBX 9 12 2 0
BITMAP
0C00
FF00
E300
C180
C180
C180
C180
C180
C180
C180
C180
C180
ENDCHAR
STARTCHAR 2080
ENCODING 8320
SWIDTH 480 0
DWIDTH 12 0
BBX 7 10 3 0
BITMAP
10
7C
C4
CE
CE
D6
E6
C6
6C
78
ENDCHAR
STARTCHAR 2081
ENCODING 8321
SWIDTH 480 0
DWIDTH 12 0
BBX 4 9 3 0
BITMAP
30
F0
10
10
10
10
10
10
10
ENDCHAR
STARTCHAR 2082
ENCODING 8322
SWIDTH 480 0
DWIDTH 12 0
BBX 7 10 3 0
BITMAP
3C
EC
86
06
0C
18
30
60
FE
FE
ENDCHAR
STARTCHAR 2083
ENCODING 8323
SWIDTH 480 0
DWIDTH 12 0
BBX 7 10 3 -1
BITMAP
78
EC
06
04
18
0E
06
86
FE
38
ENDCHAR
STARTCHAR 2084
ENCODING 8324
SWIDTH 480 0
DWIDTH 12 0
BBX 8 10 2 0
BITMAP
06
0E
1E
36
26
46
FF
06
06
06
ENDCHAR
STARTCHAR 2085
ENCODING 8325
SWIDTH 480 0
DWIDTH 12 0
BBX 7 10 3 0
BITMAP
7C
7C
40
40
7C
44
06
46
CC
78
ENDCHAR
STARTCHAR 2086
ENCODING 8326
SWIDTH 480 0
DWIDTH 12 0
BBX 7 10 3 0
BITMAP
18
7C
40
C0
FC
C4
C6
C4
6C
78
ENDCHAR
STARTCHAR 2087
ENCODING 8327
SWIDTH 480 0
DWIDTH 12 0
BBX 5 10 4 0
BITMAP
F8
F8
18
10
30
30
20
60
40
C0
ENDCHAR
STARTCHAR 2088
ENCODING 8328
SWIDTH 480 0
DWIDTH 12 0
BBX 6 10 3 0
BITMAP
30
7C
44
4C
78
78
C4
C4
EC
78
ENDCHAR
STARTCHAR 2089
ENCODING 8329
SWIDTH 480 0
DWIDTH 12 0
BBX 6 10 4 0
BITMAP
60
F8
88
88
8C
FC
28
08
98
F0
ENDCHAR
STARTCHAR 20A1
ENCODING 8353
SWIDTH 480 0
DWIDTH 12 0
BBX 10 19 1 -2
BITMAP
0280
0680
1F80
33C0
6540
4500
C500
C600
CA00
CA00
CC00
D400
D400
7400
7840
39C0
3F80
2800
3000
ENDCHAR
STARTCHAR 20A3
ENCODING 8355
SWIDTH 480 0
DWIDTH 12 0
BBX 10 16 1 0
BITMAP
7FC0
7FC0
6000
6000
6000
6000
6000
7F80
6000
6000
6000
FC00
6000
6000
6000
6000
ENDCHAR
STARTCHAR 20A4
ENCODING 8356
SWIDTH 480 0
DWIDTH 12 0
BBX 11 16 1 0
BITMAP
0200
1F80
3080
3000
2000
3000
3000
7E00
3000
1000
1000
1000
3000
3000
FE40
C7E0
ENDCHAR
STARTCHAR 20A6
ENCODING 8358
SWIDTH 480 0
DWIDTH 12 0
BBX 12 16 0 0
BITMAP
2060
3060
3060
3860
2860
2C60
2460
2660
FFF0
2360
2160
21E0
20E0
20E0
2060
2060
ENDCHAR
STARTCHAR 20A7
ENCODING 8359
SWIDTH 480 0
DWIDTH 12 0
BBX 11 16 1 0
BITMAP
E000
F800
C800
CC00
CC00
CC00
D800
F000
C800
C880
FDE0
D920
D9C0
D860
DA20
CFE0
ENDCHAR
STARTCHAR 20A9
ENCODING 8361
SWIDTH 480 0
DWIDTH 12 0
BBX 12 16 0 0
BITMAP
4020
6020
6220
6220
6620
2720
2760
2560
FFF0
39C0
39C0
18C0
18C0
10C0
10C0
1080
ENDCHAR
STARTCHAR 20AB
ENCODING 8363
SWIDTH 480 0
DWIDTH 12 0
BBX 9 16 2 0
BITMAP
0300
0200
3F80
0200
3A00
C600
8200
8200
8200
8200
8200
C600
7F00
1000
0000
FF00
ENDCHAR
STARTCHAR 20AC
ENCODING 8364
SWIDTH 480 0
DWIDTH 12 0
BBX 10 16 1 0
BITMAP
0300
0FC0
1840
3000
2000
6000
FF80
6000
6000
FF00
FE00
6000
2000
3000
1C40
0FC0
ENDCHAR
STARTCHAR 20AD
ENCODING 8365
SWIDTH 480 0
DWIDTH 12 0
BBX 12 16 0 0
BITMAP
3030
2060
20C0
2180
2300
2600
2E00
FFE0
3600
2300
2300
2180
20C0
20E0
2060
2030
ENDCHAR
STARTCHAR 20B1
ENCODING 8369
SWIDTH 480 0
DWIDTH 12 0
BBX 12 16 0 0
BITMAP
7E00
7FC0
60E0
FFF0
6020
FFF0
6060
61E0
7F80
6000
6000
6000
6000
6000
6000
6000
ENDCHAR
STARTCHAR 20B2
ENCODING 8370
SWIDTH 480 0
DWIDTH 12 0
BBX 11 19 1 -2
BITMAP
0400
0E00
3F80
74C0
64C0
C400
C400
C400
C400
C400
C5E0
C460
C460
6460
6460
3DE0
1F80
0400
0400
ENDCHAR
STARTCHAR 20B5
ENCODING 8373
SWIDTH 480 0
DWIDTH 12 0
BBX 10 19 1 -2
BITMAP
0600
0600
1F80
36C0
6640
4600
C600
C600
C600
C600
C600
C600
C600
6600
6640
3FC0
1F80
0600
0600
ENDCHAR
STARTCHAR 20B9
ENCODING 8377
SWIDTH 480 0
DWIDTH 12 0
BBX 11 16 1 0
BITMAP
FFE0
FFE0
0700
0100
FFE0
FFE0
0300
0F00
FE00
0C00
0C00
0600
0600
0300
0300
0180
ENDCHAR
STARTCHAR 20BA
ENCODING 8378
SWIDTH 480 0
DWIDTH 12 0
BBX 10 16 1 0
BITMAP
3000
2000
2000
2700
3C00
E100
A700
3C00
E000
2000
2040
20C0
20C0
2180
3F00
3E00
ENDCHAR
STARTCHAR 20BC
ENCODING 8380
SWIDTH 480 0
DWIDTH 12 0
BBX 10 17 1 0
BITMAP
0C00
0C00
0C00
3F80
6D80
4CC0
CC40
CC40
CC40
CC40
CC40
CC40
CC40
CC40
CC40
C040
C040
ENDCHAR
STARTCHAR 20BD
ENCODING 8381
SWIDTH 480 0
DWIDTH 12 0
BBX 12 16 0 0
BITMAP
3E00
3FC0
30E0
3060
3030
3030
3060
31E0
FFC0
3000
3000
FE00
3000
3000
3000
3000
ENDCHAR
STARTCHAR 2113
ENCODING 8467
SWIDTH 480 0
DWIDTH 12 0
BBX 10 17 1 0
BITMAP
0F00
3B80
3180
3180
3180
3180
3180
3300
3600
3C00
F000
B000
3000
30C0
3080
3980
1F00
ENDCHAR
STARTCHAR 2116
ENCODING 8470
SWIDTH 480 0
DWIDTH 12 0
BBX 11 16 1 0
BITMAP
CDC0
C940
CA20
CB60
E9C0
E800
EBE0
E800
D800
D800
D800
D800
D800
C800
C800
C800
ENDCHAR
STARTCHAR 2122
ENCODING 8482
SWIDTH 480 0
DWIDTH 12 0
BBX 12 8 0 8
BITMAP
FD10
1110
11B0
11F0
1150
1110
1110
1110
ENDCHAR
STARTCHAR 2124
ENCODING 8484
SWIDTH 480 0
DWIDTH 12 0
BBX 11 16 1 0
BITMAP
FFE0
FF60
0240
02C0
0680
0580
0D00
0900
1A00
1200
3400
2400
6800
4800
D000
FFE0
ENDCHAR
STARTCHAR 2126
ENCODING 8486
SWIDTH 480 0
DWIDTH 12 0
BBX 11 17 1 0
BITMAP
1E00
3F80
60C0
C0C0
C060
8060
8060
8020
8020
8060
8060
C060
C040
60C0
2180
FBE0
FBE0
ENDCHAR
STARTCHAR 212E
ENCODING 8494
SWIDTH 480 0
DWIDTH 12 0
BBX 11 12 1 0
BITMAP
1F00
6180
40C0
C0C0
C0E0
FFE0
C000
C000
C000
C040
6080
1F00
ENDCHAR
STARTCHAR 2190
ENCODING 8592
SWIDTH 480 0
DWIDTH 12 0
BBX 11 9 1 3
BITMAP
0400
1C00
3000
6000
FFE0
E000
3000
1C00
0C00
ENDCHAR
STARTCHAR 2191
ENCODING 8593
SWIDTH 480 0
DWIDTH 12 0
BBX 9 15 2 0
BITMAP
0800
1800
1C00
3E00
7B00
DB00
9980
1800
1800
1800
1800
1800
1800
1800
1800
ENDCHAR
STARTCHAR 2192
ENCODING 8594
SWIDTH 480 0
DWIDTH 12 0
BBX 12 9 0 3
BITMAP
0600
0300
0180
00E0
FFF0
0060
01C0
0300
0600
ENDCHAR
STARTCHAR 2193
ENCODING 8595
SWIDTH 480 0
DWIDTH 12 0
BBX 9 14 2 1
BITMAP
1800
1800
1800
1800
1800
1800
1800
1800
9980
DB00
7A00
3E00
1C00
0800
ENDCHAR
STARTCHAR 2194
ENCODING 8596
SWIDTH 480 0
DWIDTH 12 0
BBX 12 9 0 3
BITMAP
0980
1980
30C0
6060
FFF0
6070
30E0
19C0
0980
ENDCHAR
STARTCHAR 2195
ENCODING 8597
SWIDTH 480 0
DWIDTH 12 0
BBX 9 11 2 1
BITMAP
1800
3C00
7E00
DB80
9900
1800
9800
DB80
7F00
3E00
1C00
ENDCHAR
STARTCHAR 2196
ENCODING 8598
SWIDTH 480 0
DWIDTH 12 0
BBX 12 11 0 3
BITMAP
F800
FF00
7000
5800
4C00
6600
6300
4180
00C0
0060
0030
ENDCHAR
STARTCHAR 2197
ENCODING 8599
SWIDTH 480 0
DWIDTH 12 0
BBX 11 11 1 3
BITMAP
03E0
1FE0
01E0
0340
0640
0C40
18C0
3040
6000
C000
8000
ENDCHAR
STARTCHAR 2198
ENCODING 8600
SWIDTH 480 0
DWIDTH 12 0
BBX 11 11 1 1
BITMAP
8000
C000
6000
3040
18C0
0C40
0640
0340
01E0
1FE0
03E0
ENDCHAR
STARTCHAR 2199
ENCODING 8601
SWIDTH 480 0
DWIDTH 12 0
BBX 12 11 0 1
BITMAP
0030
0060
00C0
4180
6300
6600
4C00
5800
7000
FF00
F800
ENDCHAR
STARTCHAR 21E6
ENCODING 8678
SWIDTH 480 0
DWIDTH 12 0
BBX 12 11 0 2
BITMAP
0200
0600
0A00
13F0
6010
C010
4010
2010
13F0
0A00
0600
ENDCHAR
STARTCHAR 21E7
ENCODING 8679
SWIDTH 480 0
DWIDTH 12 0
BBX 11 16 1 0
BITMAP
0400
0A00
1300
2180
40C0
8040
F1E0
2100
2100
2100
2100
2100
2100
2100
2100
3F00
ENDCHAR
STARTCHAR 21E8
ENCODING 8680
SWIDTH 480 0
DWIDTH 12 0
BBX 12 11 0 2
BITMAP
0600
0700
0580
FEC0
8020
8010
8030
8060
FEC0
0580
0700
ENDCHAR
STARTCHAR 21E9
ENCODING 8681
SWIDTH 480 0
DWIDTH 12 0
BBX 11 16 1 0
BITMAP
3F00
2100
2100
2100
2100
2100
2100
2100
2100
F1E0
8060
40C0
2180
1300
0A00
0C00
ENDCHAR
STARTCHAR 21EA
ENCODING 8682
SWIDTH 480 0
DWIDTH 12 0
BBX 11 17 1 -1
BITMAP
0400
0A00
1300
2180
40C0
8040
F1E0
2100
2100
2100
3F00
0000
0000
3F00
2100
2100
3F00
ENDCHAR
STARTCHAR 2202
ENCODING 8706
SWIDTH 480 0
DWIDTH 12 0
BBX 11 17 1 0
BITMAP
0800
3F00
0180
00C0
00C0
0040
3E60
71E0
60E0
C060
C060
C0C0
C0C0
C0C0
C180
6380
3E00
ENDCHAR
STARTCHAR 2205
ENCODING 8709
SWIDTH 480 0
DWIDTH 12 0
BBX 11 11 1 3
BITMAP
0C20
3FE0
60C0
C140
8260
8460
8860
9060
E0C0
6180
BF00
ENDCHAR
STARTCHAR 2206
ENCODING 8710
SWIDTH 480 0
DWIDTH 12 0
BBX 11 17 1 0
BITMAP
0C00
0E00
0E00
1A00
1A00
1300
3100
3100
3180
2180
6080
6080
40C0
C0C0
C040
C060
FFE0
ENDCHAR
STARTCHAR 2208
ENCODING 8712
SWIDTH 480 0
DWIDTH 12 0
BBX 10 11 1 0
BITMAP
1FC0
6000
4000
8000
8000
FFC0
8000
8000
4000
3000
1FC0
ENDCHAR
STARTCHAR 220F
ENCODING 8719
SWIDTH 480 0
DWIDTH 12 0
BBX 10 21 1 -5
BITMAP
FFC0
FFC0
C0C0
C0C0
C0C0
C0C0
C0C0
C0C0
C0C0
C0C0
C0C0
C0C0
C0C0
C0C0
C0C0
C0C0
C0C0
C0C0
C0C0
C0C0
C0C0
ENDCHAR
STARTCHAR 2211
ENCODING 8721
SWIDTH 480 0
DWIDTH 12 0
BBX 10 21 1 -4
BITMAP
FFC0
FFC0
C000
4000
6000
3000
3000
1800
1800
0C00
0600
0C00
0C00
1800
1000
3000
6000
6000
C000
8000
FFC0
ENDCHAR
STARTCHAR 2212
ENCODING 8722
SWIDTH 480 0
DWIDTH 12 0
BBX 10 2 1 7
BITMAP
FFC0
FFC0
ENDCHAR
STARTCHAR 2215
ENCODING 8725
SWIDTH 480 0
DWIDTH 12 0
BBX 9 23 2 -4
BITMAP
0180
0100
0300
0300
0200
0600
0400
0400
0C00
0800
0800
1800
1000
3000
3000
2000
6000
4000
4000
C000
8000
8000
8000
ENDCHAR
STARTCHAR 2217
ENCODING 8727
SWIDTH 480 0
DWIDTH 12 0
BBX 10 11 1 3
BITMAP
0C00
0C00
0400
C4C0
F7C0
0E00
0E00
1B00
3100
6180
2000
ENDCHAR
STARTCHAR 2219
ENCODING 8729
SWIDTH 480 0
DWIDTH 12 0
BBX 5 5 4 4
BITMAP
F0
F8
F8
F8
70
ENDCHAR
STARTCHAR 221A
ENCODING 8730
SWIDTH 480 0
DWIDTH 12 0
BBX 12 17 0 0
BITMAP
0010
0030
0020
0020
0060
0040
0040
00C0
0080
F080
1180
1900
1900
0B00
0E00
0600
0600
ENDCHAR
STARTCHAR 221E
ENCODING 8734
SWIDTH 480 0
DWIDTH 12 0
BBX 12 7 0 4
BITMAP
30E0
7DF0
C710
C610
C730
7DF0
3040
ENDCHAR
STARTCHAR 222B
ENCODING 8747
SWIDTH 480 0
DWIDTH 12 0
BBX 9 25 2 -6
BITMAP
0780
0F80
0C00
0800
1800
1800
1800
1800
1800
1800
1800
1800
1800
1800
1800
1800
1800
1800
1800
1800
1800
1800
1800
F800
F000
ENDCHAR
STARTCHAR 2248
ENCODING 8776
SWIDTH 480 0
DWIDTH 12 0
BBX 10 6 2 5
BITMAP
78C0
CF80
0000
0000
78C0
CF80
ENDCHAR
STARTCHAR 2260
ENCODING 8800
SWIDTH 480 0
DWIDTH 12 0
BBX 10 14 1 1
BITMAP
0080
0180
0100
0300
FFC0
FFC0
0C00
0800
FFC0
F000
3000
2000
4000
4000
ENDCHAR
STARTCHAR 2264
ENCODING 8804
SWIDTH 480 0
DWIDTH 12 0
BBX 10 13 1 0
BITMAP
0040
03C0
0F00
7800
E000
E000
3C00
0F00
01C0
0040
0000
FFC0
FFC0
ENDCHAR
STARTCHAR 2265
ENCODING 8805
SWIDTH 480 0
DWIDTH 12 0
BBX 10 13 1 0
BITMAP
C000
F000
3C00
0780
00C0
01C0
0700
3C00
F000
C000
0000
FFC0
FFC0
ENDCHAR
STARTCHAR 2295
ENCODING 8853
SWIDTH 480 0
DWIDTH 12 0
BBX 10 11 1 2
BITMAP
1E00
3180
44C0
8440
8440
BFC0
8440
C440
4480
3F00
0400
ENDCHAR
STARTCHAR 2302
ENCODING 8962
SWIDTH 480 0
DWIDTH 12 0
BBX 11 11 1 1
BITMAP
1E00
3180
C0C0
8020
8020
8020
8020
8020
8020
8020
FFE0
ENDCHAR
STARTCHAR 2318
ENCODING 8984
SWIDTH 480 0
DWIDTH 12 0
BBX 11 11 1 0
BITMAP
F1C0
9220
9220
FFC0
1200
1200
7FC0
9260
9220
9360
61C0
ENDCHAR
STARTCHAR 2325
ENCODING 8997
SWIDTH 480 0
DWIDTH 12 0
BBX 13 11 0 0
BITMAP
F0F8
0800
0800
0400
0400
0200
0200
0100
0180
0080
00F8
ENDCHAR
STARTCHAR 2326
ENCODING 8998
SWIDTH 480 0
DWIDTH 12 0
BBX 11 11 1 2
BITMAP
FF00
8180
8080
A240
9440
8820
9440
A240
8080
8180
FF00
ENDCHAR
STARTCHAR 2327
ENCODING 8999
SWIDTH 480 0
DWIDTH 12 0
BBX 9 11 2 2
BITMAP
FF80
8080
8080
A280
9480
8880
9480
A280
8080
8080
FF80
ENDCHAR
STARTCHAR 232B
ENCODING 9003
SWIDTH 480 0
DWIDTH 12 0
BBX 12 11 0 2
BITMAP
1FF0
3010
2010
4890
4510
8210
4510
4890
2010
3010
1FF0
ENDCHAR
STARTCHAR 238B
ENCODING 9099
SWIDTH 480 0
DWIDTH 12 0
BBX 10 11 1 2
BITMAP
E600
C180
A0C0
1040
0840
8040
8040
C040
4080
3F00
0400
ENDCHAR
STARTCHAR 23CE
ENCODING 9166
SWIDTH 480 0
DWIDTH 12 0
BBX 11 10 1 1
BITMAP
01E0
0140
1140
3140
5F40
8040
8040
5FE0
3000
1000
ENDCHAR
STARTCHAR 2423
ENCODING 9251
SWIDTH 480 0
DWIDTH 12 0
BBX 10 4 1 -2
BITMAP
8040
8040
8040
FFC0
ENDCHAR
STARTCHAR 25C6
ENCODING 9670
SWIDTH 480 0
DWIDTH 12 0
BBX 10 10 1 2
BITMAP
0C00
1E00
3F00
7F80
FFC0
FFC0
7F80
3F00
1E00
0C00
ENDCHAR
STARTCHAR 25C7
ENCODING 9671
SWIDTH 480 0
DWIDTH 12 0
BBX 10 10 1 2
BITMAP
0C00
1A00
3100
6080
C040
C040
6080
3100
1A00
0C00
ENDCHAR
STARTCHAR 25CA
ENCODING 9674
SWIDTH 480 0
DWIDTH 12 0
BBX 11 16 1 0
BITMAP
0400
0E00
0A00
1B00
3180
2080
60C0
C060
C040
60C0
2180
3180
1B00
0A00
0E00
0400
ENDCHAR
STARTCHAR 25CB
ENCODING 9675
SWIDTH 480 0
DWIDTH 12 0
BBX 10 11 1 2
BITMAP
1E00
3180
40C0
8040
8040
8040
8040
C040
4080
3F00
0400
ENDCHAR
STARTCHAR 25CF
ENCODING 9679
SWIDTH 480 0
DWIDTH 12 0
BBX 10 10 1 2
BITMAP
1E00
3F80
7FC0
FFC0
FFC0
FFC0
FFC0
FFC0
7F80
3F00
ENDCHAR
STARTCHAR 2639
ENCODING 9785
SWIDTH 480 0
DWIDTH 12 0
BBX 10 11 1 2
BITMAP
1E00
3180
40C0
8040
9340
8040
9E40
D140
4080
3F00
0400
ENDCHAR
STARTCHAR 263A
ENCODING 9786
SWIDTH 480 0
DWIDTH 12 0
BBX 10 11 1 2
BITMAP
1E00
3180
40C0
8040
9340
8040
8140
DE40
4080
3F00
0400
ENDCHAR
STARTCHAR 263B
ENCODING 9787
SWIDTH 480 0
DWIDTH 12 0
BBX 10 10 1 2
BITMAP
1E00
3F80
7FC0
FFC0
ECC0
FFC0
FEC0
E1C0
7F80
3F00
ENDCHAR
STARTCHAR 2660
ENCODING 9824
SWIDTH 480 0
DWIDTH 12 0
BBX 12 15 0 0
BITMAP
0200
0600
0700
0F80
1FC0
3FE0
7FF0
FFF0
FFF0
FFF0
7FF0
32C0
0600
0700
3FE0
ENDCHAR
STARTCHAR 2663
ENCODING 9827
SWIDTH 480 0
DWIDTH 12 0
BBX 12 15 0 0
BITMAP
0200
0F80
1F80
1F80
1F80
3FE0
7FF0
FFF0
FFF0
FFF0
7FF0
0600
0600
0700
0F00
ENDCHAR
STARTCHAR 2665
ENCODING 9829
SWIDTH 480 0
DWIDTH 12 0
BBX 12 15 0 0
BITMAP
38E0
7DF0
FFF0
FFF0
FFF0
7FF0
7FF0
3FE0
3FC0
1F80
0F00
0700
0600
0200
0200
ENDCHAR
STARTCHAR 2666
ENCODING 9830
SWIDTH 480 0
DWIDTH 12 0
BBX 12 15 0 0
BITMAP
0200
0700
0F80
1F80
3FC0
3FE0
7FF0
FFF0
7FF0
3FE0
1FC0
1F80
0F80
0700
0200
ENDCHAR
STARTCHAR 2713
ENCODING 10003
SWIDTH 480 0
DWIDTH 12 0
BBX 11 16 1 0
BITMAP
0080
00E0
00C0
00C0
01C0
0180
0180
0380
0300
0700
0600
8E00
CC00
F800
7800
3000
ENDCHAR
STARTCHAR 2714
ENCODING 10004
SWIDTH 480 0
DWIDTH 12 0
BBX 12 16 0 0
BITMAP
0020
0070
0070
0070
00E0
00E0
01C0
01C0
6380
E380
E700
6E00
7E00
7C00
7800
1000
ENDCHAR
STARTCHAR 2715
ENCODING 10005
SWIDTH 480 0
DWIDTH 12 0
BBX 9 9 2 4
BITMAP
0100
C380
6300
3600
1C00
1C00
3600
6300
C100
ENDCHAR
STARTCHAR 2717
ENCODING 10007
SWIDTH 480 0
DWIDTH 12 0
BBX 12 16 0 0
BITMAP
0400
0C10
0C30
0C70
0EE0
07C0
0780
0700
0F00
0F00
1B80
3980
71C0
60E0
E040
4000
ENDCHAR
STARTCHAR 2718
ENCODING 10008
SWIDTH 480 0
DWIDTH 12 0
BBX 13 16 0 0
BITMAP
1C00
1C10
1C78
0EF0
0EE0
0FC0
0F80
0780
0F00
1F80
3F80
3BC0
79C0
F0E0
60E0
2040
ENDCHAR
STARTCHAR 2B05
ENCODING 11013
SWIDTH 480 0
DWIDTH 12 0
BBX 12 11 0 2
BITMAP
0200
0600
0E00
1FF0
7FF0
FFF0
7FF0
3FF0
1FF0
0E00
0600
ENDCHAR
STARTCHAR 2B06
ENCODING 11014
SWIDTH 480 0
DWIDTH 12 0
BBX 11 16 1 0
BITMAP
0400
0E00
1F00
3F80
7FC0
FFC0
FFE0
3F00
3F00
3F00
3F00
3F00
3F00
3F00
3F00
3F00
ENDCHAR
STARTCHAR 2B07
ENCODING 11015
SWIDTH 480 0
DWIDTH 12 0
BBX 11 16 1 0
BITMAP
3F00
3F00
3F00
3F00
3F00
3F00
3F00
3F00
3F00
FFE0
FFE0
7FC0
3F80
1F00
0E00
0C00
ENDCHAR
STARTCHAR 2B95
ENCODING 11157
SWIDTH 480 0
DWIDTH 12 0
BBX 12 11 0 2
BITMAP
0600
0700
0780
FFC0
FFE0
FFF0
FFF0
FFE0
FFC0
0780
0700
ENDCHAR
STARTCHAR 2E12
ENCODING 11794
SWIDTH 480 0
DWIDTH 12 0
BBX 3 6 5 -3
BITMAP
C0
60
20
20
60
C0
ENDCHAR
STARTCHAR FB01
ENCODING 64257
SWIDTH 480 0
DWIDTH 12 0
BBX 10 17 1 0
BITMAP
1C00
3FC0
60C0
6000
6000
6000
FDC0
60C0
60C0
60C0
60C0
60C0
60C0
60C0
60C0
60C0
60C0
ENDCHAR
STARTCHAR FB02
ENCODING 64258
SWIDTH 480 0
DWIDTH 12 0
BBX 10 17 1 0
BITMAP
1CC0
3EC0
60C0
60C0
60C0
60C0
FCC0
60C0
60C0
60C0
60C0
60C0
60C0
60C0
60C0
60C0
60C0
ENDCHAR
STARTCHAR FFFD
ENCODING 65533
SWIDTH 480 0
DWIDTH 12 0
BBX 12 15 0 0
BITMAP
0200
0700
0F80
1880
3740
3F60
7F70
FEF0
7DF0
3DE0
1DC0
1F80
0D80
0500
0200
ENDCHAR
ENDFONT
